<?xml version="1.0" standalone="no"?>
<!DOCTYPE svg PUBLIC "-//W3C//DTD SVG 1.1//EN" "http://www.w3.org/Graphics/SVG/1.1/DTD/svg11.dtd" >
<svg>
<metadata>
Created by FontForge 20090914 at Sat Aug 22 19:08:13 2020
 By www-data
Copyright (c) 2010, Kimberly Geswein (kimberlygeswein.com)
</metadata>
<defs>
<font id="ShadowsIntoLight" horiz-adv-x="400" >
  <font-face 
    font-family="Shadows Into Light"
    font-weight="400"
    font-stretch="normal"
    units-per-em="1024"
    panose-1="2 0 0 0 0 0 0 0 0 0"
    ascent="819"
    descent="-205"
    x-height="497.002"
    cap-height="762.502"
    bbox="-176 -436.117 1279 1203"
    underline-thickness="0"
    underline-position="0"
    unicode-range="U+0020-U+FB02"
  />
<missing-glyph horiz-adv-x="461" 
 />
    <glyph glyph-name=".notdef" horiz-adv-x="461" 
 />
    <glyph glyph-name="space" unicode=" " horiz-adv-x="461" 
 />
    <glyph glyph-name="exclam" unicode="!" horiz-adv-x="141" 
d="M17 489c0 61.333 1.3291 122.168 3.99609 182.501s6 122.5 10 186.5c2 5.33301 4.33301 8.83301 7 10.5s6.33398 2.5 11.001 2.5c6.66699 0 11.334 -1.83301 14.001 -5.5s4.5 -7.83398 5.5 -12.501s1.33301 -9.83398 1 -15.501s-0.5 -10.5 -0.5 -14.5v-306
c0 -12 1 -24.667 3 -38l6 -40c2.66699 -13.333 4.5 -25.833 5.5 -37.5s0.166992 -21.5 -2.5 -29.5c-1.33301 -7.33301 -5.16602 -13.666 -11.499 -18.999s-13.166 -8 -20.499 -8c-12 0 -20.333 6 -25 18s-7.5 26 -8.5 42s-1 32 0 48s1.5 28 1.5 36zM79.9961 24.002v15.998
c0 3.33301 0.333008 6.83301 1 10.5s2 6.83398 4 9.50098s5 4 9 4c13.333 0 21.166 -3.16699 23.499 -9.5s3.5 -13.833 3.5 -22.5c0 -9.33301 -1.16699 -17 -3.5 -23s-10.166 -9 -23.499 -9c-4 0 -7 1.33301 -9 4s-3.33301 5.83398 -4 9.50098s-1 7.16699 -1 10.5z" />
    <glyph glyph-name="quotedbl" unicode="&#x22;" horiz-adv-x="218" 
d="M26 795c2.66699 6.66699 6.33398 10.498 11.001 11.498s9.66699 1.5 15 1.5c8 0 14.333 -1.5 19 -4.5s6.66699 -10.5 6 -22.5c3.33301 -39.333 6.33301 -76.666 9 -111.999s4 -71.666 4 -108.999c0 -4.66699 0.166992 -9.66699 0.5 -15s0 -10.5 -1 -15.5
s-3 -9.33301 -6 -13s-7.5 -5.5 -13.5 -5.5c-4.66699 0 -8.66699 5.5 -12 16.5s-6.16602 25.5 -8.49902 43.5s-4.5 37.667 -6.5 59s-3.83301 42.5 -5.5 63.5s-3.33398 40.5 -5.00098 58.5s-3.83398 32.333 -6.50098 43zM141 794.998
c5.33301 1.33301 10.499 1.16797 15.499 -0.499023s9.33301 -4 13 -7s6.33398 -6.33301 8.00098 -10s2.5 -6.5 2.5 -8.5v-226c-10 0 -19 2.66699 -27 8s-12 13.666 -12 24.999v219z" />
    <glyph glyph-name="numbersign" unicode="#" horiz-adv-x="461" 
d="M143 171c-11.333 -5.33301 -21.1602 -8.99512 -29.4932 -10.9951s-18.5 -3 -30.5 -3c-8.66699 0 -15.834 1.16699 -21.501 3.5s-8.5 10.166 -8.5 23.499c0 5.33301 3.66699 10.166 11 14.499s15.666 8.33301 24.999 12s18 6.5 26 8.5s13 3.33301 15 4v154
c-11.333 0.666992 -21.333 2.33398 -30 5.00098c-8 1.33301 -15.333 3.66602 -22 6.99902s-10.334 7.33301 -11.001 12c-1.33301 3.33301 -2.16602 6.66602 -2.49902 9.99902s-0.833008 6.66602 -1.5 9.99902c-0.666992 4 -1 8.33301 -1 13h66
c0.666992 5.33301 1.33398 11 2.00098 17c0.666992 10.667 0.666992 20 0 28c0 1.33301 -0.833008 6 -2.5 14s-3.16699 16.167 -4.5 24.5l-4 24c-1.33301 7.66699 -2 12.167 -2 13.5v15c0 6.66699 1.33301 12.667 4 18s8 8 16 8c7.33301 0 13.666 -3.33301 18.999 -10
s9.66602 -15 12.999 -25s5.66602 -21 6.99902 -33s2.5 -23.167 3.5 -33.5s1.5 -19.5 1.5 -27.5s0.333008 -12.333 1 -13c3.33301 -2 9 -2.66699 17 -2s16.167 2.16699 24.5 4.5s15.833 5.5 22.5 9.5s10.667 8.33301 12 13v166c0 2 1.66699 4.66699 5 8s6 5 8 5
s6.5 -1.66699 13.5 -5s11.167 -6 12.5 -8c0.666992 -9.33301 1.66699 -19.666 3 -30.999s3 -23 5 -35s4.5 -24 7.5 -36s6.16699 -23 9.5 -33h78c0 -8 -4 -14.333 -12 -19s-17 -8.5 -27 -11.5s-19 -6.33301 -27 -10s-12 -8.83398 -12 -15.501v-113
c13.333 0 25.833 2.5 37.5 7.5s23.167 10.667 34.5 17s22.833 12.166 34.5 17.499s24.167 8 37.5 8c0 -11.333 -3.33301 -20.666 -10 -27.999s-14.667 -13.5 -24 -18.5s-19.833 -10 -31.5 -15s-22.167 -10.333 -31.5 -16s-17.333 -12.834 -24 -21.501s-10 -19.667 -10 -33
c0 -20.667 0.666992 -39 2 -55s4.66602 -35 9.99902 -57l-33 -35l-31 136l-1 1c-0.666992 0 -1.33398 0.166992 -2.00098 0.5s-1.33398 0.5 -2.00098 0.5c-18 0 -34 -4.5 -48 -13.5s-25.167 -20.5 -33.5 -34.5s-12.833 -29.5 -13.5 -46.5s3 -32.833 11 -47.5l-12 -14
c-6 3.33301 -11.333 9 -16 17s-8.66699 16.667 -12 26c-4 10.667 -7.66699 22 -11 34zM184.006 398.005c-3.33301 -10 -5 -21.167 -5 -33.5s0.833008 -25 2.5 -38s3.66699 -26.333 6 -40l6.5 -38.5l77 52v132c-21.333 0 -40.5 -3 -57.5 -9s-26.833 -14.333 -29.5 -25z" />
    <glyph glyph-name="dollar" unicode="$" horiz-adv-x="456" 
d="M220 103c-2.66699 -2 -7.00586 -4.49512 -13.0059 -7.49512s-12.333 -5.83301 -19 -8.5l-18.5 -7.5c-5.66699 -2.33301 -9.83398 -3.5 -12.501 -3.5c-4 0 -6.83301 1.33301 -8.5 4s-3 5.5 -4 8.5s-1.66699 6 -2 9s-0.5 5.16699 -0.5 6.5c0 2 0.166992 4.33301 0.5 7
s0.833008 4 1.5 4l76 39v5c0 1.33301 0.166992 2.83301 0.5 4.5s0.5 3.16699 0.5 4.5c0 12.667 -0.5 27.334 -1.5 44.001s-2.5 33 -4.5 49s-3.66699 30.667 -5 44s-2.33301 22.666 -3 27.999c-4.66699 -0.666992 -13 -1.33398 -25 -2.00098s-25.667 -0.833984 -41 -0.500977
s-31.166 1.5 -47.499 3.5s-31.166 5.5 -44.499 10.5s-24.333 11.667 -33 20s-13 19.166 -13 32.499c0.666992 28 7.66699 52.5 21 73.5s29.5 40.333 48.5 58s39.333 34.167 61 49.5s41.834 31.666 60.501 48.999c-0.666992 10.667 -1.66699 25.334 -3 44.001s-1 37.5 1 56.5
s7 35.5 15 49.5s21 21 39 21v-158c12.667 4.66699 23.5 8 32.5 10s19.5 3 31.5 3c6.66699 0 12.834 -1.33301 18.501 -4s8.5 -7.66699 8.5 -15c0 -8.66699 -3.66699 -15.167 -11 -19.5s-16 -7.83301 -26 -10.5s-20 -4.83398 -30 -6.50098s-18 -4.5 -24 -8.5
c0 -3.33301 -0.166992 -8.66602 -0.5 -15.999s-0.5 -15 -0.5 -23v-103c0 -22 4.66699 -43 14 -63c28.667 -3.33301 57.834 -10 87.501 -20s55.834 -25 78.501 -45c0.666992 -0.666992 1 -3.66699 1 -9v-9c0 -20.667 -5.16699 -38.834 -15.5 -54.501s-23 -30 -38 -43
s-30.667 -25.5 -47 -37.5s-30.166 -24.667 -41.499 -38c0 -2 -0.166992 -5.16699 -0.5 -9.5s-0.5 -8.83301 -0.5 -13.5v-13v-9c0 -14.667 1.5 -28.834 4.5 -42.501l9 -41.5l9 -41.5c3 -13.667 4.5 -27.5 4.5 -41.5c0 -8 -2 -13.667 -6 -17s-10.667 -8 -20 -14l-12 12z
M66.9941 409.005c0 -10 3.16895 -17.666 9.50195 -22.999s14.166 -9 23.499 -11s19.333 -3.16699 30 -3.5s19.667 -0.5 27 -0.5c1.33301 0 4.16602 -0.166992 8.49902 -0.5s8.5 -0.166016 12.5 0.500977s7.66699 2 11 4s5 5 5 9v169c-12.667 0 -26.5 -5.16699 -41.5 -15.5
s-28.833 -22.833 -41.5 -37.5s-23.167 -30.334 -31.5 -47.001s-12.5 -31.334 -12.5 -44.001zM255.996 342.006c0 -27.333 1.5 -52.501 4.5 -75.501s6.83301 -47.833 11.5 -74.5c0.666992 0 1.66699 -0.166992 3 -0.5s2.33301 -0.5 3 -0.5c8.66699 0 19.167 3.33301 31.5 10
s24.5 15.167 36.5 25.5s22.167 21.666 30.5 33.999s12.5 23.833 12.5 34.5c0 12.667 -6.16699 22.334 -18.5 29.001s-26.5 11.334 -42.5 14.001s-31 4 -45 4h-27z" />
    <glyph glyph-name="percent" unicode="%" horiz-adv-x="461" 
d="M131 26c0 1.33301 0.166016 3.50195 0.499023 6.50195s0.5 5.16699 0.5 6.5c8 60.667 17.167 123.167 27.5 187.5s22.166 128.666 35.499 192.999s28.666 128 45.999 191s37 124.167 59 183.5c5.33301 3.33301 10.333 6.16602 15 8.49902s10.334 3.5 17.001 3.5
c4.66699 0 9 -1.66699 13 -5s6 -8 6 -14v-4c0 -1.33301 -0.333008 -2.33301 -1 -3c-21.333 -64 -41.666 -129.5 -60.999 -196.5s-37.166 -133.667 -53.499 -200s-31.5 -131.833 -45.5 -196.5s-26.667 -127.334 -38 -188.001c-8 0 -13.5 2.83301 -16.5 8.5
s-4.5 11.834 -4.5 18.501zM15.999 589.002c0 15.333 1.50195 29.998 4.50195 43.998s8.16699 26.333 15.5 37s17 19.167 29 25.5s27 9.5 45 9.5c8 0 16.5 -2 25.5 -6s17.167 -9.33301 24.5 -16s13.166 -14.167 17.499 -22.5s6.5 -17.166 6.5 -26.499
c0 -12.667 -2.66699 -28.167 -8 -46.5s-12.833 -36.166 -22.5 -53.499s-21 -32 -34 -44s-27.5 -18 -43.5 -18c-15.333 0 -27 4.33301 -35 13s-13.833 19.167 -17.5 31.5s-5.83398 25 -6.50098 38s-1 24.5 -1 34.5zM323.001 255
c0 6.66699 -0.165039 17.6689 -0.498047 33.002s0.666992 31.166 3 47.499s6.66602 30.666 12.999 42.999s16.5 18.5 30.5 18.5c12 0 22.5 -3.16699 31.5 -9.5s16.333 -14.333 22 -24s10 -20.167 13 -31.5s4.5 -21.666 4.5 -30.999c0 -12 -1.83301 -25.667 -5.5 -41
s-9 -30.333 -16 -45s-15.833 -26.834 -26.5 -36.501s-22.667 -14.5 -36 -14.5c-11.333 0 -19.333 3.33301 -24 10s-7.83398 14.834 -9.50098 24.501s-2 19.667 -1 30s1.5 19.166 1.5 26.499zM106.003 666.002c-10.667 0 -18.834 -6.83301 -24.501 -20.5
s-9.66699 -29 -12 -46s-3.5 -33.5 -3.5 -49.5v-33c11.333 0 22.5 3.66699 33.5 11s20.833 16.5 29.5 27.5s15.667 23 21 36s8 24.833 8 35.5c0 6.66699 -1.66699 12.5 -5 17.5s-7.66602 9 -12.999 12s-11 5.33301 -17 7s-11.667 2.5 -17 2.5zM362.003 256.002
c0 -6 0.501953 -11.166 1.50195 -15.499s5.16699 -7.83301 12.5 -10.5c8.66699 13.333 15.167 24.166 19.5 32.499s6.5 18.833 6.5 31.5c0 8 -0.833008 14.5 -2.5 19.5s-5.16699 11.5 -10.5 19.5c-6.66699 -3.33301 -11.834 -8 -15.501 -14s-6.33398 -12.667 -8.00098 -20
s-2.66699 -14.833 -3 -22.5s-0.5 -14.5 -0.5 -20.5z" />
    <glyph glyph-name="ampersand" unicode="&#x26;" horiz-adv-x="365" 
d="M186 256c-35.333 -38 -63.9961 -63.333 -85.9961 -76s-39.167 -16.334 -51.5 -11.001s-20.833 17.833 -25.5 37.5s-7 42.5 -7 68.5c0 23.333 4 42.666 12 57.999s18 27.333 30 36s25 13.834 39 15.501s27 0.666992 39 -3s22 -9.5 30 -17.5c6.66699 -8 10.667 -17 12 -27
v213c0 3.33301 2.16699 6.16602 6.5 8.49902s9.16602 4.16602 14.499 5.49902s10.166 2.16602 14.499 2.49902s7.16602 0.5 8.49902 0.5l-3 -206c18 16 35 29 51 39s29.667 17 41 21s19.666 4.66699 24.999 2s6 -8.66699 2 -18s-13.5 -21.666 -28.5 -36.999
s-36.5 -34.666 -64.5 -57.999c-2 -0.666992 -3.66699 -2.16699 -5 -4.5s-2.33301 -8.66602 -3 -18.999s-1.16699 -26.666 -1.5 -48.999s-0.5 -54.5 -0.5 -96.5c0 -6.66699 -3 -12.167 -9 -16.5s-12.667 -7.33301 -20 -9s-14 -1.5 -20 0.5s-8.66699 6 -8 12zM94.0039 346
c-14 0 -24.5 -6.83203 -31.5 -20.499s-11 -28.834 -12 -45.501s0.333008 -32.167 4 -46.5s8.83398 -22.166 15.501 -23.499c-0.666992 -5.33301 1.16602 -6.5 5.49902 -3.5s10 7.83301 17 14.5l23.5 23.5c8.66699 9 16.5 17.667 23.5 26s12.833 15.666 17.5 21.999
s6.66699 9.83301 6 10.5c-23.333 28.667 -46.333 43 -69 43z" />
    <glyph glyph-name="quotesingle" unicode="'" horiz-adv-x="159" 
d="M59 384c-0.666992 5.33301 -1.66895 13.832 -3.00195 25.499l-4.5 38.5l-5.5 45l-5.5 45.5l-4.5 38.5l-3 25v7c0 8.66699 1.83301 16.334 5.5 23.001s10.167 10 19.5 10c10.667 0 19 -4.33301 25 -13s10.5 -19.334 13.5 -32.001s4.83301 -26.667 5.5 -42
s0.833984 -30 0.500977 -44s-1 -26.167 -2 -36.5s-1.5 -17.166 -1.5 -20.499v-22c0 -10 -0.166992 -20.833 -0.5 -32.5s-0.666016 -22.5 -0.999023 -32.5s-0.5 -17 -0.5 -21c-10 0.666992 -18.5 4.66699 -25.5 12s-11.167 16 -12.5 26z" />
    <glyph glyph-name="parenleft" unicode="(" horiz-adv-x="299" 
d="M16 302c0 49.333 5.99707 98.667 17.9971 148s28.333 97.166 49 143.499s45.167 90.833 73.5 133.5s58.5 82 90.5 118c0.666992 0 2 0.166992 4 0.5s3.33301 0.5 4 0.5c7.33301 0 12.333 -2.83301 15 -8.5s4 -11.834 4 -18.501v-6.5v-6.5
c-30 -36 -57.667 -73.5 -83 -112.5s-47.166 -79.5 -65.499 -121.5s-32.666 -85.5 -42.999 -130.5s-15.5 -91.167 -15.5 -138.5c0 -30 3.83301 -60.667 11.5 -92s19.334 -60.666 35.001 -87.999s35.667 -51 60 -71s53.5 -33 87.5 -39c-10.667 -5.33301 -19.5 -9 -26.5 -11
s-15.5 -3 -25.5 -3c-21.333 0 -40.833 5.33301 -58.5 16s-33.5 24.667 -47.5 42s-26.5 36.833 -37.5 58.5s-20.167 43.834 -27.5 66.501s-12.833 44.5 -16.5 65.5s-5.5 39.167 -5.5 54.5z" />
    <glyph glyph-name="parenright" unicode=")" horiz-adv-x="247" 
d="M181 354c0 38 -2.49902 74.332 -7.49902 108.999s-13.333 67.334 -25 98.001s-27.334 60.167 -47.001 88.5s-44.834 55.166 -75.501 80.499c-0.666992 1.33301 -1 3.33301 -1 6v6c0 6.66699 1.33301 12.834 4 18.501s8 8.5 16 8.5h3c1.33301 0 2.33301 -0.333008 3 -1
c33.333 -28 60.833 -56.333 82.5 -85s38.834 -59 51.501 -91s21.667 -66.167 27 -102.5s8 -75.833 8 -118.5c0 -30.667 -1.83301 -63.5 -5.5 -98.5s-10.5 -69 -20.5 -102s-23.5 -64.5 -40.5 -94.5s-38.5 -55.333 -64.5 -76v13c0 22.667 4.83301 46.5 14.5 71.5l31.5 80.5
c11.333 28.667 21.833 58.5 31.5 89.5s14.5 64.167 14.5 99.5z" />
    <glyph glyph-name="asterisk" unicode="*" horiz-adv-x="493" 
d="M162 265c-28.667 -4.66699 -53.4902 -7.83203 -74.4902 -9.49902s-35.833 -5.83398 -44.5 -12.501c-4.66699 3.33301 -10.334 7.83301 -17.001 13.5s-10 11.834 -10 18.501c0 9.33301 5.66699 15.833 17 19.5s25 6.16699 41 7.5l48.5 4c16.333 1.33301 29.5 4 39.5 8
l-122 75c-6.66699 4 -11.334 8.66699 -14.001 14s-2.33398 10.333 0.999023 15c2.66699 4 5.66699 7.16699 9 9.5s7.66602 2.5 12.999 0.5l129 -49v171c0 3.33301 2.16699 6.16602 6.5 8.49902s9.16602 4.16602 14.499 5.49902s10.166 2.16602 14.499 2.49902
s7.16602 0.5 8.49902 0.5l3 -178c8 6.66699 18 16.167 30 28.5s23.5 25.5 34.5 39.5s20.667 27.167 29 39.5s13.166 21.833 14.499 28.5c2.66699 0.666992 5.33398 0.166992 8.00098 -1.5s5.66699 -4 9 -7s6.5 -6.16699 9.5 -9.5s6.16699 -6 9.5 -8
c6 -3.33301 7.5 -8.33301 4.5 -15s-8.33301 -14.167 -16 -22.5s-16.834 -17.166 -27.501 -26.499l-30.5 -27.5c-9.66699 -9 -17.834 -17.5 -24.501 -25.5s-10 -15 -10 -21c18 6 35.167 11.167 51.5 15.5s32.5 8 48.5 11s32.5 5.5 49.5 7.5s35.5 3 55.5 3
c0 -6 -1 -13.5 -3 -22.5s-6.66699 -14.833 -14 -17.5l-33.5 -7c-15.667 -3.33301 -32.334 -7.16602 -50.001 -11.499l-50.5 -12c-16 -3.66699 -27 -6.5 -33 -8.5c-2 0 -4.16699 -0.166992 -6.5 -0.5s-4.83301 -1.16602 -7.5 -2.49902l148 -89
c3.33301 -2 4.83301 -5.33301 4.5 -10s-1.5 -9.66699 -3.5 -15s-4 -10 -6 -14s-3.33301 -6.33301 -4 -7l-166 94l23 -186c0 -8 -2 -14 -6 -18s-8.5 -6.5 -13.5 -7.5s-9.5 -0.5 -13.5 1.5s-6 5.66699 -6 11l-23 179c-3.33301 -19.333 -10.333 -37.333 -21 -54
s-22.167 -31.667 -34.5 -45s-24.833 -25.333 -37.5 -36l-31 -27c-4.66699 3.33301 -8.5 8.66602 -11.5 15.999s-7.5 14 -13.5 20c-2.66699 2 -1.5 7.16699 3.5 15.5s11.833 17.5 20.5 27.5l28 31.5l28 30c8.66699 9 15.5 16.5 20.5 22.5s6.5 9 4.5 9z" />
    <glyph glyph-name="plus" unicode="+" horiz-adv-x="478" 
d="M156 271c-19.333 0 -38.9971 -3 -58.9971 -9s-38 -12.333 -54 -19c-4.66699 3.33301 -10.334 7.83301 -17.001 13.5s-10 11.834 -10 18.501c0 7.33301 4 13 12 17s18 6.83301 30 8.5s25 3 39 4s27 2.33301 39 4s22 4.33398 30 8.00098s12 9.16699 12 16.5v217
c0 3.33301 2.16699 6.16602 6.5 8.49902s9.16602 4.16602 14.499 5.49902s10.166 2.16602 14.499 2.49902s7.16602 0.5 8.49902 0.5v-221c38 12 78.5 23.667 121.5 35s85.167 17 126.5 17c0 -6 -1 -13.5 -3 -22.5s-6.66699 -14.833 -14 -17.5l-33.5 -7
c-15.667 -3.33301 -32.334 -7.16602 -50.001 -11.499l-50.5 -12c-16 -3.66699 -27 -6.5 -33 -8.5c-2 0 -4.83301 -0.5 -8.5 -1.5s-7.66699 -2.33301 -12 -4s-8.16602 -3 -11.499 -4s-5.66602 -1.83301 -6.99902 -2.5c-1.33301 -1.33301 -3.66602 -3.5 -6.99902 -6.5
s-5 -5.16699 -5 -6.5v-153c0 -8 -1.5 -14.5 -4.5 -19.5s-7.5 -7.5 -13.5 -7.5c-4.66699 0 -9 1.16699 -13 3.5s-6.66699 5.83301 -8 10.5l-25 141c-2 0 -4 0.333008 -6 1c-2 0 -3.83301 0.166992 -5.5 0.5s-2.83398 0.5 -3.50098 0.5z" />
    <glyph glyph-name="comma" unicode="," horiz-adv-x="115" 
d="M35 -114c0.666992 7.33301 1.33398 17.6719 2.00098 31.0049s1.16699 27.166 1.5 41.499l1 41.5c0.333008 13.333 0.833008 23.666 1.5 30.999c-0.666992 1.33301 -1.66699 3.83301 -3 7.5l-4.5 12c-1.66699 4.33301 -2.83398 8.16602 -3.50098 11.499s-1 6 -1 8
c0 19.333 4.83301 32.666 14.5 39.999s23.5 11 41.5 11c6 -9.33301 10.833 -18.833 14.5 -28.5s5.5 -22.334 5.5 -38.001s-2.5 -35.667 -7.5 -60s-12.833 -56.5 -23.5 -96.5z" />
    <glyph glyph-name="hyphen" unicode="-" horiz-adv-x="409" 
d="M13 204c0 2.66699 1.66797 7.33496 5.00098 14.002s6 10.667 8 12c29.333 2 58.833 8.33301 88.5 19s59.167 22.167 88.5 34.5s58.166 23.666 86.499 33.999s55.833 15.5 82.5 15.5c3.33301 0 6 -1.66699 8 -5s3.5 -7.16602 4.5 -11.499s1.5 -8.5 1.5 -12.5v-7
c0 -2.66699 -0.333008 -5.83398 -1 -9.50098s-1 -5.83398 -1 -6.50098l-295 -89c-1.33301 -0.666992 -5.5 -1.16699 -12.5 -1.5s-12.5 -0.5 -16.5 -0.5l-8 -1c-4.66699 0 -10 0.333008 -16 1s-11.333 2 -16 4s-7 5.33301 -7 10z" />
    <glyph glyph-name="period" unicode="." horiz-adv-x="132" 
d="M26 39c9.33301 10 17.333 16.8311 24 20.498s15.334 5.5 26.001 5.5c18 0 27 -8.66699 27 -26c0 -4 -1.16699 -8.5 -3.5 -13.5s-5.33301 -9.83301 -9 -14.5s-7.83398 -8.16699 -12.501 -10.5s-9 -2.5 -13 -0.5c-4.66699 -3.33301 -9.5 -4.16602 -14.5 -2.49902
s-9.5 4.5 -13.5 8.5s-7.16699 8.83301 -9.5 14.5s-2.83301 11.834 -1.5 18.501z" />
    <glyph glyph-name="slash" unicode="/" horiz-adv-x="314" 
d="M6 -46l232.001 760.999h49l-248 -801c-8.66699 0 -16.334 3.33301 -23.001 10s-10 14.334 -10 23.001v7z" />
    <glyph glyph-name="zero" unicode="0" horiz-adv-x="316" 
d="M169 552c28.667 -5.33301 50.3311 -17.1689 64.998 -35.502s25 -40 31 -65s9.83301 -51.5 11.5 -79.5s3.83398 -53.667 6.50098 -77c0 -11.333 -0.5 -26.5 -1.5 -45.5s-2.83301 -39.333 -5.5 -61s-6.66699 -43.667 -12 -66s-12.833 -42.666 -22.5 -60.999
s-21.667 -33.166 -36 -44.499s-31.5 -17 -51.5 -17c-12 -5.33301 -24.167 -2.33301 -36.5 9s-23.833 28.333 -34.5 51s-20.167 49.667 -28.5 81s-14.166 64.166 -17.499 98.499s-3.83301 68.5 -1.5 102.5s8.5 65.5 18.5 94.5s24.333 53.833 43 74.5s42.667 34.334 72 41.001
zM76.9971 371.997c0 -71.333 2.83301 -129.663 8.5 -174.996s12.834 -80 21.501 -104s18.5 -38.833 29.5 -44.5s22 -4.83398 33 2.49902s21.833 20.166 32.5 38.499s19.5 39.5 26.5 63.5s12.167 49.5 15.5 76.5s3.66602 52.833 0.999023 77.5
c0 19.333 -1.16699 39.666 -3.5 60.999s-6 41.5 -11 60.5s-12.167 36 -21.5 51s-21 25.833 -35 32.5c-12 0 -23.833 -5 -35.5 -15s-22 -22 -31 -36s-16.5 -28.667 -22.5 -44s-9 -28.333 -9 -39v-4c0 -0.666992 0.333008 -1.33398 1 -2.00098z" />
    <glyph glyph-name="one" unicode="1" horiz-adv-x="115" 
d="M47 13c-6.66699 54 -10.999 106.5 -12.999 157.5s-2.83301 101.333 -2.5 151s1.16602 99.5 2.49902 149.5s1.33301 102 0 156c0 2 1.66699 4.66699 5 8s6 5 8 5s6.33301 -1.66699 13 -5s11 -6 13 -8c0 -13.333 0.5 -34.833 1.5 -64.5s1.66699 -63 2 -100s1 -76 2 -117
s2 -80 3 -117s1.83301 -70.167 2.5 -99.5s1 -51 1 -65v-14v-17c0 -4.66699 0.166992 -9 0.5 -13s-0.166992 -7.5 -1.5 -10.5s-3.83301 -5.33301 -7.5 -7s-9.16699 -2.5 -16.5 -2.5c-2 0 -4.66699 1.66699 -8 5s-5 6 -5 8z" />
    <glyph glyph-name="two" unicode="2" horiz-adv-x="525" 
d="M111 39c19.333 32.667 38.168 66.166 56.501 100.499s34.666 69 48.999 104s25.833 70.667 34.5 107s13.334 73.833 14.001 112.5c-6.66699 22 -13.834 39.167 -21.501 51.5s-18.834 17 -33.501 14s-34.667 -14.833 -60 -35.5s-59.666 -52.667 -102.999 -96
c-6 4 -11.833 8.5 -17.5 13.5s-8.5 10.833 -8.5 17.5c0 0.666992 0.166992 1.83398 0.5 3.50098s0.5 2.83398 0.5 3.50098l43.5 48c16.333 18 34.166 35 53.499 51s39.5 29.167 60.5 39.5s43.5 15.5 67.5 15.5c23.333 -10.667 40 -27.834 50 -51.501s15.167 -51 15.5 -82
s-3.16699 -64 -10.5 -99s-17.166 -69.833 -29.499 -104.5s-26 -67.667 -41 -99s-29.5 -58 -43.5 -80l268 81c0.666992 0 2.5 0.166992 5.5 0.5s5.5 0.5 7.5 0.5c3.33301 0 7.33301 -0.333008 12 -1s8.83398 -1.66699 12.501 -3s7 -3.33301 10 -6s4.5 -6 4.5 -10
c-24 -15.333 -51.833 -28 -83.5 -38s-64.334 -19.5 -98.001 -28.5l-98.5 -26.5c-32 -8.66699 -60.667 -19 -86 -31c-8.66699 0 -16 1.16699 -22 3.5s-9 10.5 -9 24.5z" />
    <glyph glyph-name="three" unicode="3" horiz-adv-x="473" 
d="M170 32c0 10.667 5.83789 21.6729 17.5049 33.0059s26 23.5 43 36.5l56.5 42c20.667 15 39.5 31.333 56.5 49s31.333 36.667 43 57s17.5 42.166 17.5 65.499c0 16.667 -3.5 30.5 -10.5 41.5s-15.833 19.5 -26.5 25.5s-22.834 10.167 -36.501 12.5s-27.167 3.5 -40.5 3.5
c-14.667 1.33301 -28.5 -0.833984 -41.5 -6.50098s-26 -12.334 -39 -20.001s-25.667 -15.667 -38 -24s-24.333 -15 -36 -20s-23 -6.83301 -34 -5.5s-22.167 7.33301 -33.5 18v3c0 2 0.333008 3 1 3l178 204c19.333 26.667 29.166 47.334 29.499 62.001s-5 24.5 -16 29.5
s-26.167 5.83301 -45.5 2.5s-39.166 -9.5 -59.499 -18.5s-39.833 -20.167 -58.5 -33.5s-32.334 -27.333 -41.001 -42c-0.666992 0 -1.83398 -0.166992 -3.50098 -0.5s-2.83398 -0.5 -3.50098 -0.5c-8 0 -15.5 3.5 -22.5 10.5s-10.5 14.5 -10.5 22.5
c0 9.33301 5.33301 18.833 16 28.5s24.334 19 41.001 28s35.334 17.5 56.001 25.5s41 15 61 21s38.667 10.833 56 14.5s30.666 5.5 39.999 5.5c17.333 -8.66699 28.666 -19.834 33.999 -33.501s6.5 -29 3.5 -46s-9 -34.833 -18 -53.5s-19.333 -37 -31 -55
s-23.5 -35.333 -35.5 -52l-30 -43c14 8.66699 29.167 13.167 45.5 13.5s32.166 0.5 47.499 0.5c17.333 0 35 -2.33301 53 -7s34.333 -11.834 49 -21.501s26.667 -21.667 36 -36s14 -31.5 14 -51.5c0 -33.333 -9 -65.333 -27 -96s-40 -59.667 -66 -87s-54 -52.5 -84 -75.5
l-81 -61.5c-6 3.33301 -11.833 7.66602 -17.5 12.999s-8.5 11.666 -8.5 18.999z" />
    <glyph glyph-name="four" unicode="4" horiz-adv-x="516" 
d="M7 269c0 1.33301 0.333008 5.83496 1 13.502s2 15.667 4 24s5.5 15.5 10.5 21.5s11.833 7.66699 20.5 5c29.333 37.333 55.5 74.166 78.5 110.499s44.833 72.666 65.5 108.999l60.5 111l63.5 116.5c3.33301 7.33301 7 11.666 11 12.999s9 2 15 2
c4 0 9.33301 -0.666992 16 -2s10 -5.66602 10 -12.999v-383c22.667 0 44.667 2.66699 66 8s43.333 8 66 8c6 -19.333 5.33301 -32.333 -2 -39s-18.166 -11 -32.499 -13s-30.5 -3.5 -48.5 -4.5s-34.333 -4.5 -49 -10.5v-320c0 -3.33301 -2.16699 -6.83301 -6.5 -10.5
s-9.33301 -6.66699 -15 -9s-11.334 -4.33301 -17.001 -6s-10.167 -2.5 -13.5 -2.5v339zM311 640.002c-14.667 -23.333 -31.165 -47.667 -49.498 -73l-54 -77c-17.667 -26 -34.334 -52.167 -50.001 -78.5s-28.167 -52.5 -37.5 -78.5h12
c13.333 3.33301 30.166 7.83301 50.499 13.5l59.5 17l49 14.5l20 6v256z" />
    <glyph glyph-name="five" unicode="5" horiz-adv-x="490" 
d="M161 25c0 14 3.8291 28 11.4961 42s17.334 28.333 29.001 43l38 46c13.667 16 26.167 33 37.5 51s21 37.333 29 58s12 43.334 12 68.001c-0.666992 52.667 -22.834 72.334 -66.501 59.001s-105.167 -63.333 -184.5 -150c-3.33301 0.666992 -6.33301 1.83398 -9 3.50098
s-5 5.66699 -7 12s-4 15.833 -6 28.5s-3.16699 30.334 -3.5 53.001s-0.166016 51 0.500977 85s2.33398 76 5.00098 126c-12 7.33301 -20 16.166 -24 26.499s-5.33301 21 -4 32s4.66602 21.667 9.99902 32s11.5 19 18.5 26s14.333 11.667 22 14s14.167 0.833008 19.5 -4.5
c6 0 11.167 -1.83301 15.5 -5.5s7.66602 -7.83398 9.99902 -12.501s4 -9.83398 5 -15.501s2.16699 -10.834 3.5 -15.501l307 77c0.666992 0 2.83398 0.166992 6.50098 0.5s6.5 0.5 8.5 0.5c6 0 11.667 -1.33301 17 -4s8 -7.66699 8 -15
c0 -6.66699 -1.16699 -12.5 -3.5 -17.5s-5.83301 -10.5 -10.5 -16.5c-33.333 5.33301 -65.5 4.83301 -96.5 -1.5s-62.5 -14.166 -94.5 -23.499c-40 -10.667 -71 -20.5 -93 -29.5s-38.667 -20.667 -50 -35s-18.333 -33.333 -21 -57s-4 -55.834 -4 -96.501v-18
c0 -8 0.166992 -16.667 0.5 -26s0.5 -18.666 0.5 -27.999v-18l42.5 48.5c13.667 15.667 28 29.5 43 41.5s31.333 21.833 49 29.5s37.834 11.5 60.501 11.5c14 0 25.833 -3.33301 35.5 -10s17.334 -15 23.001 -25s9.83398 -21.333 12.501 -34s4 -24.667 4 -36
c0 -34 -5.5 -67 -16.5 -99s-25.667 -62.667 -44 -92s-39 -57 -62 -83s-46.5 -49.667 -70.5 -71c-7.33301 2.66699 -11.5 6.16699 -12.5 10.5s-1.5 9.16602 -1.5 14.499z" />
    <glyph glyph-name="six" unicode="6" horiz-adv-x="384" 
d="M154 -1c-22 0.666992 -40.498 6.99902 -55.498 18.999s-27.333 27.167 -37 45.5s-17.167 39 -22.5 62s-9 46.167 -11 69.5s-3 45.833 -3 67.5s0.333008 40.5 1 56.5l89 500c1.33301 4 5.83301 7.16699 13.5 9.5s14.167 3.5 19.5 3.5c7.33301 0 12.333 -2.66699 15 -8
s4 -11.333 4 -18c0 -0.666992 -0.166992 -2.66699 -0.5 -6s-0.5 -5.33301 -0.5 -6l-37.5 -173c-10.333 -48.667 -18.833 -90.167 -25.5 -124.5s-11.834 -62.666 -15.501 -84.999s-6.5 -40.333 -8.5 -54s-3 -24 -3 -31v-16.5v-106c0 -32 4.33301 -61.667 13 -89
c6.66699 17.333 13.667 36.5 21 57.5s15.5 42 24.5 63s19 41.333 30 61s23.5 37 37.5 52s29.667 27 47 36s37 13.5 59 13.5c11.333 0 20.5 -0.333008 27.5 -1s12.167 -2.5 15.5 -5.5s5.66602 -7.66699 6.99902 -14s2 -15.166 2 -26.499
c0 -14.667 -2.66699 -33.334 -8 -56.001s-12.833 -47 -22.5 -73s-21.167 -52.333 -34.5 -79s-27.5 -50.5 -42.5 -71.5s-31 -38.333 -48 -52s-33.833 -20.5 -50.5 -20.5zM137.002 81.999c4.66699 -14.667 11.001 -22.834 19.001 -24.501s16.833 1 26.5 8s19.667 17 30 30
s20.5 27.5 30.5 43.5s19.5 32 28.5 48l23.5 43c15.333 36.667 23.833 64.334 25.5 83.001s-0.666016 30.334 -6.99902 35.001s-16 3.5 -29 -3.5s-27 -17.833 -42 -32.5s-30 -32.167 -45 -52.5s-27.833 -41 -38.5 -62s-18.334 -41.833 -23.001 -62.5
s-4.33398 -38.334 0.999023 -53.001z" />
    <glyph glyph-name="seven" unicode="7" horiz-adv-x="469" 
d="M358 686c-26 0 -51.8311 -1.83203 -77.498 -5.49902s-51.167 -7.66699 -76.5 -12s-50.833 -8.16602 -76.5 -11.499s-51.5 -5 -77.5 -5h-12c-4.66699 0 -8.83398 0.5 -12.501 1.5s-6.83398 2.83301 -9.50098 5.5s-4 6.66699 -4 12c0 4.66699 8.5 10 25.5 16
s38.833 12.167 65.5 18.5s55.834 12.5 87.501 18.5s62.5 11.333 92.5 16s56.5 8.5 79.5 11.5s38.833 4.5 47.5 4.5c17.333 0 26 -8.66699 26 -26v-6c0 -3.33301 -0.333008 -5.66602 -1 -6.99902c-16.667 -36.667 -32.667 -74.834 -48 -114.501s-29 -80.167 -41 -121.5
s-21.667 -83 -29 -125s-11 -83 -11 -123c0 -20 0.333008 -37.833 1 -53.5s1.83398 -31.334 3.50098 -47.001s4.33398 -32 8.00098 -49s8.5 -36.167 14.5 -57.5c-1.33301 -6.66699 -3.33301 -12.834 -6 -18.501s-7.33398 -8.5 -14.001 -8.5
c-6 -0.666992 -12.833 0.5 -20.5 3.5s-14.834 11.167 -21.501 24.5s-11.834 33 -15.501 59s-4 62.167 -1 108.5s10 104 21 173s27.833 152.5 50.5 250.5z" />
    <glyph glyph-name="eight" unicode="8" horiz-adv-x="341" 
d="M84 75c0 19.333 2.5 37.667 7.5 55s11.167 34 18.5 50l21 49c7.33301 17.333 13.333 35 18 53l-38 34c-14.667 13.333 -28.667 27.666 -42 42.999s-24.5 31.666 -33.5 48.999s-13.5 35 -13.5 53c-5.33301 19.333 -5.16602 40 0.500977 62s14.5 43.333 26.5 64
s26.667 39.834 44 57.501s35.333 32.334 54 44.001s37.167 19.334 55.5 23.001s35 2.16699 50 -4.5s27.167 -20 36.5 -40s14.333 -47.667 15 -83c0 -23.333 -3.16699 -47.5 -9.5 -72.5s-14.333 -49.833 -24 -74.5s-19.834 -48.667 -30.501 -72s-20 -44.666 -28 -63.999
c0 -15.333 4.83301 -30.333 14.5 -45l31 -45.5c11 -15.667 21.333 -31.834 31 -48.501s14.5 -34.334 14.5 -53.001c0 -20 -4 -37 -12 -51s-18.667 -25.333 -32 -34s-28.5 -15 -45.5 -19s-34.5 -6 -52.5 -6c-25.333 0 -44.5 6.5 -57.5 19.5s-19.5 31.833 -19.5 56.5z
M71 482.001c0 -18 1.83301 -33.668 5.5 -47.001s9.16699 -25.5 16.5 -36.5s16.833 -21.667 28.5 -32s25.167 -21.5 40.5 -33.5c16.667 16.667 32 37.167 46 61.5s25.667 49.333 35 75s16.666 50.5 21.999 74.5s8 44.667 8 62c-19.333 -11.333 -38.166 -18 -56.499 -20
s-32 -0.5 -41 4.5s-11.5 13 -7.5 24s19 23.5 45 37.5h-38c-15.333 0 -29.5 -6.5 -42.5 -19.5s-24 -28.667 -33 -47s-16 -37.166 -21 -56.499s-7.5 -35 -7.5 -47zM123 76c4.66699 -12 14.832 -20.5 30.499 -25.5s32 -6 49 -3s31.833 9.66699 44.5 20s18.667 24.5 18 42.5
c0 12 -2 24.333 -6 37s-9.66699 25 -17 37s-15.666 23.167 -24.999 33.5s-19 18.833 -29 25.5c-11.333 -6.66699 -21 -16.667 -29 -30s-14.833 -28.333 -20.5 -45s-9.66699 -33.167 -12 -49.5s-3.5 -30.5 -3.5 -42.5z" />
    <glyph glyph-name="nine" unicode="9" horiz-adv-x="487" 
d="M372 563l-43.498 -56.499c-15.667 -21 -32.334 -42 -50.001 -63s-35.834 -41.167 -54.501 -60.5s-37.667 -35.833 -57 -49.5s-38.833 -23.5 -58.5 -29.5s-39.167 -6.33301 -58.5 -1c-4.66699 0 -9.16699 1.66699 -13.5 5s-8.33301 7.66602 -12 12.999
s-6.5 11.333 -8.5 18s-3 13 -3 19c0 21.333 3.83301 44.166 11.5 68.499s18.167 49 31.5 74s29 49 47 72s37.5 43.333 58.5 61s43.167 31.834 66.5 42.501s46.333 16 69 16c24.667 0 44.667 -3.66699 60 -11s27.5 -17 36.5 -29s15.333 -26.167 19 -42.5
s6.16699 -33.5 7.5 -51.5s1.83301 -36.5 1.5 -55.5s-0.166016 -37.167 0.500977 -54.5c1.33301 -32 3.5 -64.5 6.5 -97.5l9 -98c3 -32.333 5.66699 -64.666 8 -96.999s3.5 -64.833 3.5 -97.5c0 -5.33301 -0.166992 -11.333 -0.5 -18s-1.33301 -13 -3 -19
s-4.83398 -11.167 -9.50098 -15.5s-11.334 -6.5 -20.001 -6.5c-6.66699 0 -11.167 2.66699 -13.5 8s-4.16602 11.666 -5.49902 18.999c0.666992 16.667 0.5 39 -0.5 67s-2.16699 58.667 -3.5 92s-3.16602 68.333 -5.49902 105l-6.5 106l-5.5 95
c-1.66699 29.333 -2.83398 53.333 -3.50098 72zM65.002 409.001c-5.33301 -22 -5.83105 -36.6641 -1.49805 -43.9971s12.166 -9.33301 23.499 -6s25.333 11.166 42 23.499s34.167 27.333 52.5 45s36.5 37 54.5 58s34.333 41.5 49 61.5s26.667 38.667 36 56
s14.666 31.333 15.999 42c-36 0 -67.667 -6.33301 -95 -19s-51.833 -29.834 -73.5 -51.501s-41 -46.834 -58 -75.501s-32.167 -58.667 -45.5 -90z" />
    <glyph glyph-name="colon" unicode=":" horiz-adv-x="123" 
d="M38 148c0 10 1.66797 17.834 5.00098 23.501s10.666 8.5 21.999 8.5c17.333 0 26 -9 26 -27c0 -8.66699 -3 -17.334 -9 -26.001s-14 -13 -24 -13s-15.833 3.66699 -17.5 11s-2.5 15 -2.5 23zM24.001 404.001c0 8.66699 1.16797 16.001 3.50098 22.001s10.166 9 23.499 9
c14 0 22 -2.83301 24 -8.5s3 -12.834 3 -21.501c0 -7.33301 -0.833008 -14.833 -2.5 -22.5s-7.5 -11.5 -17.5 -11.5c-22.667 0 -34 11 -34 33z" />
    <glyph glyph-name="semicolon" unicode=";" horiz-adv-x="124" 
d="M30 270c0 8.66699 3.16602 16.334 9.49902 23.001s13.833 10 22.5 10c6.66699 0 13.334 -2.83301 20.001 -8.5s10.667 -11.834 12 -18.501s1.16602 -11.667 -0.500977 -15s-4.16699 -5.83301 -7.5 -7.5s-7.16602 -2.66699 -11.499 -3s-7.83301 -0.5 -10.5 -0.5
c-8 0 -15.667 1 -23 3s-11 7.66699 -11 17zM34.999 -114c0.666992 7.33301 1.33398 17.6719 2.00098 31.0049s1.16699 27.166 1.5 41.499l1 41.5c0.333008 13.333 0.833008 23.666 1.5 30.999c-0.666992 1.33301 -1.66699 3.83301 -3 7.5l-4.5 12
c-1.66699 4.33301 -2.83398 8.16602 -3.50098 11.499s-1 6 -1 8c0 19.333 4.83301 32.666 14.5 39.999s23.5 11 41.5 11c6 -9.33301 10.833 -18.833 14.5 -28.5s5.5 -22.334 5.5 -38.001s-2.5 -35.667 -7.5 -60s-12.833 -56.5 -23.5 -96.5z" />
    <glyph glyph-name="less" unicode="&#x3c;" horiz-adv-x="419" 
d="M51 366c0.666992 1.33301 1.00098 2.33398 1.00098 3.00098l303 252c3.33301 3.33301 6.16602 7.16602 8.49902 11.499s4.66602 8 6.99902 11s5.33301 5.16699 9 6.5s8.5 1 14.5 -1c9.33301 -3.33301 14.5 -8.83301 15.5 -16.5s0.166992 -15.834 -2.5 -24.501
c-0.666992 -0.666992 -1 -1.66699 -1 -3c0 -0.666992 -0.333008 -1.33398 -1 -2.00098c-22 -30.667 -43.833 -55.667 -65.5 -75s-44.167 -37.333 -67.5 -54l-73.5 -51c-25.667 -17.333 -53.167 -39.333 -82.5 -66l7 -16c0.666992 -1.33301 8 -6.5 22 -15.5l49 -31
l58.5 -35.5l48.5 -29c2.66699 -1.33301 7.83398 -3.66602 15.501 -6.99902s16 -6.66602 25 -9.99902l25.5 -9.5c8 -3 13.667 -4.83301 17 -5.5c2 -7.33301 3.33301 -13.333 4 -18s-0.333008 -10 -3 -16c-2.66699 -8 -8 -15 -16 -21s-16 -10.333 -24 -13
c-10 9.33301 -24.833 20 -44.5 32l-64 38.5l-70.5 42.5c-24 14.667 -45.333 29 -64 43s-33.167 27.5 -43.5 40.5s-13.5 25.167 -9.5 36.5z" />
    <glyph glyph-name="equal" unicode="=" horiz-adv-x="444" 
d="M22 115c0 2.66699 1.50098 7.33008 4.50098 13.9971s5.5 10.667 7.5 12c34 2.66699 67.333 8.83398 100 18.501s65.167 19.834 97.5 30.501s65 20.167 98 28.5s66.5 12.5 100.5 12.5c0 -18.667 -7.66699 -32.667 -23 -42s-33 -16.333 -53 -21s-39.833 -7.66699 -59.5 -9
s-33.834 -3.33301 -42.501 -6c-7.33301 -2 -20.333 -5.83301 -39 -11.5s-38.167 -12 -58.5 -19l-57.5 -19.5c-18 -6 -30.333 -10.667 -37 -14l-20 9l-12.5 9c-3.66699 2.66699 -5.5 5.33398 -5.5 8.00098zM45.001 297.996c0 1.33301 0.333984 4.33496 1.00098 9.00195
s1.33398 8 2.00098 10c6.66699 1.33301 17.667 3 33 5s32.666 4 51.999 6l61 8c22 2.66699 42.5 5.33398 61.5 8.00098s36.333 5 52 7s27.167 3.33301 34.5 4h10c5.33301 0 11 0.166992 17 0.5s11.667 0.666016 17 0.999023s8.66602 0.5 9.99902 0.5
c0 -8.66699 -6.83301 -17 -20.5 -25s-31 -15.333 -52 -22s-44 -12.834 -69 -18.501s-49.167 -10.334 -72.5 -14.001s-44.333 -6.66699 -63 -9s-32 -3.5 -40 -3.5c-22.667 0 -34 11 -34 33z" />
    <glyph glyph-name="greater" unicode="&#x3e;" horiz-adv-x="461" 
d="M47 148c2 13.333 11.8311 28.832 29.498 46.499s38.667 36 63 55l77 58.5c27 20 51 39.167 72 57.5s37 35.833 48 52.5s12.5 31 4.5 43l-280 151c-2 2 -4.66699 6.16699 -8 12.5s-5 10.833 -5 13.5s0.833008 5.66699 2.5 9s3.83398 7 6.50098 11s5.5 7.5 8.5 10.5
s5.83301 5.5 8.5 7.5l306 -177c16 -10.667 23 -25.167 21 -43.5s-10.167 -38.5 -24.5 -60.5s-33.166 -45 -56.499 -69s-48 -47.333 -74 -70s-51.667 -43.667 -77 -63l-65.5 -48.5c-18.333 -13 -32 -21.667 -41 -26s-9.5 -3.16602 -1.5 3.50098
c-7.33301 0 -11.5 3.33301 -12.5 10s-1.5 12 -1.5 16z" />
    <glyph glyph-name="question" unicode="?" horiz-adv-x="456" 
d="M180 39c0 11.333 2.16797 18.667 6.50098 22s10.166 5 17.499 5c11.333 0 21 -4.16699 29 -12.5s12 -17.833 12 -28.5c0 -9.33301 -3.5 -15.833 -10.5 -19.5s-14.833 -5.5 -23.5 -5.5c-4 0 -7.83301 1.5 -11.5 4.5s-7 6.66699 -10 11s-5.33301 8.5 -7 12.5
s-2.5 7.66699 -2.5 11zM127.001 443.001c0 26.667 6.49121 51.0029 19.4912 73.0029s28.833 42.833 47.5 62.5s39.334 38.834 62.001 57.501s43.334 38 62.001 58s34.5 41.167 47.5 63.5s19.5 47.166 19.5 74.499c0 15.333 -4 26.666 -12 33.999s-18 12.5 -30 15.5
s-25 4.33301 -39 4s-27 -0.5 -39 -0.5c-21.333 0 -41.666 -4.33301 -60.999 -13s-37.833 -17.834 -55.5 -27.501s-35.167 -18.667 -52.5 -27s-35 -12.5 -53 -12.5c-8 0 -15 1.16699 -21 3.5s-9 10.166 -9 23.499c0 8 5.66699 16 17 24s25.833 15.833 43.5 23.5
s37.334 15 59.001 22s42.834 12.833 63.501 17.5s39.167 8.5 55.5 11.5s28.833 4.5 37.5 4.5c14.667 0 30.834 -1.16699 48.501 -3.5s33.667 -6.66602 48 -12.999s26.333 -15.333 36 -27s14.5 -26.834 14.5 -45.501c0 -34 -8.66699 -67.667 -26 -101
s-38.166 -64.833 -62.499 -94.5s-49.666 -57.334 -75.999 -83.001s-48.833 -48.5 -67.5 -68.5c-8 -4 -13.167 -10.167 -15.5 -18.5s-2.16602 -17 0.500977 -26s7.5 -17.667 14.5 -26s16 -14.666 27 -18.999s23.5 -5.66602 37.5 -3.99902s29.333 7.5 46 17.5l19 -39
c-14 -10.667 -30.333 -17.834 -49 -21.501s-36.667 -5.5 -54 -5.5c-12.667 0 -25 2 -37 6s-23 9.66699 -33 17s-18 16.333 -24 27s-9 22.667 -9 36z" />
    <glyph glyph-name="at" unicode="@" horiz-adv-x="968" 
d="M26 294c0 43.333 7.33203 89.0039 21.999 137.004s35.167 95.333 61.5 142s57.333 91 93 133s74.5 79 116.5 111s85.833 57.5 131.5 76.5s91.834 28.5 138.501 28.5c39.333 0 75.5 -9.16699 108.5 -27.5s61.333 -42.166 85 -71.499s42.167 -62.166 55.5 -98.499
s20 -72.5 20 -108.5c0 -32.667 -2.83301 -65.167 -8.5 -97.5s-15.834 -61.666 -30.501 -87.999s-34.5 -47.5 -59.5 -63.5s-57.5 -24 -97.5 -24c-32.667 0 -58.167 3.5 -76.5 10.5s-32 16.167 -41 27.5s-14.667 23.666 -17 36.999l-7 39c-2.33301 12.667 -5.5 24 -9.5 34
s-12 17 -24 21c-11.333 -19.333 -25.5 -41.5 -42.5 -66.5s-35.667 -48.833 -56 -71.5s-42.333 -41.834 -66 -57.501s-48.5 -23.5 -74.5 -23.5c-15.333 0 -26.666 4.66699 -33.999 14s-11 22 -11 38c0 18.667 4.83301 40.334 14.5 65.001s22.5 50.167 38.5 76.5
s34.5 52.666 55.5 78.999s42.833 49.666 65.5 69.999s45.667 36.833 69 49.5s45.333 19 66 19c27.333 0 45.166 -5.33301 53.499 -16s12.5 -27.334 12.5 -50.001v-13c0 -4.66699 -0.833008 -9 -2.5 -13s-4.33398 -7.33301 -8.00098 -10s-9.5 -2.66699 -17.5 0v-13
c0 -6 -0.166992 -12.333 -0.5 -19s-0.5 -13.334 -0.5 -20.001v-13c0 -19.333 1.5 -38.333 4.5 -57s8.66699 -35.167 17 -49.5s19.666 -26 33.999 -35s33.166 -13.5 56.499 -13.5c33.333 0 59.666 6.66699 78.999 20s34.166 30.666 44.499 51.999s16.833 45 19.5 71
s4 51.667 4 77c0 29.333 -4 60 -12 92s-20.5 61 -37.5 87s-38.5 47.5 -64.5 64.5s-56.667 25.5 -92 25.5c-44 0 -87.167 -7.83301 -129.5 -23.5s-82.5 -37.167 -120.5 -64.5s-73.167 -59 -105.5 -95s-60.166 -74.5 -83.499 -115.5s-41.666 -83.167 -54.999 -126.5
s-20 -86 -20 -128c0 -50.667 6.83301 -93.167 20.5 -127.5s33.5 -61.833 59.5 -82.5s58 -35.5 96 -44.5s81.333 -13.5 130 -13.5c80.667 0 156.834 13.167 228.501 39.5s141.5 60.5 209.5 102.5c8.66699 5.33301 15.334 11.666 20.001 18.999l13.5 22
c4.33301 7.33301 9.5 13.333 15.5 18s14.667 7 26 7c22 0 35 -3.83301 39 -11.5s0 -21.834 -12 -42.501c-41.333 -29.333 -84.166 -56.5 -128.499 -81.5s-90 -46.5 -137 -64.5s-95.5 -32.167 -145.5 -42.5s-100.333 -15.5 -151 -15.5c-47.333 0 -92 5.33301 -134 16
s-78.667 27.834 -110 51.501s-56.166 54 -74.499 91s-27.5 82.167 -27.5 135.5zM511.999 652.004c-18.667 0 -37.835 -5.16992 -57.502 -15.5029s-39.167 -24.166 -58.5 -41.499s-37.333 -37.166 -54 -59.499s-31.5 -45 -44.5 -68s-23.167 -45.667 -30.5 -68
s-11 -42.166 -11 -59.499c12 0 24.167 3.5 36.5 10.5s24.333 15.5 36 25.5s22.334 20.333 32.001 31s17.5 20 23.5 28l24.5 35c11.667 16.667 23.5 34.667 35.5 54l34 54.5c10.667 17 17.667 29.167 21 36.5h46c0 10 -2.66699 18.667 -8 26s-13.666 11 -24.999 11z" />
    <glyph glyph-name="A" unicode="A" 
d="M26 26c2 9.33301 3.66602 21.3291 4.99902 35.9961l5.5 58c2.33301 24 5 53.667 8 89s7.16699 78.333 12.5 129l18.5 178.5c7 68.333 16.167 147.833 27.5 238.5c0.666992 6.66699 3.83398 10.667 9.50098 12s10.834 2 15.501 2c7.33301 0 13.333 -2.66699 18 -8
s8.83398 -11.333 12.501 -18s7.16699 -13.667 10.5 -21s7 -13.333 11 -18c6.66699 -15.333 13.5 -33 20.5 -53l22.5 -64l24 -68.5l24 -67l22.5 -60c7 -18.333 13.5 -33.5 19.5 -45.5c7.33301 0.666992 17.666 3.5 30.999 8.5s27.666 9.83301 42.999 14.5
s30.333 8.33398 45 11.001s27 2.83398 37 0.500977s16.5 -8.16602 19.5 -17.499s0.5 -24 -7.5 -44c-4.66699 0 -9 0.833008 -13 2.5l-12 5l-12.5 5c-4.33301 1.66699 -9.16602 2.5 -14.499 2.5c-3.33301 0 -10.833 -1.83301 -22.5 -5.5l-37.5 -12
c-13.333 -4.33301 -25 -8.66602 -35 -12.999s-15 -7.5 -15 -9.5l69 -271l-26 -38c-11.333 19.333 -20.833 41.5 -28.5 66.5s-14.834 50 -21.501 75s-13.5 48.333 -20.5 70s-15.833 39.834 -26.5 54.501c-14 -6.66699 -30.667 -12.334 -50 -17.001s-38 -10.5 -56 -17.5
s-33.5 -16.333 -46.5 -28s-20.833 -27.5 -23.5 -47.5c-1.33301 -8 -2.5 -18.667 -3.5 -32s-2.16699 -26 -3.5 -38c-2 -14.667 -3.66699 -29.667 -5 -45h-51zM140.999 614.996l-2 -17.001c-0.666992 -11.333 -1.66699 -24.5 -3 -39.5s-2.83301 -30.333 -4.5 -46
s-2.83398 -28.834 -3.50098 -39.501c-3.33301 -37.333 -6.83301 -74.166 -10.5 -110.499s-5.5 -73.5 -5.5 -111.5c12.667 0 26.167 1.66699 40.5 5s28.166 7.83301 41.499 13.5s25.5 12.667 36.5 21s19.5 17.833 25.5 28.5c-5.33301 23.333 -11.166 47.5 -17.499 72.5
s-13.166 50.333 -20.499 76s-15.333 50.834 -24 75.501s-18 48.667 -28 72c-0.666992 0.666992 -3 2.16699 -7 4.5s-10 0.833008 -18 -4.5z" />
    <glyph glyph-name="B" unicode="B" horiz-adv-x="550" 
d="M39 615c-5.33301 10 -8.99707 18.668 -10.9971 26.001s-3 16 -3 26c0 3.33301 0.166992 6.66602 0.5 9.99902s1.33301 6.33301 3 9s4.33398 4.66699 8.00098 6s8.5 1 14.5 -1c4 -1.33301 8 -3.83301 12 -7.5s7.83301 -8.33398 11.5 -14.001s6.66699 -11.167 9 -16.5
s4.16602 -9.66602 5.49902 -12.999c15.333 12 32 24.167 50 36.5s37.167 23.333 57.5 33s41 17.5 62 23.5s41.167 9 60.5 9c6.66699 0 14.667 -0.666992 24 -2s18.166 -3.66602 26.499 -6.99902s15.333 -7.83301 21 -13.5s8.5 -12.834 8.5 -21.501
c2 -16 0.166992 -32.167 -5.5 -48.5s-13.334 -32.166 -23.001 -47.499s-20.667 -30.333 -33 -45l-37 -42l-34 -37c-10.333 -11.333 -18.166 -21.333 -23.499 -30c27.333 18 56.833 31.167 88.5 39.5s63.5 12.5 95.5 12.5c10 0 20.833 -0.5 32.5 -1.5s22.5 -3.5 32.5 -7.5
s18.333 -9.66699 25 -17s10 -17.666 10 -30.999s-6.16699 -31.833 -18.5 -55.5s-28.333 -49.667 -48 -78s-41.334 -57 -65.001 -86s-46.5 -55.333 -68.5 -79s-41.833 -43 -59.5 -58s-30.167 -22.5 -37.5 -22.5l-26 12c3.33301 12.667 11.666 27.667 24.999 45
s29.166 35.333 47.499 54l59 59l59.5 60c18.667 19.333 35 38.166 49 56.499s23.167 35 27.5 50s2.5 27.667 -5.5 38s-24.333 18.166 -49 23.499c-26 0 -53.333 -4.5 -82 -13.5s-56 -21.833 -82 -38.5s-49.167 -36.5 -69.5 -59.5s-35.166 -48.833 -44.499 -77.5
c0 -18.667 1.5 -37 4.5 -55s6.16699 -35.833 9.5 -53.5s6.5 -35.5 9.5 -53.5s4.5 -36 4.5 -54c0 -13.333 -1 -24.333 -3 -33s-10.333 -13 -25 -13c-1.33301 0 -3.5 0.166992 -6.5 0.5s-4.5 0.833008 -4.5 1.5zM103.003 552.001c0 -24.667 1.66699 -50.834 5 -78.501
s10 -53.167 20 -76.5c10 8.66699 22.5 20.167 37.5 34.5l47 46.5c16.333 16.667 32.333 34.334 48 53.001s30 36.667 43 54s23.333 33.5 31 48.5s11.5 27.5 11.5 37.5c0 8 -2.5 13.333 -7.5 16s-10.833 4 -17.5 4c-16 0 -36.5 -3.33301 -61.5 -10s-49 -16 -72 -28
s-42.833 -26.5 -59.5 -43.5s-25 -36.167 -25 -57.5z" />
    <glyph glyph-name="C" unicode="C" horiz-adv-x="499" 
d="M25 179c0 21.333 2.16406 50.334 6.49707 87.001s11 76 20 118s20.167 84.5 33.5 127.5s29.166 81.833 47.499 116.5s39.333 63 63 85s49.834 33 78.501 33c16.667 0 30.834 -3 42.501 -9s21.334 -14.167 29.001 -24.5s13.334 -22 17.001 -35s5.5 -27.167 5.5 -42.5
c-12 0 -21.667 3.16699 -29 9.5s-14 13.166 -20 20.499s-12.167 14.166 -18.5 20.499s-14.833 9.5 -25.5 9.5c-21.333 0 -41 -10.167 -59 -30.5s-34.333 -46.166 -49 -77.499s-27.667 -66.166 -39 -104.499s-20.833 -75.666 -28.5 -111.999s-13.5 -69.333 -17.5 -99
s-6 -51.834 -6 -66.501c0 -19.333 1 -38.166 3 -56.499s6.33301 -34.833 13 -49.5s16.334 -26.5 29.001 -35.5s30.667 -13.5 54 -13.5c26.667 0 53.167 8.66699 79.5 26s50.833 38.5 73.5 63.5s42.334 51.667 59.001 80s28.667 53.166 36 74.499
c1.33301 0.666992 4.33301 1.16699 9 1.5s7.66699 0.5 9 0.5c8 0 15.5 -0.833008 22.5 -2.5s10.5 -7.83398 10.5 -18.501c-4 -21.333 -13.333 -43.833 -28 -67.5s-32 -46.834 -52 -69.501s-42 -43.667 -66 -63s-47.333 -35.666 -70 -48.999s-43.667 -22.5 -63 -27.5
s-35 -4.5 -47 1.5c-22 0 -40.833 6.16699 -56.5 18.5s-28.334 27.5 -38.001 45.5s-16.834 37.333 -21.501 58s-7 39.667 -7 57z" />
    <glyph glyph-name="D" unicode="D" horiz-adv-x="568" 
d="M161 20c0 13.333 8.33594 30.4971 25.0029 51.4971s37.334 44.833 62.001 71.5l81 87c29.333 31.333 56.333 63.833 81 97.5s45.334 68 62.001 103s25 69.5 25 103.5c0 18 -5 33.5 -15 46.5s-22.833 24.167 -38.5 33.5s-33.334 16.666 -53.001 21.999
s-39.5 9.5 -59.5 12.5s-39 5 -57 6s-33.333 1.5 -46 1.5c-3.33301 0 -7.66602 -0.166992 -12.999 -0.5l-16.5 -1c-5.66699 -0.333008 -10.834 -0.833008 -15.501 -1.5s-7.33398 -1 -8.00098 -1l-13 -12c0 -1.33301 -0.166992 -7 -0.5 -17s-0.666016 -21.333 -0.999023 -34
s-0.5 -25.667 -0.5 -39v-31c0 -67.333 2.5 -134.166 7.5 -200.499s7.5 -133.166 7.5 -200.499c0 -4 0.166992 -8.33301 0.5 -13s0.166016 -9.16699 -0.500977 -13.5s-2.5 -8 -5.5 -11s-7.5 -4.5 -13.5 -4.5c-4 0 -8 1 -12 3s-6.33301 5.33301 -7 10l-39 526
c-2 -1.33301 -5.5 -3.16602 -10.5 -5.49902l-15.5 -7.5c-5.33301 -2.66699 -10.5 -5.5 -15.5 -8.5s-8.16699 -4.5 -9.5 -4.5c-0.666992 0 -1.83398 -0.166992 -3.50098 -0.5s-2.83398 -0.5 -3.50098 -0.5c-3.33301 0 -7.16602 0.833008 -11.499 2.5s-6.5 5.5 -6.5 11.5
c0 10 2.16699 18.167 6.5 24.5s10 12.166 17 17.499s14.5 10.666 22.5 15.999s15.5 12.166 22.5 20.499s12.667 18.833 17 31.5s6.5 28.667 6.5 48c13.333 0 21.666 -2.33301 24.999 -7s5.33301 -10.167 6 -16.5s1.5 -12.666 2.5 -18.999s5.83301 -10.833 14.5 -13.5
c18.667 0.666992 41.167 0.666992 67.5 0s54 -2.83398 83 -6.50098s57.667 -9.16699 86 -16.5s53.666 -17.666 75.999 -30.999s40 -30.166 53 -50.499s18.833 -45.166 17.5 -74.499c-8.66699 -51.333 -25.167 -100.666 -49.5 -147.999s-53 -92.833 -86 -136.5
s-68.667 -85.5 -107 -125.5l-114.5 -115c-0.666992 -0 -1.66699 -0.166992 -3 -0.5s-2.33301 -0.5 -3 -0.5c-6 0 -11 2 -15 6s-6 9 -6 15z" />
    <glyph glyph-name="E" unicode="E" horiz-adv-x="486" 
d="M72 26c0 54 0.329102 107.003 0.996094 159.003s0.333984 103.667 -0.999023 155s-4 102.833 -8 154.5s-10 104.167 -18 157.5c0 1.33301 -0.833008 4 -2.5 8s-3.16699 8.16699 -4.5 12.5s-2.66602 8.16602 -3.99902 11.499s-2 5.66602 -2 6.99902
c0 3.33301 1.16699 7.33301 3.5 12s5.33301 9.16699 9 13.5s7.83398 7.83301 12.501 10.5s9.33398 3.66699 14.001 3c8 -2 14.5 -7 19.5 -15s8.83301 -16.833 11.5 -26.5s4.5 -19.167 5.5 -28.5s1.5 -16 1.5 -20l67.5 34.5c25 12.333 50.667 23.666 77 33.999
s52.666 19 78.999 26s51.166 10.5 74.499 10.5c0 -6 -1.16699 -11.333 -3.5 -16s-6.83301 -8.66699 -13.5 -12l-281 -141v-39c0.666992 -7.33301 1.5 -20 2.5 -38s2.16699 -37.167 3.5 -57.5s2.5 -39.666 3.5 -57.999s1.83301 -30.833 2.5 -37.5l206 115l5 6
c3.33301 4 7.66602 7.66699 12.999 11s10.833 5.16602 16.5 5.49902s11.167 -3.16699 16.5 -10.5c0 -12 -6 -23.667 -18 -35s-27 -22.666 -45 -33.999s-37.5 -22.333 -58.5 -33l-58.5 -31c-18 -10 -33 -20 -45 -30s-18 -19.333 -18 -28v-193
c8.66699 -3.33301 20.834 -1.83301 36.501 4.5s33.167 15.166 52.5 26.499s39.333 24.5 60 39.5l60.5 42.5l55 36c17 10.667 31.167 17 42.5 19c6.66699 0 12.667 -1.33301 18 -4s8 -8 8 -16s-4.66699 -14.333 -14 -19c-23.333 -14 -50.166 -31.5 -80.499 -52.5l-92.5 -63
c-31.333 -21 -62.166 -40 -92.499 -57s-56.5 -28.167 -78.5 -33.5c-8.66699 0 -15.667 0.666992 -21 2s-11.333 5.33301 -18 12z" />
    <glyph glyph-name="F" unicode="F" horiz-adv-x="439" 
d="M30 660c0 6.66699 1.99902 11.4971 5.99902 14.4971s9 5.16699 15 6.5s12.333 2 19 2s12.334 0.333008 17.001 1v-95c44 12.667 80 25.5 108 38.5l75 36c22 11 43.833 21 65.5 30s47.834 16.833 78.501 23.5c4.66699 0 8 -2.33301 10 -7s3 -9 3 -13
c0 -7.33301 -4.33301 -13.333 -13 -18l-321 -154l13 -282l125 70l84 48l51.5 29c12.333 6.66699 21.5 11.334 27.5 14.001l11 5c1.33301 0.666992 2.33301 1 3 1c1.33301 0 2.33301 -1.16699 3 -3.5s1 -5.16602 1 -8.49902v-12c0 -3.33301 0.666992 -6.33301 2 -9
c-3.33301 -4 -13.166 -11.333 -29.499 -22l-58.5 -36.5l-72.5 -43l-71.5 -42.5c-22 -13.333 -40.167 -24.833 -54.5 -34.5s-21.5 -16.167 -21.5 -19.5v-153c0 -8.66699 -1.5 -15.334 -4.5 -20.001s-7.83301 -7 -14.5 -7c-7.33301 0 -13.833 8.33301 -19.5 25
s-10.334 38.834 -14.001 66.501s-6.83398 59.5 -9.50098 95.5s-5 73.333 -7 112s-3.5 77.334 -4.5 116.001s-1.66699 74.5 -2 107.5s-0.5 61.5 -0.5 85.5v53z" />
    <glyph glyph-name="G" unicode="G" horiz-adv-x="606" 
d="M456 179l-60.4971 -54.5039c-21 -19.667 -43.333 -37.834 -67 -54.501s-48.167 -30.5 -73.5 -41.5s-52 -16.5 -80 -16.5c-14.667 0 -30.667 1.83301 -48 5.5s-33.5 9.83398 -48.5 18.501s-28 19.5 -39 32.5s-16.833 28.5 -17.5 46.5
c-2.66699 25.333 0.166016 56.5 8.49902 93.5s20.833 76 37.5 117s36.5 81.667 59.5 122s48.167 77 75.5 110s56.166 59.5 86.499 79.5s61.166 30 92.499 30c4.66699 0 9.83398 -0.5 15.501 -1.5s11 -2.5 16 -4.5s9.16699 -5.16699 12.5 -9.5s5 -10.166 5 -17.499
c0 -3.33301 -7.5 -7.66602 -22.5 -12.999l-51.5 -17.5c-19.333 -6.33301 -38 -13 -56 -20s-30 -13.833 -36 -20.5c-24 -30.667 -46.833 -62 -68.5 -94s-41 -65 -58 -99s-31.333 -69 -43 -105s-19.5 -73 -23.5 -111c0 -18.667 3.66699 -33.167 11 -43.5s16.833 -18 28.5 -23
s25.167 -8 40.5 -9s30.666 -1.5 45.999 -1.5c26.667 2.66699 53.334 11.834 80.001 27.501s51.834 35.167 75.501 58.5s45.167 49.833 64.5 79.5s35.666 59.834 48.999 90.501h-156c0 8 4.83301 15.333 14.5 22s22 12.834 37 18.501s31.833 10.834 50.5 15.501
s37 8.66699 55 12s34.667 5.66602 50 6.99902s27.333 2 36 2h11c4.66699 0 9 -0.666992 13 -2s6.83301 -3.83301 8.5 -7.5s0.833984 -9.16699 -2.49902 -16.5c-0.666992 -1.33301 -2.83398 -3.33301 -6.50098 -6s-7.66699 -5.33398 -12 -8.00098l-12.5 -7.5
c-4 -2.33301 -6.66699 -3.83301 -8 -4.5c-14 -28 -24 -61 -30 -99s-9.33301 -77.333 -10 -118s0.666016 -81.167 3.99902 -121.5s7.33301 -76.5 12 -108.5l-39 -26c-8 8 -14.5 19.333 -19.5 34s-8.5 31 -10.5 49s-3 37 -3 57s0.5 39.5 1.5 58.5s2 36.833 3 53.5z" />
    <glyph glyph-name="H" unicode="H" horiz-adv-x="435" 
d="M326 346c-7.33301 -5.33301 -20.166 -13.1641 -38.499 -23.4971l-58.5 -33.5l-59 -34.5c-18.667 -11 -31.667 -19.167 -39 -24.5c-14.667 -11.333 -24.667 -24.333 -30 -39s-8 -30.5 -8 -47.5s1.66699 -34.667 5 -53s5.66602 -36.833 6.99902 -55.5
c0 -9.33301 -3 -18 -9 -26s-13.667 -12 -23 -12c-4 0 -8.33301 1.16699 -13 3.5s-7 5.83301 -7 10.5l-23 641c0 4 1.5 9.33301 4.5 16s5.5 10.334 7.5 11.001c2 0 4.83301 -0.333008 8.5 -1s7.5 -1.83398 11.5 -3.50098l11.5 -5c3.66699 -1.66699 6.16699 -3.16699 7.5 -4.5
c2.66699 -26.667 4.33398 -57.334 5.00098 -92.001s1.5 -69.667 2.5 -105s2.66699 -69.5 5 -102.5s6.5 -60.833 12.5 -83.5l81 34c25.333 10.667 47.333 23 66 37s33.334 31.167 44.001 51.5s15.667 45.833 15 76.5c0 16.667 -0.333008 31.334 -1 44.001s-2 25.167 -4 37.5
s-4.83301 25.666 -8.5 39.999s-8.16699 30.833 -13.5 49.5c-1.33301 12 0.666992 19.667 6 23s11.666 5 18.999 5c8.66699 0 15.334 -2 20.001 -6s8.5 -9.33301 11.5 -16s4.83301 -13.834 5.5 -21.501s1.33398 -14.834 2.00098 -21.501c1.33301 -10.667 3 -26.667 5 -48
l6.5 -72.5c2.33301 -27 5 -55.5 8 -85.5l8.5 -85c2.66699 -26.667 4.83398 -50.667 6.50098 -72s3.16699 -37.333 4.5 -48c2 -25.333 4.66699 -50.333 8 -75s5 -50 5 -76v-16c0 -5.33301 -0.5 -10.5 -1.5 -15.5s-3.33301 -9.33301 -7 -13s-9.5 -6.5 -17.5 -8.5
c-12 8.66699 -19 18.334 -21 29.001s-3.66699 22.334 -5 35.001c-0.666992 7.33301 -1.33398 18.5 -2.00098 33.5s-1.83398 31.667 -3.50098 50s-3.33398 37.666 -5.00098 57.999s-3.33398 39.666 -5.00098 57.999l-4.5 49.5z" />
    <glyph glyph-name="I" unicode="I" horiz-adv-x="157" 
d="M52 747c0 5.33301 1.83594 9.16992 5.50293 11.5029s8 3.66602 13 3.99902s10.333 0.166016 16 -0.500977s10.5 -1 14.5 -1c3.33301 -8 6.16602 -23.833 8.49902 -47.5s4.66602 -52.334 6.99902 -86.001s4 -70.834 5 -111.501l3 -123.5c1 -41.667 1.66699 -82.5 2 -122.5
s0.666016 -76.5 0.999023 -109.5s0.5 -61.167 0.5 -84.5v-45c-0.666992 -13.333 -3.5 -21.166 -8.5 -23.499s-16.5 -0.833008 -34.5 4.5c-2 0.666992 -3.66699 10.667 -5 30s-2.33301 44.833 -3 76.5s-1.33398 68 -2.00098 109l-2 126.5
c-0.666992 43.333 -1.5 86.666 -2.5 129.999s-2.16699 82.833 -3.5 118.5s-3.16602 66.334 -5.49902 92.001s-5.5 43.167 -9.5 52.5z" />
    <glyph glyph-name="J" unicode="J" horiz-adv-x="380" 
d="M13 141c0 2 1.66797 4.66504 5.00098 7.99805s6 5 8 5c8.66699 -19.333 18.334 -39.666 29.001 -60.999s23.167 -41 37.5 -59s30.833 -32.833 49.5 -44.5s40 -17.5 64 -17.5c21.333 0 40 5.66699 56 17s27 28 33 50c4 54.667 3.66699 109 -1 163
s-10.667 107.833 -18 161.5l-22 161c-7.33301 53.667 -11.333 107.834 -12 162.501c0 3.33301 -0.166992 7.5 -0.5 12.5s0.166992 9.83301 1.5 14.5s3.33301 8.66699 6 12s7.33398 5 14.001 5c7.33301 0 13.666 -4.66699 18.999 -14c16.667 -97.333 31.667 -196.333 45 -297
s20 -200.334 20 -299.001c0 -26.667 -1.83301 -51.334 -5.5 -74.001s-10.834 -42.167 -21.501 -58.5s-25.334 -29.333 -44.001 -39s-42.667 -14.5 -72 -14.5c-25.333 0 -49.5 5.83301 -72.5 17.5s-43.333 27.334 -61 47.001s-31.667 41.834 -42 66.501
s-15.5 49.667 -15.5 75z" />
    <glyph glyph-name="K" unicode="K" horiz-adv-x="537" 
d="M26 665c1.33301 7.33301 5.17383 13.6602 11.5068 18.9932s13.166 8 20.499 8c4 0 7.83301 -1.5 11.5 -4.5s6.83398 -6.66699 9.50098 -11s5 -8.66602 7 -12.999s3 -8.16602 3 -11.499l39 -345c4 4 12.5 16.833 25.5 38.5l46 76l57 90.5
c20.333 31.333 40.166 58.5 59.499 81.5s36.666 39.333 51.999 49s27.333 7.83398 36 -5.49902c-30 -48 -56.333 -88.5 -79 -121.5l-59.5 -85l-43 -61c-11.667 -17 -21.834 -33.333 -30.501 -49s-16 -32 -22 -49s-11.667 -37.167 -17 -60.5
c0 -2.66699 0.833008 -4.83398 2.5 -6.50098s6.33398 -3.66699 14.001 -6s19.5 -4.16602 35.5 -5.49902s38 -2.66602 66 -3.99902s63.333 -2.33301 106 -3s95 -1 157 -1c0 -10 -2.5 -19.833 -7.5 -29.5s-14.167 -14.5 -27.5 -14.5h-358
c5.33301 -18.667 9.16602 -37.167 11.499 -55.5s3.5 -36.5 3.5 -54.5c0 -12 -2.16699 -18.167 -6.5 -18.5s-13.833 -0.5 -28.5 -0.5l-2.5 0.5c-1.66699 0.333008 -2.83398 0.5 -3.50098 0.5c-1.33301 4.66699 -3.33301 13 -6 25s-5.33398 24.667 -8.00098 38l-7.5 38.5
c-2.33301 12.333 -3.83301 21.166 -4.5 26.499c-0.666992 6.66699 -2 21 -4 43l-7 76c-2.66699 28.667 -5.33398 59.334 -8.00098 92.001s-5.33398 63.5 -8.00098 92.5l-7 75.5l-4 43c0 2 -0.5 5.83301 -1.5 11.5s-2.33301 11.834 -4 18.501s-3 13.334 -4 20.001
s-1.83301 11.334 -2.5 14.001c0 0.666992 -0.833008 3 -2.5 7s-3.16699 8 -4.5 12l-4 11.5c-1.33301 3.66699 -2 6.16699 -2 7.5z" />
    <glyph glyph-name="L" unicode="L" horiz-adv-x="550" 
d="M49 39c-1.33301 84.667 -2.83105 157.171 -4.49805 217.504s-3.16699 111.166 -4.5 152.499s-2.83301 74.166 -4.5 98.499s-2.83398 43.833 -3.50098 58.5s-1.33398 25.167 -2.00098 31.5s-1 12.5 -1 18.5c0 11.333 3.33301 18.5 10 21.5s15 4.5 25 4.5
c11.333 0 20.166 -2.16699 26.499 -6.5s9.5 -15.5 9.5 -33.5l19 -538c0.666992 0 4 0.666992 10 2s13 3.33301 21 6l25 8.5c8.66699 3 15.667 5.83301 21 8.5c8 3.33301 20 8.66602 36 15.999l54 25l63.5 29.5l64 29c20.333 9 38.333 17.333 54 25s27.5 13.167 35.5 16.5h12
c4 0 8 -0.333008 12 -1s7.33301 -2.33398 10 -5.00098s4.33398 -6.66699 5.00098 -12c0 -6.66699 -1.16699 -12.334 -3.5 -17.001s-5.5 -10 -9.5 -16c-39.333 -7.33301 -77.833 -20.666 -115.5 -39.999l-112 -60c-37 -20.667 -74.333 -39 -112 -55s-76.167 -24 -115.5 -24
c-16.667 0 -25 13 -25 39z" />
    <glyph glyph-name="M" unicode="M" horiz-adv-x="699" 
d="M542 665c-2.66699 1.33301 -6.49512 -6.16113 -11.4951 -22.4941l-19.5 -63c-8 -25.667 -16.5 -54.667 -25.5 -87s-18.833 -64.5 -29.5 -96.5s-21.334 -61.833 -32.001 -89.5s-21.334 -49.5 -32.001 -65.5s-20.667 -24.833 -30 -26.5s-17.666 7.83301 -24.999 28.5
c-5.33301 9.33301 -12.833 24.166 -22.5 44.499l-33.5 68.5l-40 80l-39.5 79.5l-34 67.5l-22.5 44c-8 14.667 -15.167 26.5 -21.5 35.5s-16.166 13.5 -29.499 13.5c0 -46.667 2.66699 -98 8 -154s11.166 -112.667 17.499 -170s12.166 -113.833 17.499 -169.5
s8 -107.167 8 -154.5c2.66699 -6 1.83398 -11.667 -2.49902 -17s-10.333 -9.33301 -18 -12s-16 -2.83398 -25 -0.500977s-16.5 7.83301 -22.5 16.5c-6 59.333 -9.16699 119.833 -9.5 181.5s-0.833008 123.5 -1.5 185.5s-3.33398 124.167 -8.00098 186.5s-14 124.5 -28 186.5
c-0.666992 12 1.33301 19.5 6 22.5s10.667 4.5 18 4.5c16 0 30.5 -3.83301 43.5 -11.5s24.833 -17.334 35.5 -29.001s20.167 -24.5 28.5 -38.5l22.5 -38c5.33301 -8.66699 12.666 -22.334 21.999 -41.001l32 -65l37.5 -75.5l37.5 -75l33 -63
c10 -18.333 17.667 -31.5 23 -39.5c2.66699 0 5 1 7 3s4.83301 7.66699 8.5 17s8.66699 23.666 15 42.999l26.5 80l42 129l61 190c1.33301 3.33301 5.66602 6.33301 12.999 9s14 4 20 4s10.167 -2 12.5 -6s4.16602 -10.667 5.49902 -20
c6 -56.667 10.833 -115.834 14.5 -177.501s8.5 -124 14.5 -187s13.5 -125.5 22.5 -187.5s21.5 -121 37.5 -177l-69 -27z" />
    <glyph glyph-name="N" unicode="N" horiz-adv-x="554" 
d="M31 615l-0.00585938 47.9971c8 0 17 -2.66699 27 -8s19.667 -11.666 29 -18.999s18 -15.5 26 -24.5s14.333 -16.5 19 -22.5l295 -397c2 11.333 3.83301 32.333 5.5 63s2.33398 65.5 2.00098 104.5s-1.33301 79.833 -3 122.5s-4 82.5 -7 119.5s-6.33301 68.333 -10 94
s-8.5 41.167 -14.5 46.5c0 10 1.83301 19.333 5.5 28s10.834 13 21.501 13s19.334 -6 26.001 -18s11.667 -25.5 15 -40.5s5.83301 -29.667 7.5 -44s2.5 -23.833 2.5 -28.5c0.666992 -12 1.33398 -30.167 2.00098 -54.5s1.33398 -52 2.00098 -83s1.5 -63.833 2.5 -98.5
s2 -67.334 3 -98.001s1.66699 -58.5 2 -83.5s0.833008 -43.5 1.5 -55.5c0 -8.66699 1.5 -16.667 4.5 -24l9 -22c3 -7.33301 5.83301 -14.666 8.5 -21.999s4 -15 4 -23c0 -13.333 -4.83301 -23.166 -14.5 -29.499s-20.5 -9.5 -32.5 -9.5c-6.66699 0 -12.5 0.833008 -17.5 2.5
s-9 4.66699 -12 9s-4.66699 9.83301 -5 16.5s0.833984 15.334 3.50098 26.001c-7.33301 8.66699 -18.666 22.834 -33.999 42.501l-51.5 66l-60.5 76.5l-61 76.5l-52 65.5l-34 43c-1.33301 2 -3.66602 4.66699 -6.99902 8l-24 24c-3.33301 3.33301 -6 5.66602 -8 6.99902
c-2.66699 -38.667 -2.33398 -77.5 0.999023 -116.5s7.83301 -77.833 13.5 -116.5l17 -115.5c5.66699 -38.333 8.5 -76.833 8.5 -115.5c0 -10.667 -1 -20.167 -3 -28.5s-10 -14.833 -24 -19.5c-13.333 4.66699 -22.333 13.5 -27 26.5s-4.33398 25.5 0.999023 37.5z" />
    <glyph glyph-name="O" unicode="O" horiz-adv-x="392" 
d="M15 214c8 116 24.6699 210.502 50.0029 283.502s54.833 125.167 88.5 156.5s68.667 41.833 105 31.5s69.166 -40.833 98.499 -91.5c10 -33.333 16.5 -70.666 19.5 -111.999s2.33301 -83.166 -2 -125.499s-12 -83.833 -23 -124.5s-26.167 -77.334 -45.5 -110.001
s-42.333 -60.167 -69 -82.5s-57.334 -35.833 -92.001 -40.5c-24.667 0 -45.334 7.66699 -62.001 23s-30 34.166 -40 56.499s-17.167 45.666 -21.5 69.999s-6.5 46.166 -6.5 65.499zM68.0029 220.002c0 -16.667 0.832031 -34.001 2.49902 -52.001s5.5 -34.5 11.5 -49.5
s15.167 -27.333 27.5 -37s28.833 -14.5 49.5 -14.5c23.333 0 44.666 10.667 63.999 32s36 49 50 83s25.167 71.667 33.5 113s13.333 81.833 15 121.5s-0.333008 76.167 -6 109.5s-15.5 58.5 -29.5 75.5s-32.5 23.833 -55.5 20.5s-50.5 -21.666 -82.5 -54.999l-28 -84.5
c-9.33301 -29 -17.666 -58.333 -24.999 -88s-13.666 -59.167 -18.999 -88.5s-8 -58 -8 -86z" />
    <glyph glyph-name="P" unicode="P" horiz-adv-x="521" 
d="M103 13c-14 105.333 -22.668 214.166 -26.001 326.499s-3.33301 220.833 0 325.5l-16 -9c-4.66699 -2.66699 -10.334 -4 -17.001 -4c-4.66699 0 -9 2 -13 6s-6 9 -6 15v3c0 0.666992 0.333008 1.66699 1 3c5.33301 6 11.833 16.333 19.5 31s15.834 29.167 24.501 43.5
s17 27 25 38s15 16.5 21 16.5s10.5 -1.5 13.5 -4.5s5.5 -6.5 7.5 -10.5l6.5 -13.5c2.33301 -5 5.83301 -8.83301 10.5 -11.5c20 12 42 22.333 66 31s48.167 14.667 72.5 18s48 3.83301 71 1.5s43.833 -8 62.5 -17s34.667 -21.833 48 -38.5s22 -37.667 26 -63
c-0.666992 -32.667 -10.167 -63.5 -28.5 -92.5s-41 -55.333 -68 -79s-56.167 -44.667 -87.5 -63s-60.166 -34.166 -86.499 -47.499l-65 -32c-17 -8 -24.833 -12.667 -23.5 -14v-359c0 -5.33301 -2.33301 -9 -7 -11s-9 -3 -13 -3c-7.33301 0 -13.333 4.66699 -18 14z
M140.999 704c-2 -19.333 -4.5 -40.5 -7.5 -63.5s-5.16699 -46.667 -6.5 -71s-1.16602 -48.166 0.500977 -71.499s6.16699 -44.333 13.5 -63c28.667 12.667 58.667 26.834 90 42.501s61.333 33.5 90 53.5s54.5 42.167 77.5 66.5s40.167 51.5 51.5 81.5
c0 16 -5.83301 29.667 -17.5 41s-25.834 20.666 -42.501 27.999s-33.834 12.5 -51.501 15.5s-32.167 4.5 -43.5 4.5c-6.66699 0 -17.5 -1.83301 -32.5 -5.5s-30.667 -8.33398 -47 -14.001s-31.666 -12.5 -45.999 -20.5s-23.833 -16 -28.5 -24z" />
    <glyph glyph-name="Q" unicode="Q" horiz-adv-x="525" 
d="M29 335c0 10.667 0.999023 28.8311 2.99902 54.498s5.5 54.834 10.5 87.501s11.833 66.167 20.5 100.5s18.834 65.833 30.501 94.5s25.334 52 41.001 70s33.834 27 54.501 27c2.66699 0 6.5 -0.166992 11.5 -0.5s9.5 -1.66602 13.5 -3.99902
s6.83301 -5.16602 8.5 -8.49902s1.16699 -8 -1.5 -14c11.333 6 21.166 10.5 29.499 13.5s16.166 5.66699 23.499 8s14.833 3.83301 22.5 4.5s16.5 1 26.5 1c23.333 0 43.5 -7.16699 60.5 -21.5s31.333 -33.166 43 -56.499s20.834 -50.333 27.501 -81
s11.334 -62.834 14.001 -96.501s3.5 -67.5 2.5 -101.5s-3.5 -66.333 -7.5 -97s-9.33301 -58.5 -16 -83.5s-13.667 -44.833 -21 -59.5v-4c0 -0.666992 0.333008 -1.33398 1 -2.00098l63 -115c0 -0.666992 0.166992 -2.5 0.5 -5.5s0.5 -4.83301 0.5 -5.5
c0 -18.667 -9 -28 -27 -28h-6c-2.66699 0 -4.66699 0.333008 -6 1c-2 2.66699 -5.33301 7.83398 -10 15.501s-9.83398 15.5 -15.501 23.5l-15.5 22.5c-4.66699 7 -8.33398 11.833 -11.001 14.5c-0.666992 1.33301 -2.5 3.66602 -5.5 6.99902s-5.16699 5.66602 -6.5 6.99902
c-9.33301 -12 -19.333 -24 -30 -36s-22.5 -23 -35.5 -33s-26.667 -18.333 -41 -25s-29.5 -10 -45.5 -10c-28.667 0 -53.5 5.33301 -74.5 16s-39.167 24.834 -54.5 42.501s-28 38 -38 61s-18 47 -24 72s-10.167 49.833 -12.5 74.5s-3.5 48 -3.5 70zM78.999 325.997
c0 -14 0.828125 -30.5029 2.49512 -49.5029s4.33398 -38.667 8.00098 -59s9 -40.5 16 -60.5s15.833 -37.833 26.5 -53.5s23.834 -28.5 39.501 -38.5s34.5 -15 56.5 -15c14.667 0 30.167 3 46.5 9s30.833 14.167 43.5 24.5s23.334 22.666 32.001 36.999s13 29.5 13 45.5v8
c0 3.33301 -0.333008 5 -1 5l-89 193l50 25l65 -154c0 -0.666992 0.666992 -1.33398 2 -2.00098s2.33301 -1 3 -1c6.66699 0 12.167 4.83301 16.5 14.5s7.83301 21.834 10.5 36.501s4.5 30.5 5.5 47.5s1.5 33.167 1.5 48.5v39v18v50c0 19.333 -1.16699 39.166 -3.5 59.499
s-5.66602 40.333 -9.99902 60s-10.833 37.334 -19.5 53.001s-19.834 28.334 -33.501 38.001s-30.167 14.5 -49.5 14.5c-31.333 1.33301 -58.166 -2.66699 -80.499 -12s-41.166 -22.166 -56.499 -38.499s-28 -35.166 -38 -56.499s-18.167 -43.666 -24.5 -66.999
s-11.833 -46.666 -16.5 -69.999s-9.33398 -45.333 -14.001 -66c0 -2.66699 -0.166992 -7.83398 -0.5 -15.501s-0.666016 -16 -0.999023 -25s-0.5 -17.5 -0.5 -25.5v-17z" />
    <glyph glyph-name="R" unicode="R" horiz-adv-x="516" 
d="M40 812c0.666992 0 2.99805 -0.334961 6.99805 -1.00195s8.33301 -1.16699 13 -1.5s9.16699 -0.833008 13.5 -1.5s6.83301 -1 7.5 -1c3.33301 0 8.33301 -0.5 15 -1.5s10 -4.83301 10 -11.5v-88c11.333 2.66699 24.333 8.83398 39 18.501s32 19.5 52 29.5
s42.333 18.333 67 25s53 8.33398 85 5.00098c49.333 -10 85 -21.833 107 -35.5s33.667 -28.667 35 -45s-5.5 -33.833 -20.5 -52.5s-34.833 -37.834 -59.5 -57.501s-52.167 -39.167 -82.5 -58.5l-89 -56.5l-79.5 -51.5c-24 -16 -42 -30.333 -54 -43
c10.667 -4.66699 26.167 -12.167 46.5 -22.5l67 -34l76 -39.5l74.5 -38.5l63 -31c18.667 -9 32 -14.833 40 -17.5c6.66699 -3.33301 13 -6.33301 19 -9c4.66699 -3.33301 9.16699 -6.33301 13.5 -9s6.5 -5.33398 6.5 -8.00098s-0.833008 -6.33398 -2.5 -11.001
s-4.16699 -9 -7.5 -13s-6.83301 -7.5 -10.5 -10.5s-7.16699 -4.5 -10.5 -4.5c-1.33301 0 -2.83301 0.166992 -4.5 0.5s-2.83398 0.5 -3.50098 0.5l-13.5 6.5c-7.66699 3.66699 -15.667 7.83398 -24 12.501s-16.333 8.83398 -24 12.501s-12.5 5.83398 -14.5 6.50098
c-7.33301 2.66699 -19.166 7.83398 -35.499 15.501l-55 26l-64.5 31.5l-64.5 32c-20.333 10 -38.666 18.667 -54.999 26s-28.166 11.666 -35.499 12.999v-306h-45zM105.998 639.998c-1.33301 -12 -2.66602 -26.002 -3.99902 -42.002s-2.83301 -32.667 -4.5 -50
s-3 -34.666 -4 -51.999s-1.5 -33.333 -1.5 -48c2.66699 3.33301 12 9 28 17l58 30l73.5 40c26.333 14.667 51.166 29.834 74.499 45.501s43.833 31.167 61.5 46.5s29 29.5 34 42.5s2.33301 24.833 -8 35.5s-31.833 19 -64.5 25c-18 1.33301 -38.5 0.333008 -61.5 -3
s-46 -9 -69 -17s-44.5 -17.833 -64.5 -29.5s-36 -25.167 -48 -40.5z" />
    <glyph glyph-name="S" unicode="S" horiz-adv-x="554" 
d="M121 47c1.33301 6.66699 9.66797 13.001 25.001 19.001s34.333 12.333 57 19l75 22c27.333 8 53.666 17 78.999 27s48.5 21.333 69.5 34s36.5 27.334 46.5 44.001c0 10 -6.5 17.667 -19.5 23s-30.333 9.83301 -52 13.5s-46.334 6.66699 -74.001 9
s-56 5.66602 -85 9.99902s-57.333 9.66602 -85 15.999s-52.334 15.333 -74.001 27s-39 26.5 -52 44.5s-19.5 40 -19.5 66s5.66699 51.833 17 77.5s26.5 50.5 45.5 74.5s40.667 46.333 65 67s49.833 38.667 76.5 54s53.167 27.333 79.5 36s50.833 13 73.5 13
c6 0 12.333 0.166992 19 0.5s12.5 0 17.5 -1s9.16699 -3.5 12.5 -7.5s5 -10 5 -18c0 -19.333 -6.33301 -33.166 -19 -41.499s-28 -12.5 -46 -12.5l-39 28c-15.333 0 -32.166 -4.33301 -50.499 -13s-37 -20.167 -56 -34.5s-37.5 -30.833 -55.5 -49.5s-33.833 -38 -47.5 -58
s-24.667 -40 -33 -60s-12.5 -38 -12.5 -54c0 -23.333 6.5 -42.166 19.5 -56.499s30.333 -25.666 52 -33.999s46.5 -14.5 74.5 -18.5s56.333 -7.33301 85 -10s57 -5.16699 85 -7.5s52.833 -6.5 74.5 -12.5s39 -14 52 -24s19.5 -23.667 19.5 -41
c7.33301 -10.667 5.83301 -22.834 -4.5 -36.501s-26.333 -27.334 -48 -41.001s-47.334 -27.334 -77.001 -41.001s-60.167 -26 -91.5 -37s-61.666 -20.333 -90.999 -28s-54.333 -12.5 -75 -14.5c-6 0 -11.167 2 -15.5 6s-5.16602 11 -2.49902 21z" />
    <glyph glyph-name="T" unicode="T" horiz-adv-x="610" 
d="M301 627c-21.333 0 -42.8389 -2.00488 -64.5059 -6.00488s-43.167 -8.5 -64.5 -13.5s-42.666 -9.5 -63.999 -13.5s-43 -6 -65 -6c-6.66699 0 -13.5 0.833008 -20.5 2.5s-10.5 7.5 -10.5 17.5c0 6.66699 2.83301 13.5 8.5 20.5s11.834 10.833 18.501 11.5l268 39l3 12.5
c1.33301 5.66699 3.16602 11.334 5.49902 17.001s5.5 10.667 9.5 15s8.66699 6.5 14 6.5c8 0 14.333 -2 19 -6s8.66699 -8.5 12 -13.5l9 -13.5c2.66699 -4 6 -6 10 -6h8c6.66699 0.666992 17.334 1.83398 32.001 3.50098l50.5 5.5l60.5 6.5
c21.333 2.33301 41.666 4.33301 60.999 6s36.333 3.33398 51 5.00098s25.334 3.16699 32.001 4.5c2 0 6.83301 0.166992 14.5 0.5s13.167 0.5 16.5 0.5c0 -12.667 -6.83301 -23.167 -20.5 -31.5s-31 -15.333 -52 -21s-44.333 -10 -70 -13s-50.667 -5.5 -75 -7.5
s-46.666 -3.66699 -66.999 -5s-35.833 -3 -46.5 -5c-2.66699 -47.333 -1.5 -96.666 3.5 -147.999s11.333 -103 19 -155s14.834 -103.667 21.501 -155s10 -100.333 10 -147c2.66699 -9.33301 3.83398 -16.666 3.50098 -21.999s-2.16602 -9 -5.49902 -11s-8.33301 -3 -15 -3
s-14.667 0.333008 -24 1c-6.66699 24 -12.5 52.167 -17.5 84.5s-9.5 67 -13.5 104s-7.83301 75.167 -11.5 114.5l-10.5 117c-3.33301 38.667 -7 75.667 -11 111s-8.66699 67.333 -14 96h-18z" />
    <glyph glyph-name="U" unicode="U" horiz-adv-x="461" 
d="M364 268c-6.66699 -24.667 -15.4961 -51.8291 -26.4961 -81.4961s-24.667 -57.5 -41 -83.5s-35.833 -47.833 -58.5 -65.5s-49 -26.5 -79 -26.5c-23.333 0 -42.166 4.83301 -56.499 14.5s-25.5 22.667 -33.5 39s-13.833 34.333 -17.5 54s-6.16699 39.5 -7.5 59.5
c-0.666992 6.66699 -1.33398 20.167 -2.00098 40.5s-1.33398 44.333 -2.00098 72s-1.5 57.167 -2.5 88.5s-2 60.666 -3 87.999s-1.83301 51.333 -2.5 72s-1 34.334 -1 41.001c-0.666992 6.66699 -0.333984 11.834 0.999023 15.501s3.66602 6.33398 6.99902 8.00098
s7.16602 2.66699 11.499 3s8.16602 0.5 11.499 0.5h8c4 0 7.66699 -0.333008 11 -1s6.33301 -2.16699 9 -4.5s4 -5.5 4 -9.5v-426c0 -12 1.83301 -24 5.5 -36s8.83398 -23.167 15.501 -33.5s15 -18.833 25 -25.5s21.333 -10 34 -10c25.333 2 47.166 15.5 65.499 40.5
s34.166 56.5 47.499 94.5s24.333 79.333 33 124s16.334 87.667 23.001 129l17.5 110c5 32 10.5 54.333 16.5 67c12.667 11.333 22.667 14.166 30 8.49902s12.833 -14.334 16.5 -26.001s5.83398 -24.334 6.50098 -38.001s0 -23.5 -2 -29.5c0 -44.667 -2.16699 -89 -6.5 -133
s-6.5 -88.667 -6.5 -134c0 -28.667 1.33301 -57.334 4 -86.001s5.66699 -57.334 9 -86.001s6.33301 -57.167 9 -85.5s4 -56.5 4 -84.5c0 -5.33301 -0.333008 -10.833 -1 -16.5s-2.16699 -10.834 -4.5 -15.501s-5.5 -8.66699 -9.5 -12s-9.66699 -5 -17 -5l-2.5 0.5
c-1.66699 0.333008 -3.16699 0.5 -4.5 0.5z" />
    <glyph glyph-name="V" unicode="V" horiz-adv-x="537" 
d="M12 582c0 8.66699 3.83398 14.167 11.501 16.5s14.834 3.5 21.501 3.5c8 0 14.5 -2.33301 19.5 -7s8.83301 -11 11.5 -19l231 -487l154 641c1.33301 4.66699 3.66602 7.83398 6.99902 9.50098s7.66602 2.5 12.999 2.5c6 0 13 -2.5 21 -7.5s11.333 -10.833 10 -17.5
l-154 -704c-5.33301 -10 -13 -14.333 -23 -13s-20 5.16602 -30 11.499s-19.5 13.5 -28.5 21.5l-20.5 18l-243 525c-0.666992 0.666992 -1 1.66699 -1 3v3z" />
    <glyph glyph-name="W" unicode="W" horiz-adv-x="900" 
d="M17 589c1.33301 3.33301 4.00195 7.17188 8.00195 11.5049s8.5 8.83301 13.5 13.5l15 13.5c5 4.33301 9.5 7.5 13.5 9.5c5.33301 -4 9.83301 -9 13.5 -15s8.16699 -16.167 13.5 -30.5s11.833 -33.833 19.5 -58.5l30.5 -99l47.5 -152.5l69.5 -217.5
c2.66699 2 7.5 12.667 14.5 32l25.5 72.5l32.5 97l34.5 108l32.5 104l26.5 85.5c2 9.33301 3.5 18.5 4.5 27.5s2.5 17.167 4.5 24.5s5.5 13.5 10.5 18.5s13.5 7.5 25.5 7.5c9.33301 4 18 -0.666992 26 -14s16.167 -32.666 24.5 -57.999s17.166 -54.833 26.499 -88.5
s19.833 -68.834 31.5 -105.501s24.667 -73.167 39 -109.5s31.166 -69.5 50.499 -99.5l141 576c1.33301 5.33301 3.83301 9.66602 7.5 12.999s8 5 13 5s10.167 -2.33301 15.5 -7s10.333 -12.334 15 -23.001l-140 -564c0 -8.66699 -1 -18.834 -3 -30.501s-4.66699 -23 -8 -34
s-7.16602 -20.5 -11.499 -28.5s-9.33301 -12.833 -15 -14.5s-11.834 0.666016 -18.501 6.99902s-13.667 18.833 -21 37.5c-37.333 66 -70.666 134.833 -99.999 206.5s-56 147.5 -80 227.5l-128 -422c-4 -29.333 -9.83301 -52.833 -17.5 -70.5s-16 -30.834 -25 -39.501
s-18.167 -14 -27.5 -16s-17.666 -2.5 -24.999 -1.5s-12.833 3 -16.5 6s-4.83398 5.16699 -3.50098 6.5c-15.333 20.667 -28.5 45.5 -39.5 74.5s-21 60.667 -30 95s-17.833 70.333 -26.5 108s-17.834 75 -27.501 112s-21.167 72.5 -34.5 106.5s-29 65 -47 93z" />
    <glyph glyph-name="X" unicode="X" horiz-adv-x="473" 
d="M354 26l-24.4971 58.9951c-9 21.333 -19 43 -30 65s-22.667 43.333 -35 64s-25.166 39 -38.499 55c-6.66699 -5.33301 -14.334 -13.666 -23.001 -24.999s-17.834 -24.166 -27.501 -38.499s-19.334 -29.833 -29.001 -46.5l-28.5 -47.5l-25.5 -42
c-7.66699 -13 -14.167 -23.167 -19.5 -30.5l-51 25c10.667 20 24.5 41.333 41.5 64s33.833 46.334 50.5 71.001s32 49.334 46 74.001s23.333 49 28 73l-128 269c-0.666992 0.666992 -1.16699 3 -1.5 7s-0.5 7.33301 -0.5 10c0 11.333 1.83301 20 5.5 26s11.5 9 23.5 9
c1.33301 0 3.5 -0.166992 6.5 -0.5s4.5 -0.833008 4.5 -1.5l128 -268l18.5 30.5l31.5 53l38 65.5l39 68l34.5 61c10.333 18.667 18.5 33 24.5 43c6.66699 0 13.834 -0.833008 21.501 -2.5s11.5 -7.83398 11.5 -18.501v-4c0 -1.33301 -0.333008 -2 -1 -2l-189 -351l151 -289
c0.666992 -1.33301 1.16699 -4.16602 1.5 -8.49902s0.5 -7.83301 0.5 -10.5c0 -3.33301 -0.166992 -7.33301 -0.5 -12s-1.5 -8.66699 -3.5 -12s-4.83301 -6 -8.5 -8s-8.83398 -2 -15.501 0c-3.33301 1.33301 -8.33301 5.33301 -15 12s-10.334 11.334 -11.001 14.001z" />
    <glyph glyph-name="Y" unicode="Y" horiz-adv-x="495" 
d="M192 25c0 24 3.66602 47.501 10.999 70.501s15.333 46.167 24 69.5s16.167 46.5 22.5 69.5s8.5 47.167 6.5 72.5l-64 69.5c-23.333 25 -46.333 51 -69 78s-43.667 55 -63 84s-35 58.5 -47 88.5c-0.666992 0.666992 -1 1.66699 -1 3v4c0 8 3 13.333 9 16s12.333 4 19 4
c17.333 -20.667 35.833 -44.167 55.5 -70.5l60.5 -78.5c20.667 -26 41.667 -50.833 63 -74.5s42.333 -43.167 63 -58.5h13c2.66699 4.66699 7.33398 16.167 14.001 34.5l24.5 65.5l30.5 84l30.5 90.5c9.66699 29.667 18 57.5 25 83.5s12.167 47.333 15.5 64
c0.666992 1.33301 2.66699 2 6 2c10 0 18.167 -4.5 24.5 -13.5s8.83301 -18.167 7.5 -27.5l-44.5 -156l-29 -99.5c-7.66699 -25.667 -14.167 -46.334 -19.5 -62.001s-10.833 -30.5 -16.5 -44.5s-11.5 -29.5 -17.5 -46.5l-24 -68l-37 -109l-55 -169.5
c-0.666992 -0 -2.5 -0.166992 -5.5 -0.5s-5.16699 -0.5 -6.5 -0.5c-17.333 0 -26 8.66699 -26 26z" />
    <glyph glyph-name="Z" unicode="Z" horiz-adv-x="687" 
d="M22 51c0 0.666992 0.834961 2.33594 2.50195 5.00293s6.83398 9.66699 15.501 21l40.5 52.5l77.5 99l125.5 160.5l185.5 238v13c-34 4 -68.833 7.16699 -104.5 9.5s-71.5 3.83301 -107.5 4.5s-71.833 0.833984 -107.5 0.500977s-69.834 -1.16602 -102.501 -2.49902
c-4.66699 3.33301 -7.5 10.166 -8.5 20.499s-1.5 17.833 -1.5 22.5c0 1.33301 12.667 2.16602 38 2.49902s57.333 0.5 96 0.5s80.5 -0.166992 125.5 -0.5s87 -0.666016 126 -0.999023s71.833 -0.666016 98.5 -0.999023s40.667 -0.5 42 -0.5l8 -43l-460 -576h37h55.5h55.5
h129c28.667 0 57.167 0.166992 85.5 0.5s56.666 1.66602 84.999 3.99902s58.5 5.16602 90.5 8.49902c6.66699 -2.66699 10.5 -6.33398 11.5 -11.001s1.5 -9.33398 1.5 -14.001v-14c0 -4 -0.666992 -8 -2 -12s-3.5 -7.16699 -6.5 -9.5s-7.16699 -3.16602 -12.5 -2.49902
c-43.333 -5.33301 -89.833 -8.83301 -139.5 -10.5s-99.5 -2.83398 -149.5 -3.50098s-99 -1.83398 -147 -3.50098s-92 -4.5 -132 -8.5c-0.666992 -0 -2.83398 -0.166992 -6.50098 -0.5s-6.16699 -0.5 -7.5 -0.5c-12.667 0 -22 5.83301 -28 17.5s-9 23.167 -9 34.5z" />
    <glyph glyph-name="bracketleft" unicode="[" horiz-adv-x="482" 
d="M26 1063l-0.000976562 3.99707c0 3.33301 -0.166992 6.5 -0.5 9.5s-0.5 5.83301 -0.5 8.5v7c0 4.66699 0.166992 9.83398 0.5 15.501s1.5 10.667 3.5 15s5.83301 7 11.5 8s13.834 -0.5 24.501 -4.5c7.33301 0.666992 18.5 1.33398 33.5 2.00098
s32.167 1.33398 51.5 2.00098s39.666 1.5 60.999 2.5s41.666 2 60.999 3s36.666 1.66699 51.999 2s26.666 0.833008 33.999 1.5c2 0 5.66699 0.166992 11 0.5s11 0.5 17 0.5h27c0 -10 -6.83301 -18.333 -20.5 -25s-31.167 -12 -52.5 -16s-44.666 -6.83301 -69.999 -8.5
s-49.5 -2.83398 -72.5 -3.50098s-43.167 -0.833984 -60.5 -0.500977s-28.666 0.833008 -33.999 1.5l-14 -13c0 -0.666992 -0.166992 -4 -0.5 -10s-0.666016 -13 -0.999023 -21l-1 -23c-0.333008 -7.33301 -0.5 -13.333 -0.5 -18c0 -60 2.5 -120 7.5 -180
s10.667 -120 17 -180l18.5 -180.5c6 -60.333 10 -120.5 12 -180.5c0.666992 -14 1.33398 -30.667 2.00098 -50s1.5 -39.333 2.5 -60s1.83301 -41.167 2.5 -61.5s1.5 -38.666 2.5 -54.999l2.5 -40.5l1 -15l12 -26c0.666992 -0.666992 4.5 -1.16699 11.5 -1.5
s12.167 -0.5 15.5 -0.5c20 0 42.667 2.33301 68 7s50.166 9.83398 74.499 15.501s46.5 11.5 66.5 17.5l46 14c8.66699 -18 10.334 -32.333 5.00098 -43s-15.333 -13.667 -30 -9l-282 -77c-4.66699 -0.666992 -9.16699 0.333008 -13.5 3s-8.33301 6.16699 -12 10.5
s-6.66699 9 -9 14s-3.5 8.83301 -3.5 11.5v256z" />
    <glyph glyph-name="backslash" unicode="\" horiz-adv-x="568" 
d="M13 998c2.66699 6.66699 5.66504 12.998 8.99805 18.998l8 13.5c2.66699 4.33301 5.66699 6.5 9 6.5c4 0 10.667 -3 20 -9s15 -11.667 17 -17l474 -972c0.666992 -1.33301 1 -3.66602 1 -6.99902v-6c0 -11.333 -2.66699 -18.666 -8 -21.999s-13.333 -5 -24 -5
c-7.33301 0 -13.666 0.333008 -18.999 1s-9.66602 5 -12.999 13l-384 845z" />
    <glyph glyph-name="bracketright" unicode="]" horiz-adv-x="525" 
d="M218 -64l191.004 51.001l13 13c0 0.666992 0.166992 2.83398 0.5 6.50098s0.666016 8 0.999023 13s0.5 9.83301 0.5 14.5v12c0 91.333 -2.5 182.333 -7.5 273l-15.5 272.5c-5.33301 91 -9.83301 182.167 -13.5 273.5s-4.83398 182.666 -3.50098 273.999
c-12 6 -20.833 9.83301 -26.5 11.5s-13.167 2.5 -22.5 2.5c-22.667 0 -45.167 -1.5 -67.5 -4.5s-44.333 -6.16699 -66 -9.5s-43.5 -6.5 -65.5 -9.5s-44 -4.5 -66 -4.5h-11c-5.33301 0 -11.166 0.166992 -17.499 0.5s-12.166 0.5 -17.499 0.5h-11
c-2 2 -4.66699 6.16699 -8 12.5s-5 10.833 -5 13.5c0 7.33301 4.16699 13.166 12.5 17.499s19.333 7.83301 33 10.5s28.334 4.66699 44.001 6s31.167 2.33301 46.5 3s29.166 1 41.499 1s21.166 0.333008 26.499 1c10 0.666992 23.333 1.66699 40 3l54.5 4.5
c19.667 1.66699 39.667 2.83398 60 3.50098s38.5 1 54.5 1h14c6 0 11.667 -0.666992 17 -2s9.66602 -3.66602 12.999 -6.99902s5 -8.33301 5 -15c-5.33301 -28 -9.33301 -64.333 -12 -109s-4 -94.834 -4 -150.501s1.16699 -114.667 3.5 -177s5 -125.333 8 -189
s6.33301 -126.167 10 -187.5s7.5 -118.333 11.5 -171s7.83301 -99.334 11.5 -140.001l8.5 -95c0 -6 -5.5 -11.667 -16.5 -17s-25 -10.166 -42 -14.499s-35.833 -8.5 -56.5 -12.5s-40.334 -7.33301 -59.001 -10s-35 -4.83398 -49 -6.50098s-23.333 -2.5 -28 -2.5
c-7.33301 0 -15.333 2.83301 -24 8.5s-15.334 11.5 -20.001 17.5z" />
    <glyph glyph-name="asciicircum" unicode="^" 
d="M28 694c0 1.33301 0.165039 2.83203 0.498047 4.49902s0.5 2.83398 0.5 3.50098l127 237c0.666992 2.66699 4.33398 6 11.001 10s13.667 6 21 6c0.666992 0 1.66699 -0.166992 3 -0.5l2 -0.5l164 -191c13.333 -2.66699 21.166 -6 23.499 -10s3.5 -9.33301 3.5 -16
c0 -2.66699 -0.5 -6.16699 -1.5 -10.5s-2.83301 -8.33301 -5.5 -12s-6.16699 -6.83398 -10.5 -9.50098s-9.83301 -4 -16.5 -4h-4c-0.666992 0 -1 0.333008 -1 1l-140 175c-3.33301 6 -9.66602 9 -18.999 9h-5l-114 -199c-0.666992 -1.33301 -2.66699 -3 -6 -5
s-5.66602 -3 -6.99902 -3c-12 0 -19.333 1.33301 -22 4s-4 6.33398 -4 11.001z" />
    <glyph glyph-name="underscore" unicode="_" horiz-adv-x="627" 
d="M13 39c0 1.33301 7.49902 4.49902 22.499 9.49902s35.333 11 61 18l90.5 24c34.667 9 72.5 18.333 113.5 28l128 30l134.5 30.5c0.666992 0.666992 2.66699 1 6 1h8c11.333 0 18.5 -3.16699 21.5 -9.5s4.5 -14.5 4.5 -24.5c0 -8 -2.66699 -14.5 -8 -19.5
s-15.166 -9.83301 -29.499 -14.5s-34 -9.5 -59 -14.5l-97.5 -20l-144.5 -31c-56.333 -12.333 -122.833 -27.833 -199.5 -46.5h-7c-4 0 -8.83301 0.833008 -14.5 2.5s-11 4.33398 -16 8.00098s-9 8 -12 13s-3.83301 10.167 -2.5 15.5z" />
    <glyph glyph-name="grave" unicode="`" horiz-adv-x="159" 
d="M98 605l-23.002 24.5c-8.66699 9 -17.167 18.667 -25.5 29s-15.666 20.666 -21.999 30.999s-9.83301 19.5 -10.5 27.5v7c0 8.66699 1.83301 16.334 5.5 23.001s10.167 10 19.5 10l41 -47c13.333 -16 23.833 -31.167 31.5 -45.5s10.834 -26.833 9.50098 -37.5
s-10 -18 -26 -22z" />
    <glyph glyph-name="a" unicode="a" horiz-adv-x="375" 
d="M310 26c-3.33301 17.333 -6.16406 38.1631 -8.49707 62.4961s-4.83301 49 -7.5 74s-5.83398 48.5 -9.50098 70.5s-9.16699 40 -16.5 54c-34 -69.333 -64 -123.833 -90 -163.5s-48.833 -68 -68.5 -85s-36.167 -25.167 -49.5 -24.5s-24.333 6.66699 -33 18
s-14.834 25.833 -18.501 43.5s-6.16699 34.167 -7.5 49.5c0 14.667 3.33301 35.334 10 62.001s15.667 55.834 27 87.501s24.833 63.834 40.5 96.501s32.5 62.334 50.5 89.001s36.667 48.667 56 66s38.666 26 57.999 26c28.667 4.66699 49.834 -1.5 63.501 -18.5
s16.167 -45.5 7.5 -85.5c0 -44 1.83301 -81.667 5.5 -113s7.66699 -61.333 12 -90s8.33301 -58.667 12 -90s5.5 -69 5.5 -113c0 -8 -0.833008 -14.833 -2.5 -20.5s-9.83398 -8.5 -24.501 -8.5c-2 0 -4.5 1.66699 -7.5 5s-4.5 6 -4.5 8zM256.002 472.997
c-7.33301 10.667 -17.333 11.6699 -30 3.00293s-26 -23 -40 -43s-28.333 -44 -43 -72s-28.334 -56.333 -41.001 -85s-23.667 -55.834 -33 -81.501s-15.666 -46.834 -18.999 -63.501c0 -24 3.66699 -37.5 11 -40.5s16.333 0.833008 27 11.5s22.834 26 36.501 46
s27 41.333 40 64l37 66c11.667 21.333 20.834 38.666 27.501 51.999c6 14 10.667 27 14 39s6.16602 23.5 8.49902 34.5s3.66602 22.167 3.99902 33.5s0.5 23.333 0.5 36z" />
    <glyph glyph-name="b" unicode="b" horiz-adv-x="453" 
d="M42 7c-3.33301 52.667 -4.49707 108.667 -3.49707 168s2.5 123.333 4.5 192s3.83301 143.167 5.5 223.5s1.83398 168.166 0.500977 263.499c7.33301 0 15 0.5 23 1.5s15.167 1.16699 21.5 0.5s11.666 -2.66699 15.999 -6s6.5 -9.33301 6.5 -18
c0 -24.667 -0.833008 -53.167 -2.5 -85.5s-3.83398 -67.666 -6.50098 -105.999s-4.83398 -79.5 -6.50098 -123.5s-2.5 -90.333 -2.5 -139c23.333 30.667 45 55.667 65 75s39 34.833 57 46.5s35.667 19 53 22s34.333 3.83301 51 2.5c19.333 0 35.166 -5.33301 47.499 -16
s21.833 -24 28.5 -40s11.334 -33.833 14.001 -53.5s4 -38.834 4 -57.501c0 -13.333 -0.833008 -27.5 -2.5 -42.5s-5.5 -31.5 -11.5 -49.5s-15.167 -36.5 -27.5 -55.5s-29.5 -39.167 -51.5 -60.5s-49.833 -43.333 -83.5 -66s-74.5 -46 -122.5 -70
c-16 -4.66699 -28.833 -7.5 -38.5 -8.5s-17.334 -1.33301 -23.001 -1s-9.66699 0.833008 -12 1.5s-3.5 1.33398 -3.5 2.00098zM85.0029 67c3.33301 2 12.3359 6.50098 27.0029 13.501s32 16.167 52 27.5s41.667 25 65 41s44.833 34.667 64.5 56s36.5 45.333 50.5 72
s22.333 56 25 88c0 9.33301 -1.33301 19.333 -4 30s-6.83398 20.667 -12.501 30s-12.834 17.166 -21.501 23.499s-19 9.5 -31 9.5c-24.667 0 -47.834 -6.66699 -69.501 -20s-41.5 -30 -59.5 -50s-34 -41.5 -48 -64.5s-25.333 -44.167 -34 -63.5z" />
    <glyph glyph-name="c" unicode="c" 
d="M26 230c2 24 4.00488 50.165 6.00488 78.498s5.16699 56.5 9.5 84.5s10 54.667 17 80s16.333 47.833 28 67.5s26.167 35.334 43.5 47.001s38.333 17.167 63 16.5c16.667 0 29.5 -7 38.5 -21s15.333 -31 19 -51s5.66699 -40.5 6 -61.5s0.5 -38.167 0.5 -51.5
c-13.333 0 -24.333 5.83301 -33 17.5s-15.334 25.167 -20.001 40.5s-8 30.333 -10 45l-3 29c-0.666992 0 -1.83398 0.166992 -3.50098 0.5s-2.83398 0.5 -3.50098 0.5c-11.333 0 -21.833 -6.33301 -31.5 -19s-18.667 -28.834 -27 -48.501s-15.5 -41.667 -21.5 -66
s-11 -48.166 -15 -71.499s-7.16699 -44.833 -9.5 -64.5s-3.5 -34.834 -3.5 -45.501c-1.33301 -17.333 -1.33301 -36.333 0 -57s5.33301 -40 12 -58s16 -33.5 28 -46.5s28 -21.833 48 -26.5c24.667 0 44.667 3.33301 60 10s27.833 15.667 37.5 27s17.167 24 22.5 38
s10.5 28.5 15.5 43.5l15.5 44.5c5.33301 14.667 13 28.334 23 41.001c8 2 13.833 1.83301 17.5 -0.5s6.16699 -5.5 7.5 -9.5s2 -8.66699 2 -14v-11c0 -28 -4.66699 -55 -14 -81s-23 -49.167 -41 -69.5s-39.5 -36.666 -64.5 -48.999s-53.5 -18.5 -85.5 -18.5
c-26.667 0 -48.834 8.5 -66.501 25.5s-31.334 37.5 -41.001 61.5s-16.5 49.167 -20.5 75.5s-6 48.833 -6 67.5z" />
    <glyph glyph-name="d" unicode="d" horiz-adv-x="324" 
d="M245 183c-6.66699 -15.333 -15.1699 -33.0049 -25.5029 -53.0049s-22.333 -39 -36 -57s-29.5 -33.333 -47.5 -46s-38 -19 -60 -19c-10 0 -17.833 1.16699 -23.5 3.5s-10.667 5.83301 -15 10.5s-8.33301 10.334 -12 17.001s-8.16699 14 -13.5 22
c-2 32.667 -3.16699 67.834 -3.5 105.501s1.5 75.334 5.5 113.001s10.833 73.167 20.5 106.5s23.334 61.666 41.001 84.999s39.834 40 66.501 50s59 10.667 97 2c2 18.667 2.33301 43.667 1 75s-3.33301 64.333 -6 99l-8 100.5
c-2.66699 32.333 -4.33398 58.833 -5.00098 79.5c0 6 2.83301 10.5 8.5 13.5s11.834 4.83301 18.501 5.5s13.167 0.666992 19.5 0s10.5 -1.66699 12.5 -3c-1.33301 -82 -1.66602 -162.5 -0.999023 -241.5s1.5 -157.667 2.5 -236s2.16699 -156.166 3.5 -233.499
s2 -154.666 2 -231.999c0 -7.33301 -0.5 -15.166 -1.5 -23.499s-6.83301 -12.5 -17.5 -12.5c-4 0 -8 1.16699 -12 3.5s-6.66699 5.83301 -8 10.5zM201.997 472.995c-20.667 1.33301 -39.8389 -6.83496 -57.5059 -24.502s-33 -40.5 -46 -68.5s-23.5 -58.833 -31.5 -92.5
s-12.833 -66 -14.5 -97s0.333008 -58.5 6 -82.5s15.834 -40.333 30.501 -49c14.667 0 28.334 5.83301 41.001 17.5s24.334 26.5 35.001 44.5s20 38.167 28 60.5s14.833 43.833 20.5 64.5s10 39.5 13 56.5s4.5 29.833 4.5 38.5c0 6.66699 0.333008 17.334 1 32.001
s0.333984 29.334 -0.999023 44.001s-4.16602 27.667 -8.49902 39s-11.166 17 -20.499 17z" />
    <glyph glyph-name="e" unicode="e" horiz-adv-x="473" 
d="M55 216l-15.0039 -3.00098c-6.66699 -1.33301 -13.667 -1.66602 -21 -0.999023s-13.833 2.66699 -19.5 6s-8.5 9 -8.5 17c0 4.66699 1 8 3 10s5.33301 5 10 9c14.667 12 27.167 27.5 37.5 46.5s19.833 39.333 28.5 61s17.834 43.334 27.501 65.001
s20.834 41.167 33.501 58.5s28.334 31.333 47.001 42s41.667 15.667 69 15c11.333 0 24 -2.66699 38 -8s27 -12.5 39 -21.5s22 -19.833 30 -32.5s12 -26.667 12 -42c3.33301 -5.33301 0.166016 -13 -9.50098 -23s-22.834 -20.833 -39.501 -32.5s-35.5 -23.667 -56.5 -36
l-60.5 -34.5l-51 -28c-14.667 -8 -24.334 -14 -29.001 -18c-3.33301 -6.66699 -6 -14.334 -8 -23.001s-3.5 -16.834 -4.5 -24.501s-1.66699 -14.667 -2 -21s-0.5 -11.166 -0.5 -14.499c0 -12.667 -0.5 -26.667 -1.5 -42s-0.333008 -29.833 2 -43.5s7.83301 -25 16.5 -34
s23.334 -13.5 44.001 -13.5c22 0 42.667 5.5 62 16.5s37.333 24.5 54 40.5s31.834 33.333 45.501 52l37 52.5c11 16.333 20.833 29.833 29.5 40.5s16 16 22 16c6.66699 0 13.834 -1.16699 21.501 -3.5s11.5 -7.83301 11.5 -16.5c0 -12 -4.83301 -26.333 -14.5 -43
s-22.334 -34.334 -38.001 -53.001s-33.667 -37.167 -54 -55.5s-40.833 -34.666 -61.5 -48.999s-41 -26 -61 -35s-37.667 -13.5 -53 -13.5c-30 0 -52.667 7.33301 -68 22s-26.166 33 -32.499 55s-9.66602 45.5 -9.99902 70.5s-0.833008 48.167 -1.5 69.5zM238.996 485.999
c-11.333 0 -23.333 -5.5 -36 -16.5s-24.5 -24.333 -35.5 -40s-20 -31.667 -27 -48s-10.5 -29.833 -10.5 -40.5c10 0 24.5 3.83301 43.5 11.5s37.833 17.167 56.5 28.5s35 23.333 49 36s21 24.667 21 36c0 6 -2.33301 11 -7 15s-10.167 7.33301 -16.5 10
s-12.833 4.66699 -19.5 6s-12.667 2 -18 2z" />
    <glyph glyph-name="f" unicode="f" horiz-adv-x="354" 
d="M105 369c-2.66699 0 -6.66895 -1.16602 -12.002 -3.49902s-10.833 -5 -16.5 -8l-16.5 -8.5c-5.33301 -2.66699 -10 -4 -14 -4c-6.66699 0 -12.5 1.33301 -17.5 4s-7.5 8 -7.5 16c0 6.66699 3.16699 13 9.5 19s13.833 12 22.5 18s17.334 11.667 26.001 17
s15 10.666 19 15.999c-1.33301 10.667 -2.33301 30.667 -3 60s-0.5 62.833 0.5 100.5s3.33301 76.5 7 116.5s9.33398 75.833 17.001 107.5s17.834 56.5 30.501 74.5s29 23.667 49 17c14 0 26.667 -4.16699 38 -12.5s21 -18.666 29 -30.999s14.167 -25.833 18.5 -40.5
s6.5 -28 6.5 -40c0 -6.66699 -1.5 -13.834 -4.5 -21.501s-8.5 -11.5 -16.5 -11.5h-3c-0.666992 0 -1.33398 0.333008 -2.00098 1c-16 40.667 -29.5 66.5 -40.5 77.5s-20.333 11.167 -28 0.5s-14 -29.667 -19 -57s-9.16699 -58.833 -12.5 -94.5s-6.33301 -73.334 -9 -113.001
s-5.33398 -76.5 -8.00098 -110.5c13.333 3.33301 24.5 6.66602 33.5 9.99902s17.167 6.83301 24.5 10.5s14 7.33398 20 11.001s12.667 6.83398 20 9.50098c14 6.66699 29.5 13.167 46.5 19.5s33.5 9.5 49.5 9.5c0 -19.333 -3.5 -35.333 -10.5 -48s-16 -23 -27 -31
s-23.5 -13.833 -37.5 -17.5s-28.167 -6.83398 -42.5 -9.50098s-27.833 -5.33398 -40.5 -8.00098s-23.667 -6 -33 -10c2 -43.333 4.83301 -81.333 8.5 -114l10 -87c3 -25.333 5.33301 -48.5 7 -69.5s1.5 -41.833 -0.5 -62.5c0 -4.66699 0.166992 -11.167 0.5 -19.5
s0 -16.5 -1 -24.5s-3.5 -14.833 -7.5 -20.5s-10.333 -8.5 -19 -8.5c-8 0 -14 1.83301 -18 5.5s-6.66699 11.167 -8 22.5c-4 54 -7.16699 99.833 -9.5 137.5s-4.16602 69.334 -5.49902 95.001s-2 45.834 -2 60.501v46c0 2.66699 -0.333008 4 -1 4z" />
    <glyph glyph-name="g" unicode="g" horiz-adv-x="448" 
d="M95 -391c58.667 3.33301 104.832 18.666 138.499 45.999s58.834 62.666 75.501 105.999s26.667 92.833 30 148.5s3.66602 113.167 0.999023 172.5s-6.5 118.833 -11.5 178.5s-7.16699 115.167 -6.5 166.5c-28.667 -84 -55.667 -151.833 -81 -203.5
s-48.833 -90.667 -70.5 -117s-41.334 -42.333 -59.001 -48s-33.167 -4.66699 -46.5 3s-24.166 20 -32.499 37s-14.166 34.5 -17.499 52.5c1.33301 30.667 7.5 64.5 18.5 101.5s25.333 73.333 43 109s38.167 69 61.5 100s48 55.333 74 73s53 27 81 28s55 -9.83301 81 -32.5
c0.666992 -0.666992 1.83398 -9.5 3.50098 -26.5s3.66699 -39.333 6 -67l8 -93c3 -34.333 5.83301 -69 8.5 -104s5 -68.5 7 -100.5s4 -59.667 6 -83c2.66699 -38 1.16699 -78.333 -4.5 -121s-14.5 -84.167 -26.5 -124.5s-27.167 -78.166 -45.5 -113.499
s-39.333 -64.333 -63 -87s-50 -37.167 -79 -43.5s-59.833 -1.16602 -92.5 15.501c-2 0 -5 0.166992 -9 0.5s-7.16699 1.5 -9.5 3.5s-2.83301 4.66699 -1.5 8s5.66602 8.33301 12.999 15zM66.998 158c6.66699 -20.667 15.5 -31.167 26.5 -31.5s22.833 6.66699 35.5 21
s26.5 34.5 41.5 60.5s29.833 54.333 44.5 85l43.5 94.5l40.5 90.5c0 7.33301 -1.66699 14.166 -5 20.499s-10.666 8.16602 -21.999 5.49902c-18.667 -4 -36.834 -13 -54.501 -27s-34 -31.167 -49 -51.5s-28.667 -42.666 -41 -66.999s-23 -48.666 -32 -72.999
s-16 -47.5 -21 -69.5s-7.5 -41.333 -7.5 -58z" />
    <glyph glyph-name="h" unicode="h" horiz-adv-x="478" 
d="M385 437c-24.667 9.33301 -48.3301 5.66895 -70.9971 -10.998s-44.334 -40.167 -65.001 -70.5s-40.334 -64.833 -59.001 -103.5l-52 -110c-16 -34.667 -30.5 -64.334 -43.5 -89.001s-24.833 -38.334 -35.5 -41.001c-8 0 -14.167 1.5 -18.5 4.5s-6.5 10.5 -6.5 22.5v703
c0 6 2.5 9.66699 7.5 11s10.5 1.66602 16.5 0.999023s11.667 -2.16699 17 -4.5s8.66602 -4.83301 9.99902 -7.5l13 -563c7.33301 12 14.166 28.833 20.499 50.5s13.833 45 22.5 70s18.834 50 30.501 75s26.167 47.5 43.5 67.5s38.5 35.5 63.5 46.5s54.5 14.833 88.5 11.5
c22.667 0 41 -7.16699 55 -21.5s21.333 -33.166 22 -56.499l10 -399c0 -2.66699 -0.5 -6.5 -1.5 -11.5s-3.66699 -9.33301 -8 -13s-10.333 -6 -18 -7s-17.5 0.833008 -29.5 5.5z" />
    <glyph glyph-name="i" unicode="i" horiz-adv-x="136" 
d="M42 20c0 43.333 -0.833008 89.001 -2.5 137.001l-5 145.5c-1.66699 49 -2.16699 97.167 -1.5 144.5s3.66699 91.666 9 132.999c1.33301 0.666992 4.5 1.16699 9.5 1.5s8.5 0.5 10.5 0.5c9.33301 0 16.833 -1.5 22.5 -4.5s8.5 -9.5 8.5 -19.5
c0 -39.333 -0.166992 -82.166 -0.5 -128.499l-1 -141c-0.333008 -47.667 -0.5 -94.834 -0.5 -141.501s0.666992 -89 2 -127c0.666992 -11.333 -1.5 -18.833 -6.5 -22.5s-11.167 -5.5 -18.5 -5.5c-8 0 -14.667 1.83301 -20 5.5s-7.33301 11.167 -6 22.5zM20 736.001
c0 8 2.66699 13.332 8 15.999s11.333 4 18 4c13.333 0 21.666 -4.33301 24.999 -13s5 -18.667 5 -30c-4 -7.33301 -9 -12.5 -15 -15.5s-12.167 -3.66699 -18.5 -2s-11.666 5.83398 -15.999 12.501s-6.5 16 -6.5 28z" />
    <glyph glyph-name="j" unicode="j" horiz-adv-x="115" 
d="M-176 -214c0 12.667 2.49707 19.501 7.49707 20.501s11.5 -1.5 19.5 -7.5s17.333 -14 28 -24l32 -31c10.667 -10.667 20.834 -19.667 30.501 -27s18.167 -11.333 25.5 -12c12.667 0 23.5 3.83301 32.5 11.5s16.833 17.834 23.5 30.501s12.167 26.834 16.5 42.501
s7.66602 31 9.99902 46s4 29 5 42s1.5 23.833 1.5 32.5c-1.33301 50.667 -4.16602 101 -8.49902 151s-8.16602 99.667 -11.499 149s-6 99.166 -8 149.499s-1.33301 101.166 2 152.499c2.66699 6.66699 6.33398 10.667 11.001 12s9.33398 2 14.001 2
c6 0 11.167 -0.666992 15.5 -2s7.83301 -5.33301 10.5 -12c-2.66699 -56 -2.66699 -109.5 0 -160.5s6 -101.333 10 -151l11.5 -149.5c3.66699 -50 5.5 -102 5.5 -156c0 -8 -0.833008 -19.333 -2.5 -34s-4.16699 -30.834 -7.5 -48.501s-7.83301 -35.834 -13.5 -54.501
s-12.334 -35.667 -20.001 -51s-16.5 -28 -26.5 -38s-21.333 -15 -34 -15c-12 0 -28 4.33301 -48 13s-39.667 19.167 -59 31.5s-36.333 26.333 -51 42s-22 30.834 -22 45.501zM29.9971 787.001c0 3.33301 1.49805 7 4.49805 11s6.33301 7.66699 10 11
s7.83398 5.83301 12.501 7.5s8.33398 2.5 11.001 2.5c6.66699 0 10.667 -3.33301 12 -10s2 -11.667 2 -15c0 -18 -9 -27 -27 -27c-6.66699 0 -12.5 1.5 -17.5 4.5s-7.5 8.16699 -7.5 15.5z" />
    <glyph glyph-name="k" unicode="k" horiz-adv-x="439" 
d="M55 768c14 13.333 25.166 18.665 33.499 15.998s14.5 -11.667 18.5 -27s6.33301 -35.333 7 -60s0.5 -52.5 -0.5 -83.5s-2.83301 -63.667 -5.5 -98s-5 -68 -7 -101s-3.33301 -64.5 -4 -94.5s0.333008 -56 3 -78h3c1.33301 0 2.33301 0.333008 3 1
c34.667 34.667 65.667 71.334 93 110.001s52 75.167 74 109.5l58.5 89.5c17 25.333 32.833 42.666 47.5 51.999c10 0 18.5 -1.66699 25.5 -5s10.5 -11 10.5 -23c0 -1.33301 -0.166992 -3.5 -0.5 -6.5s-0.5 -5.16699 -0.5 -6.5c-16.667 -34 -35 -68.167 -55 -102.5
s-41.667 -67.5 -65 -99.5s-48.5 -62.333 -75.5 -91s-56.167 -54.667 -87.5 -78c0 -0.666992 -0.166992 -1.83398 -0.5 -3.50098s-0.5 -2.83398 -0.5 -3.50098c0 -6.66699 5.5 -14 16.5 -22s25 -15.667 42 -23s36 -14.666 57 -21.999s41.667 -13.666 62 -18.999
s39.333 -9.66602 57 -12.999s31.5 -5 41.5 -5c0 -2.66699 0.166992 -7.66699 0.5 -15s-0.166992 -15 -1.5 -23s-3.66602 -15.167 -6.99902 -21.5s-8.66602 -9.5 -15.999 -9.5h-4c-1.33301 0 -2.33301 0.333008 -3 1l-286 115
c-0.666992 -39.333 -3.33398 -71.166 -8.00098 -95.499s-10.167 -42.333 -16.5 -54s-13 -17.167 -20 -16.5s-13.167 6 -18.5 16z" />
    <glyph glyph-name="l" unicode="l" horiz-adv-x="141" 
d="M47 51c4.66699 30.667 7.83008 69.001 9.49707 115.001s2.33398 95 2.00098 147s-1.5 105.667 -3.5 161s-4.66699 107.833 -8 157.5s-7.16602 94.167 -11.499 133.5s-8.83301 70.333 -13.5 93c6 4 11.167 7.16699 15.5 9.5s9.5 3.5 15.5 3.5
c4.66699 0 8.66699 -0.833008 12 -2.5s6 -5.16699 8 -10.5c13.333 -130.667 22.5 -262.334 27.5 -395.001s8.83301 -264.667 11.5 -396v-24.5c0 -10.333 -0.333008 -15.833 -1 -16.5c-9.33301 -4.66699 -17.666 -6.83398 -24.999 -6.50098s-14 2.33301 -20 6
s-10.667 7.83398 -14 12.501s-5 9 -5 13z" />
    <glyph glyph-name="m" unicode="m" horiz-adv-x="593" 
d="M66 3c-2 18.667 -3.67188 43.999 -5.00488 75.999s-2.66602 66.833 -3.99902 104.5s-2.83301 76.834 -4.5 117.501s-3.5 79.334 -5.5 116.001s-4.5 70 -7.5 100s-6.16699 54 -9.5 72c0 13.333 3 21.166 9 23.499s13.667 3.5 23 3.5h9c4.66699 0 8 -0.333008 10 -1
c6 -20 9.83301 -45.833 11.5 -77.5s3 -66.167 4 -103.5l3 -116c1 -40 3.16699 -78 6.5 -114l23.5 131c6.33301 34.667 12.333 62.5 18 83.5s11 36.667 16 47s10.667 17.166 17 20.499s13.333 4.83301 21 4.5s16.834 -0.5 27.501 -0.5c12 0 21.833 -4.66699 29.5 -14
s13.667 -21.333 18 -36s7.66602 -30.667 9.99902 -48s4.5 -34.166 6.5 -50.499s4.16699 -31.166 6.5 -44.499s6.16602 -22.666 11.499 -27.999c16.667 49.333 31 89.666 43 120.999s22.333 56.166 31 74.499s16.334 31.5 23.001 39.5s12.667 12.833 18 14.5
s10.166 1.83398 14.499 0.500977s8.83301 -2 13.5 -2c18 0 31.667 -9.33301 41 -28c10.667 -30 18 -58.5 22 -85.5s6.33301 -53 7 -78s0.833984 -48.833 0.500977 -71.5s0.333984 -44.667 2.00098 -66s5.33398 -42.333 11.001 -63s15.5 -41 29.5 -61
c-5.33301 -10.667 -10.666 -17.834 -15.999 -21.501s-12.666 -5.5 -21.999 -5.5c-8 0 -15 2.83301 -21 8.5s-11 12.667 -15 21s-7.16699 16.833 -9.5 25.5s-4.5 16.334 -6.5 23.001c-2.66699 95.333 -6.83398 168.5 -12.501 219.5s-14.167 77.833 -25.5 80.5
s-25.833 -19.5 -43.5 -66.5s-39.5 -120.5 -65.5 -220.5c-2 -3.33301 -5 -5.33301 -9 -6s-8.16699 -1 -12.5 -1s-8.66602 0.166992 -12.999 0.5s-8.5 0.166016 -12.5 -0.500977c-16.667 98 -30.5 168.5 -41.5 211.5s-22.167 59.5 -33.5 49.5s-24 -45.833 -38 -107.5
s-32 -148.167 -54 -259.5z" />
    <glyph glyph-name="n" unicode="n" horiz-adv-x="495" 
d="M68 13c-7.33301 90 -13.832 180.167 -19.499 270.5l-18.5 281.5c0 16 8.66699 24 26 24h8c2 0 4.33301 -2.66699 7 -8s5.5 -15.166 8.5 -29.499s6.33301 -36 10 -65s8.16699 -66.833 13.5 -113.5s11.333 -105 18 -175c14 45.333 25 89.333 33 132s18.333 81.5 31 116.5
s30.5 65.833 53.5 92.5s56.167 46.334 99.5 59.001c24 -4 43.333 -18.5 58 -43.5s26.334 -55.833 35.001 -92.5s14.667 -76.5 18 -119.5s5.33301 -84.167 6 -123.5s1 -74.5 1 -105.5s0.666992 -53.167 2 -66.5c-2 -5.33301 -5 -10 -9 -14s-8.5 -6.83301 -13.5 -8.5
s-9.83301 -2 -14.5 -1s-9 4.5 -13 10.5c0 7.33301 -0.666992 22.333 -2 45s-3 49.167 -5 79.5l-6.5 97c-2.33301 34.333 -4.33301 66.666 -6 96.999l-4.5 79.5c-1.33301 22.667 -2.33301 37.667 -3 45c-14 24.667 -27.833 38.667 -41.5 42s-27.334 -1 -41.001 -13
s-26.834 -30.333 -39.501 -55s-24.667 -52.5 -36 -83.5s-22 -63.5 -32 -97.5s-18.667 -66.833 -26 -98.5s-13.5 -60.334 -18.5 -86.001s-8.16699 -45.5 -9.5 -59.5c-2 -4.66699 -6.16699 -9.16699 -12.5 -13.5s-13 -7.5 -20 -9.5s-14 -2.5 -21 -1.5
s-12.167 4.83301 -15.5 11.5z" />
    <glyph glyph-name="o" unicode="o" horiz-adv-x="273" 
d="M25 137c-4.66699 30.667 -7 60.5059 -7 89.5059s1.83301 58.5 5.5 88.5s9 61.167 16 93.5s15.167 67.166 24.5 104.499c0 7.33301 2 14.166 6 20.499s9.33301 11.666 16 15.999s13.667 7.83301 21 10.5s14.333 4 21 4c14.667 0 28 -4.66699 40 -14
s22.833 -20.666 32.5 -33.999s18 -27.5 25 -42.5l17.5 -38.5c5.33301 -23.333 9.16602 -49.833 11.499 -79.5s2.5 -59.834 0.5 -90.501s-6.66699 -60.834 -14 -90.501s-17.666 -56.834 -30.999 -81.501s-30.5 -45.334 -51.5 -62.001s-45.833 -27 -74.5 -31
c-15.333 0 -27 5.16699 -35 15.5s-13.833 23 -17.5 38s-5.66699 30.167 -6 45.5s-0.5 28 -0.5 38zM76 140.006c0 -6.66699 0.165039 -12.999 0.498047 -18.999s1 -11.833 2 -17.5s2.33301 -11.667 4 -18s3.83398 -13.5 6.50098 -21.5h6c16 0 29.667 5.33301 41 16
s21 24.5 29 41.5s14.667 36 20 57s9.5 41.667 12.5 62s5 39.333 6 57s1.5 31.834 1.5 42.501v20c0 8.66699 -0.333008 18.5 -1 29.5s-1.83398 22.333 -3.50098 34s-4.16699 22.334 -7.5 32.001s-7.66602 17.5 -12.999 23.5s-12.333 9 -21 9
c-14.667 4.66699 -27.167 3.66699 -37.5 -3s-18.666 -17.834 -24.999 -33.501s-11.166 -34.834 -14.499 -57.501s-5.33301 -47.667 -6 -75s-0.833984 -56.333 -0.500977 -87s0.5 -61.334 0.5 -92.001z" />
    <glyph glyph-name="p" unicode="p" horiz-adv-x="494" 
d="M29 -263c7.33301 70 11.4971 136.492 12.4971 199.492s0.666992 125.167 -1 186.5s-4.16699 123.333 -7.5 186s-5.33301 129 -6 199c2 9.33301 4.5 16.5 7.5 21.5s11.167 6.16699 24.5 3.5c14 -3.33301 22.333 -11.166 25 -23.499s3.33398 -26.166 2.00098 -41.499
s-3.33301 -30.666 -6 -45.999s-2.66699 -27.666 0 -36.999l68 48c24 16.667 49 31.5 75 44.5s53 22.667 81 29s56 6.5 84 0.5c34.667 -8 58.834 -19.833 72.501 -35.5s19 -33.667 16 -54s-12.5 -42.666 -28.5 -66.999s-35.667 -48.833 -59 -73.5s-49.333 -49 -78 -73
s-56.667 -46.167 -84 -66.5s-52.833 -38.166 -76.5 -53.499s-42.5 -26.666 -56.5 -33.999c-0.666992 -8 -1.5 -20.5 -2.5 -37.5s-2 -36.167 -3 -57.5l-3 -67l-3 -67c-1 -21.333 -2 -40.333 -3 -57s-1.5 -29 -1.5 -37
c-1.33301 -0.666992 -3.66602 -1.33398 -6.99902 -2.00098s-7.33301 -1.16699 -12 -1.5s-9 -0.666016 -13 -0.999023s-6.66699 -0.166016 -8 0.500977c-2 0 -4 1.83301 -6 5.5s-3 6.5 -3 8.5zM84.9971 284.992c-2 -9.33301 -2.50195 -20.833 -1.50195 -34.5
s2.33301 -28 4 -43s3.5 -29.5 5.5 -43.5s3.33301 -26 4 -36c25.333 19.333 54.833 39 88.5 59s66.334 41.667 98.001 65s59.834 49.333 84.501 78s41 61 49 97c2.66699 14 1.5 23.5 -3.5 28.5s-13.5 8.5 -25.5 10.5c-25.333 5.33301 -54.333 3.5 -87 -5.5
s-64.167 -22.167 -94.5 -39.5s-56.833 -38 -79.5 -62s-36.667 -48.667 -42 -74z" />
    <glyph glyph-name="q" unicode="q" horiz-adv-x="418" 
d="M303 256c-2.66699 -18.667 -6.33301 -39.999 -11 -63.999s-13.5 -47 -26.5 -69s-32 -41.167 -57 -57.5s-59.833 -25.5 -104.5 -27.5c-30 0 -51.333 8.66699 -64 26s-19 41 -19 71c0 18.667 3.16699 40 9.5 64s15 48.5 26 73.5s24.167 49.5 39.5 73.5s32 45.5 50 64.5
s37 34.333 57 46s40.667 17.5 62 17.5c26 0 44.333 -6.33301 55 -19s17.667 -32 21 -58l93 -678h-54c-1.33301 2 -3.16602 10.667 -5.49902 26s-5 35 -8 59l-10 81l-11.5 92.5l-11.5 94.5c-3.66699 31.333 -7.33398 59.666 -11.001 84.999s-7.16699 46.833 -10.5 64.5
s-6.33301 29.167 -9 34.5zM72.001 127.001c0 -14.667 1.83203 -24.8311 5.49902 -30.498s13.167 -8.5 28.5 -8.5c20 -7.33301 38.667 -6.5 56 2.5s32.833 23.333 46.5 43s25.834 42.667 36.501 69s19.5 53.333 26.5 81s12 54 15 79s4.16699 46.167 3.5 63.5
c-31.333 0 -60.333 -10.333 -87 -31s-49.667 -46.334 -69 -77.001s-34.5 -63.334 -45.5 -98.001s-16.5 -65.667 -16.5 -93z" />
    <glyph glyph-name="r" unicode="r" horiz-adv-x="406" 
d="M26 482l-0.00195312 7.99805c0 6.66699 2.5 11.334 7.5 14.001s10.833 4 17.5 4c5.33301 0 10.333 -0.5 15 -1.5s8.33398 -4.83301 11.001 -11.5c2 -10 4 -23.833 6 -41.5s4.33301 -37.167 7 -58.5l8.5 -67.5c3 -23.667 6 -46 9 -67s6.16699 -39.833 9.5 -56.5
s7 -29.334 11 -38.001c-2 64 0 119.5 6 166.5s17.5 85.333 34.5 115s40.333 50.334 70 62.001s66.834 14.167 111.501 7.5c20.667 0 31 -11 31 -33c0 -8.66699 -5.66699 -14.5 -17 -17.5s-24 -5 -38 -6s-27.667 -2.16699 -41 -3.5s-23 -4.66602 -29 -9.99902
c-24 -13.333 -40.833 -34 -50.5 -62s-16.5 -61 -20.5 -99s-6.83301 -79.5 -8.5 -124.5s-6.16699 -91.167 -13.5 -138.5c0 -6.66699 -2.66699 -11.667 -8 -15s-11.833 -5 -19.5 -5s-15 1.66699 -22 5s-12.5 8.33301 -16.5 15z" />
    <glyph glyph-name="s" unicode="s" horiz-adv-x="375" 
d="M105 15c0 -0.666992 7.16504 3.33301 21.498 12s31.333 20.167 51 34.5s39.834 30 60.501 47s37.667 33.167 51 48.5s20.5 28.5 21.5 39.5s-8.16699 18.167 -27.5 21.5c-24 3.33301 -44.167 3 -60.5 -1s-31.166 -8.66699 -44.499 -14l-37.5 -15
c-11.667 -4.66699 -24.5 -6.33398 -38.5 -5.00098c-29.333 0 -49.5 9.16699 -60.5 27.5s-16.5 43.166 -16.5 74.499s7 61.166 21 89.499s32 52.833 54 73.5s47.333 37.167 76 49.5s58 18.5 88 18.5c12 0 22.333 -1 31 -3s13 -9.66699 13 -23
c0 -9.33301 -4 -18.166 -12 -26.499s-17 -12.5 -27 -12.5c-0.666992 0 -2.33398 0.5 -5.00098 1.5s-5.33398 2.5 -8.00098 4.5s-5.33398 3.5 -8.00098 4.5s-4.33398 1.5 -5.00098 1.5c-21.333 6 -42 3 -62 -9s-37.833 -28.167 -53.5 -48.5s-28.167 -42.333 -37.5 -66
s-14 -44.834 -14 -63.501c0 -7.33301 1.5 -13.166 4.5 -17.499s7 -7.5 12 -9.5s10.667 -3.16699 17 -3.5s12.833 -0.5 19.5 -0.5c13.333 0 26.833 2 40.5 6s27 8.66699 40 14s26.333 10 40 14s27.834 6 42.501 6c6.66699 0 14 -1.83301 22 -5.5s15.333 -9 22 -16
s12.334 -15 17.001 -24s7.33398 -18.833 8.00098 -29.5c4 -9.33301 2.83301 -21.666 -3.5 -36.999s-15.833 -31.666 -28.5 -48.999s-28 -34.833 -46 -52.5s-36 -33.667 -54 -48s-35.667 -26 -53 -35s-32 -13.167 -44 -12.5c-13.333 0 -21.166 4 -23.499 12s-3.5 17 -3.5 27z
" />
    <glyph glyph-name="t" unicode="t" horiz-adv-x="275" 
d="M53 427c-6.66699 -3.33301 -12.834 -6.83008 -18.501 -10.4971s-11.167 -7 -16.5 -10s-10.666 -5.16699 -15.999 -6.5s-11 -1.33301 -17 0c-4 0 -7.33301 2.5 -10 7.5s-4.83398 10.667 -6.50098 17s-2.83398 12.666 -3.50098 18.999s-0.666992 11.166 0 14.499l96 55
l6 256c1.33301 8.66699 6.66602 12.167 15.999 10.5s19 -3.83398 29 -6.50098c1.33301 0 3.5 -0.5 6.5 -1.5s5.16699 -1.83301 6.5 -2.5l-4.5 -58.5c-1.66699 -21 -3.16699 -42 -4.5 -63s-2.16602 -41.5 -2.49902 -61.5s0.5 -38 2.5 -54l150 42
c2.66699 0.666992 4.83398 -1.16602 6.50098 -5.49902s3.33398 -9.5 5.00098 -15.5s2.83398 -12 3.50098 -18l1 -9l-170 -72c0 -6 0.5 -20.333 1.5 -43l3.5 -80.5c1.33301 -31 2.66602 -64.333 3.99902 -100s2.66602 -68.834 3.99902 -99.501s2.33301 -57.5 3 -80.5
s1 -37.5 1 -43.5c-1.33301 -20 -7.16602 -30 -17.499 -30s-21.5 5 -33.5 15z" />
    <glyph glyph-name="u" unicode="u" horiz-adv-x="397" 
d="M280 116c-2.66699 -8 -9.16309 -18.8291 -19.4961 -32.4961s-22.5 -27.334 -36.5 -41.001s-28.5 -25.667 -43.5 -36s-28.167 -15.5 -39.5 -15.5c-21.333 0 -38.833 10 -52.5 30s-24.167 45.667 -31.5 77s-12.333 66.166 -15 104.499s-4.33398 75.833 -5.00098 112.5
s-1 70 -1 100s-1 52.667 -3 68c2.66699 6.66699 6.16699 10.667 10.5 12s9.5 2 15.5 2c5.33301 0 10.166 -0.666992 14.499 -2s8.16602 -5.33301 11.499 -12c0 -7.33301 0.166992 -19.666 0.5 -36.999s1.16602 -36.833 2.49902 -58.5l4 -68
c1.33301 -23.667 2.5 -46.167 3.5 -67.5s2 -40.5 3 -57.5s1.83301 -29.5 2.5 -37.5c0.666992 -4.66699 1.5 -12.334 2.5 -23.001s2.66699 -21.834 5 -33.501s5.33301 -22.167 9 -31.5s8.5 -14.333 14.5 -15c10 0 20.167 4.33301 30.5 13s20.5 19.667 30.5 33
s19.333 28 28 44s16.5 31.5 23.5 46.5s12.333 28.5 16 40.5s5.83398 20.667 6.50098 26c1.33301 11.333 2.66602 27.5 3.99902 48.5s2.33301 43.5 3 67.5s1.16699 46.667 1.5 68s0.5 37.666 0.5 48.999l55 -3c0.666992 -54 0.333984 -102.833 -0.999023 -146.5
s-1.66602 -84.667 -0.999023 -123s3.66699 -75.5 9 -111.5s15 -73.333 29 -112c-2 -2 -6 -4.83301 -12 -8.5s-10.333 -5.5 -13 -5.5c-16.667 0 -27.834 5.5 -33.501 16.5s-9.33398 24 -11.001 39s-3 30 -4 45s-5.5 26.833 -13.5 35.5z" />
    <glyph glyph-name="v" unicode="v" horiz-adv-x="363" 
d="M13 409c0 0.666992 -0.166016 1.83105 -0.499023 3.49805s-0.5 2.83398 -0.5 3.50098c0 10 4 15.833 12 17.5s15.333 2.5 22 2.5c7.33301 0 15.666 -6.16699 24.999 -18.5s19.833 -28.666 31.5 -48.999s23.667 -42.5 36 -66.5l38 -70.5c13 -23 26.333 -43.833 40 -62.5
s26.834 -32.334 39.501 -41.001c4 60.667 7 112.334 9 155.001s3.5 78.667 4.5 108s1.5 52.5 1.5 69.5s-0.166992 30.167 -0.5 39.5s-0.666016 15.5 -0.999023 18.5s-0.5 5.16699 -0.5 6.5c0 12 2.16699 19.333 6.5 22s10.166 4 17.499 4c8.66699 0 17.667 -1.33301 27 -4
s14 -9.33398 14 -20.001c2 -43.333 2.16699 -87.166 0.5 -131.499s-4.16699 -88.333 -7.5 -132s-6 -86.5 -8 -128.5s-2 -82.667 0 -122c-1.33301 -1.33301 -4.33301 -2.83301 -9 -4.5s-9.66699 -3.16699 -15 -4.5s-10.5 -2.33301 -15.5 -3s-8.5 -1 -10.5 -1
c-6.66699 1.33301 -17 10.5 -31 27.5s-29.667 38.5 -47 64.5s-35.333 55 -54 87l-53.5 93c-17 30 -31.833 57.333 -44.5 82s-21.334 43 -26.001 55z" />
    <glyph glyph-name="w" unicode="w" horiz-adv-x="580" 
d="M196 26c-3.33301 10 -9 25.668 -17 47.001l-27 72l-32 85l-32 85l-27 72l-18 48c-4 6 -7.5 12.833 -10.5 20.5s-4.5 15.334 -4.5 23.001s1.66699 14.5 5 20.5s8.66602 10.333 15.999 13c7.33301 0 13.833 -2.5 19.5 -7.5s9.83398 -10.833 12.501 -17.5l115 -295
c0.666992 9.33301 2.33398 26.166 5.00098 50.499s5.33398 50.166 8.00098 77.499l7.5 77.5c2.33301 24.333 4.16602 41.166 5.49902 50.499c0.666992 6.66699 1.33398 14.334 2.00098 23.001s2.16699 17 4.5 25s6 15 11 21s12.167 9 21.5 9
c6.66699 0 11.5 -0.666992 14.5 -2s6.5 -5.33301 10.5 -12l192 -328v338c19.333 0 32.833 -4.83301 40.5 -14.5s12.334 -21.5 14.001 -35.5s1.5 -29 -0.5 -45s-2.66699 -30.333 -2 -43c0 -4.66699 0.333008 -14.667 1 -30s1.5 -33 2.5 -53s1.83301 -41.5 2.5 -64.5
s1.5 -44.5 2.5 -64.5s1.83301 -37.667 2.5 -53s1 -25.333 1 -30c4.66699 -13.333 4.5 -22.166 -0.5 -26.499s-11.833 -5.83301 -20.5 -4.5s-17.334 5 -26.001 11s-14.334 12.667 -17.001 20l-204 346c-4.66699 -100.667 -9.33398 -184.667 -14.001 -252s-9 -124 -13 -170
c-2 -7.33301 -5.33301 -11.333 -10 -12s-9.5 0.166016 -14.5 2.49902s-9.83301 5.83301 -14.5 10.5z" />
    <glyph glyph-name="x" unicode="x" horiz-adv-x="465" 
d="M172 -62c-9.33301 -9.33301 -18.166 -13.667 -26.499 -13s-15 4 -20 10s-8.33301 14 -10 24s0.166016 20 5.49902 30l64 269c-11.333 13.333 -25.833 28 -43.5 44l-52 49c-17 16.667 -32.5 33.5 -46.5 50.5s-22.667 33.167 -26 48.5c0 17.333 9 26 27 26
c11.333 2 20.5 1 27.5 -3s13.167 -9.83301 18.5 -17.5s10.833 -17.167 16.5 -28.5s12.667 -23 21 -35s19 -24.167 32 -36.5s29.833 -23.5 50.5 -33.5c4 11.333 7.66699 29.5 11 54.5s6.16602 51.667 8.49902 80s4.16602 56.5 5.49902 84.5s2 51 2 69
c2 2.66699 6.16699 4.83398 12.5 6.50098s13.166 2.33398 20.499 2.00098s14 -1.66602 20 -3.99902s9.66699 -5.83301 11 -10.5c3.33301 -28.667 2.83301 -56.834 -1.5 -84.501s-9.66602 -55.334 -15.999 -83.001s-12.166 -55.167 -17.499 -82.5s-6.66602 -55 -3.99902 -83
l178 -179c0.666992 -0.666992 1.66699 -3.33398 3 -8.00098s2 -8 2 -10c0 -4 -0.333008 -8 -1 -12s-2.16699 -7.83301 -4.5 -11.5s-5.33301 -6.5 -9 -8.5s-8.5 -2.66699 -14.5 -2l-32.5 34.5l-42.5 43c-15.333 15 -31 29.5 -47 43.5s-31.333 25 -46 33h-5l-1 1
c-3.33301 0 -6.33301 -1.83301 -9 -5.5s-6.16699 -14 -10.5 -31s-10.333 -42.667 -18 -77z" />
    <glyph glyph-name="y" unicode="y" horiz-adv-x="372" 
d="M283 4l-258.002 413c-0.666992 0.666992 -1.33398 3.16699 -2.00098 7.5s-1 7.83301 -1 10.5c0 8.66699 1.5 16.167 4.5 22.5s10.833 9.5 23.5 9.5c2.66699 0 7.33398 -1.5 14.001 -4.5s10.667 -5.83301 12 -8.5c14.667 -23.333 29.834 -49.333 45.501 -78l49 -86
c17 -28.667 34.833 -56.167 53.5 -82.5s38.334 -48.833 59.001 -67.5l24 392c0.666992 0 2.5 0.166992 5.5 0.5s5.16699 0.5 6.5 0.5c6 0 12 -0.833008 18 -2.5s10.333 -6.16699 13 -13.5c0.666992 -24 0.833984 -53.667 0.500977 -89s-1 -71.666 -2 -108.999l-3 -107.5
c-1 -34.333 -1.83301 -61.833 -2.5 -82.5c-0.666992 -13.333 -1.83398 -33.333 -3.50098 -60s-3.66699 -56.834 -6 -90.501s-5 -69.167 -8 -106.5l-8.5 -106l-7 -90.5c-2 -27 -3.66699 -46.5 -5 -58.5h-52z" />
    <glyph glyph-name="z" unicode="z" horiz-adv-x="633" 
d="M162 -10c-3.33301 15.333 -2.17285 35.167 3.49414 59.5s13.834 50.833 24.501 79.5s23.167 58.334 37.5 89.001l42 87.5l36.5 75.5c10.667 22.667 18 40.667 22 54c0 0.666992 0.166992 1.5 0.5 2.5s0.5 2.16699 0.5 3.5s-0.166992 2.66602 -0.5 3.99902
s-0.5 2.33301 -0.5 3l-61.5 -24.5l-67.5 -26c-22.667 -8.33301 -44.834 -16 -66.501 -23s-41.5 -12.5 -59.5 -16.5c-2.66699 -2 -7.33398 -1.33301 -14.001 2s-13 7.83301 -19 13.5s-10.167 11.667 -12.5 18s-0.166016 12.166 6.50098 17.499c22 0 48 4.5 78 13.5
s60.5 19.5 91.5 31.5l91 35.5c29.667 11.667 55.834 19.834 78.501 24.501c22 0 33 -11 33 -33c0 -24 -4.16699 -47.5 -12.5 -70.5s-18.666 -45.5 -30.999 -67.5s-25.666 -43.667 -39.999 -65s-27.666 -43 -39.999 -65s-22.833 -44.333 -31.5 -67s-13 -46 -13 -70v-12
l366 75h7c9.33301 0 17.833 -2.83301 25.5 -8.5s13.334 -12 17.001 -19s3.83398 -14.167 0.500977 -21.5s-11.666 -12.666 -24.999 -15.999c-2.66699 0 -5.5 -0.333008 -8.5 -1s-9.33301 -1.83398 -19 -3.50098l-42.5 -7c-18.667 -3 -44.834 -7.5 -78.501 -13.5l-128 -23.5z
" />
    <glyph glyph-name="braceleft" unicode="{" horiz-adv-x="357" 
d="M276 -49c2.66699 -2.66699 3.50293 -5.66895 2.50293 -9.00195s-3 -6.83301 -6 -10.5s-6.5 -7 -10.5 -10s-7 -5.5 -9 -7.5c-16.667 2 -37.167 4.83301 -61.5 8.5s-48.666 12.834 -72.999 27.501s-46.5 37.667 -66.5 69s-33.667 75.333 -41 132c0 40.667 0.5 74 1.5 100
s4.5 46.167 10.5 60.5s15.167 23.5 27.5 27.5s29.833 4.33301 52.5 1c9.33301 -1.33301 14 2.66699 14 12s-3.16699 20.166 -9.5 32.499s-14.5 24.166 -24.5 35.499s-20.333 19 -31 23c-18 12.667 -27.833 24 -29.5 34s1.16602 17.833 8.49902 23.5
s17.666 9.33398 30.999 11.001s26.333 0.5 39 -3.5c11.333 4 20.5 8 27.5 12s11.333 9 13 15s0.5 14 -3.5 24s-11.667 23.667 -23 41c-20.667 32 -33 62.5 -37 91.5s-1.5 55.333 7.5 79s23.167 43.834 42.5 60.501s41.333 28 66 34s51 5.83301 79 -0.5
s55 -20.166 81 -41.499c0 -9.33301 -3.16699 -17.833 -9.5 -25.5s-13.833 -11.5 -22.5 -11.5c-0.666992 0 -1.5 0.166992 -2.5 0.5s-1.83301 0.5 -2.5 0.5c-6.66699 18 -18 30 -34 36s-33 7 -51 3s-35.5 -12.5 -52.5 -25.5s-30.167 -29.167 -39.5 -48.5
s-13 -41.166 -11 -65.499s13 -50.166 33 -77.499c24.667 -32.667 38.5 -57.667 41.5 -75s-4.16699 -29.333 -21.5 -36l-13 -6c-8 -2.66699 -16.833 -6 -26.5 -10l-27.5 -11l-12 -6c2 -7.33301 6.66699 -16.166 14 -26.499s15 -20.166 23 -29.499l22.5 -25.5
c7 -7.66699 11.167 -12.834 12.5 -15.501c7.33301 -14.667 9.16602 -26.5 5.49902 -35.5s-10.834 -16.833 -21.501 -23.5s-22.667 -13.334 -36 -20.001s-25.5 -15.167 -36.5 -25.5s-19.333 -23.5 -25 -39.5s-5.83398 -37.333 -0.500977 -64c0 -26 4.66699 -48.833 14 -68.5
s21 -36.334 35 -50.001s29.667 -25.167 47 -34.5s33.833 -17.333 49.5 -24s29.834 -12.334 42.501 -17.001s21.667 -9.66699 27 -15z" />
    <glyph glyph-name="bar" unicode="|" horiz-adv-x="141" 
d="M47 51c4.66699 30.667 7.83008 69.001 9.49707 115.001s2.33398 95 2.00098 147s-1.5 105.667 -3.5 161s-4.66699 107.833 -8 157.5s-7.16602 94.167 -11.499 133.5s-8.83301 70.333 -13.5 93c6 4 11.167 7.16699 15.5 9.5s9.5 3.5 15.5 3.5
c4.66699 0 8.66699 -0.833008 12 -2.5s6 -5.16699 8 -10.5c13.333 -130.667 22.5 -262.334 27.5 -395.001s8.83301 -264.667 11.5 -396v-24.5c0 -10.333 -0.333008 -15.833 -1 -16.5c-9.33301 -4.66699 -17.666 -6.83398 -24.999 -6.50098s-14 2.33301 -20 6
s-10.667 7.83398 -14 12.501s-5 9 -5 13z" />
    <glyph glyph-name="braceright" unicode="}" horiz-adv-x="357" 
d="M66 -76c4.66699 5.33301 12.9951 10.5039 24.9951 15.5039l40.5 17.5c15 6.66699 30.667 14.667 47 24s31.333 21 45 35s24.834 30.667 33.501 50s13 42.666 13 69.999c4.66699 26 4.33398 47.333 -0.999023 64s-13.333 30.167 -24 40.5s-22.167 18.666 -34.5 24.999
s-23.333 12.833 -33 19.5s-16.667 14.334 -21 23.001s-2.83301 20.667 4.5 36c1.33301 2.66699 5.5 8 12.5 16l22 26c7.66699 9.33301 14.834 19.166 21.501 29.499s10.667 19.5 12 27.5l-11 5c-8 4 -16.667 7.83301 -26 11.5l-26 10.5l-10 5
c-16.667 6.66699 -23.667 18.834 -21 36.501s16 42.834 40 75.501c18 26.667 28 52.5 30 77.5s-1.33301 47.167 -10 66.5s-21.167 35.833 -37.5 49.5s-33 22.667 -50 27s-33 3.33301 -48 -3s-25.5 -18.833 -31.5 -37.5c-0.666992 0 -1.66699 -0.166992 -3 -0.5
s-2.33301 -0.5 -3 -0.5c-7.33301 0 -14 3.66699 -20 11s-9 16.333 -9 27c24.667 20.667 50.167 34.167 76.5 40.5s51.166 6.33301 74.499 0s44.166 -17.666 62.499 -33.999s31.666 -36.333 39.999 -60s10.666 -50.5 6.99902 -80.5s-15.167 -60.667 -34.5 -92
c-11.333 -17.333 -18.833 -31.166 -22.5 -41.499s-4.66699 -18.5 -3 -24.5s5.83398 -10.833 12.501 -14.5s15.334 -7.5 26.001 -11.5c11.333 4 23.333 5.16699 36 3.5s22.5 -5.5 29.5 -11.5s9.5 -14.167 7.5 -24.5s-11.333 -21.833 -28 -34.5
c-10 -2.66699 -19.667 -9.83398 -29 -21.501s-16.833 -23.834 -22.5 -36.501s-8.66699 -23.667 -9 -33s3.83398 -13.333 12.501 -12c21.333 3.33301 37.833 3.16602 49.5 -0.500977s20.334 -12.834 26.001 -27.501s9.16699 -35 10.5 -61s2 -59.667 2 -101
c-4.66699 -38.667 -12.167 -71 -22.5 -97s-22.166 -47.667 -35.499 -65s-27.666 -30.833 -42.999 -40.5s-30.833 -17 -46.5 -22s-30.667 -8.33301 -45 -10s-26.5 -3.16699 -36.5 -4.5c-2 2 -4.83301 4.66699 -8.5 8s-7 6.66602 -10 9.99902s-5.16699 6.66602 -6.5 9.99902
s-0.333008 6.33301 3 9z" />
    <glyph glyph-name="asciitilde" unicode="~" horiz-adv-x="470" 
d="M377 711c9.33301 2.66699 18.168 4.16797 26.501 4.50098s14.166 -5.5 17.499 -17.5c4 -10 2.83301 -21.167 -3.5 -33.5s-15.333 -24.666 -27 -36.999s-24.334 -23.666 -38.001 -33.999s-26.5 -18.5 -38.5 -24.5c-10 -2.66699 -19.833 -3.33398 -29.5 -2.00098
s-18.667 3.83301 -27 7.5s-15.333 8.16699 -21 13.5s-9.5 11 -11.5 17c-8.66699 4.66699 -14.834 11.667 -18.501 21s-7.66699 18.5 -12 27.5s-9.5 16.667 -15.5 23s-15.333 9.16602 -28 8.49902c-14 0 -24 -3.33301 -30 -10s-11 -14.667 -15 -24l-12.5 -28.5
c-4.33301 -9.66699 -10.833 -17.834 -19.5 -24.501c-6.66699 -2 -12.167 -2.5 -16.5 -1.5s-7.66602 2.83301 -9.99902 5.5s-4.16602 6.16699 -5.49902 10.5l-4 13.5c1.33301 20.667 6.5 38 15.5 52s20 25.167 33 33.5s27.333 14 43 17s30.667 3.83301 45 2.5
s27.5 -4.66602 39.5 -9.99902s20.667 -12.666 26 -21.999c9.33301 -30.667 18.5 -51.167 27.5 -61.5s17.833 -14.833 26.5 -13.5s17 7.16602 25 17.499s15.5 21 22.5 32s13.5 20.667 19.5 29s11.333 11.166 16 8.49902z" />
    <glyph glyph-name="nonbreakingspace" unicode="&#xa0;" horiz-adv-x="461" 
 />
    <glyph glyph-name="exclamdown" unicode="&#xa1;" horiz-adv-x="141" 
d="M26.8105 137.222c0 -47.0068 1.15918 -93.6299 3.48242 -139.871c2.32324 -46.2402 5.22754 -93.8857 8.71289 -142.937c1.74219 -4.08789 3.77539 -6.77051 6.09863 -8.04785s5.51758 -1.91602 9.58301 -1.91602c5.80762 0 9.87305 1.40527 12.1963 4.21582
c2.32324 2.80957 3.9209 6.00293 4.79297 9.58008c0.871094 3.57715 1.16113 7.53711 0.871094 11.8799s-0.435547 8.04688 -0.435547 11.1123v234.524c0 9.19727 0.871094 18.9053 2.61328 29.124l5.22754 30.6562c2.32324 10.2197 3.91992 19.7998 4.79102 28.7412
c0.87207 8.94141 0.146484 16.4775 -2.17676 22.6094c-1.16113 5.62012 -4.50098 10.4736 -10.0186 14.5605c-5.51758 4.08789 -11.4707 6.13184 -17.8604 6.13184c-10.4541 0 -17.7139 -4.59863 -21.7793 -13.7959s-6.53418 -19.9268 -7.40527 -32.1895
s-0.871094 -24.5254 0 -36.7881s1.30664 -21.46 1.30664 -27.5908zM81.6943 493.606v-12.2617c0 -2.55566 0.290039 -5.23828 0.871094 -8.04785c0.581055 -2.81055 1.74316 -5.2373 3.48633 -7.28125c1.74219 -2.04395 4.35547 -3.06543 7.84082 -3.06543
c11.6162 0 18.4404 2.42676 20.4736 7.28125c2.03223 4.85352 3.04883 10.6016 3.04883 17.2441c0 7.15332 -1.0166 13.0293 -3.04883 17.6279c-2.0332 4.59863 -8.85742 6.89746 -20.4736 6.89746c-3.48535 0 -6.09863 -1.02148 -7.84082 -3.06543
c-1.74316 -2.04395 -2.90527 -4.4707 -3.48633 -7.28125c-0.581055 -2.80957 -0.871094 -5.49219 -0.871094 -8.04785z" />
    <glyph glyph-name="cent" unicode="&#xa2;" horiz-adv-x="404" 
d="M182 -59c1.33301 9.33301 2.33594 19.1699 3.00293 29.5029s1.66699 20.833 3 31.5c-4.66699 -1.33301 -9.33398 -2 -14.001 -2h-14c-26.667 0 -48.834 8.5 -66.501 25.5s-31.334 37.5 -41.001 61.5s-16.5 49.167 -20.5 75.5s-6 48.833 -6 67.5l9 112.5
c3.33301 40.333 9.66602 78.666 18.999 114.999s22.833 67.833 40.5 94.5s41.5 43 71.5 49c-4.66699 42 -10 76 -16 102c6 4 11.333 7.16699 16 9.5s10 3.5 16 3.5c4.66699 0 8.66699 -0.833008 12 -2.5s6 -5.16699 8 -10.5c1.33301 -19.333 3 -38 5 -56
s3.33301 -35.333 4 -52c13.333 -6.66699 27.833 -15.334 43.5 -26.001s29 -22.667 40 -36s18 -26.833 21 -40.5s-1.16699 -26.5 -12.5 -38.5c-8 0 -16.167 3 -24.5 9s-16.5 13.5 -24.5 22.5s-15.5 18 -22.5 27s-13.167 16.5 -18.5 22.5
c2 -35.333 3.66699 -70.666 5 -105.999l4 -110c1.33301 -38 2.33301 -77.5 3 -118.5s1.66699 -84.5 3 -130.5v-10c18.667 8.66699 32.5 20.667 41.5 36s16.5 32.166 22.5 50.499l18 55c6 18.333 15.333 35.5 28 51.5c8 2 13.833 1.83301 17.5 -0.5s6.16699 -5.5 7.5 -9.5
s2 -8.66699 2 -14v-11c0 -22 -3 -43.667 -9 -65s-14.667 -41 -26 -59s-25.166 -34 -41.499 -48s-34.833 -25 -55.5 -33c2 -16 3.66699 -30.833 5 -44.5s2 -20.834 2 -21.501c-17.333 -10 -31.333 -15.5 -42 -16.5s-16 2.5 -16 10.5zM164.003 49.0039
c4.66699 0 9.16699 0.168945 13.5 0.501953s8.83301 0.833008 13.5 1.5c1.33301 36.667 1.83301 76.5 1.5 119.5s-1.5 86.167 -3.5 129.5s-4.5 86.333 -7.5 129s-6.16699 82.667 -9.5 120c-10 -4 -19.5 -13.333 -28.5 -28s-17 -31.834 -24 -51.501
s-13.167 -40.834 -18.5 -63.501s-9.83301 -45 -13.5 -67s-6.5 -42 -8.5 -60s-3 -32 -3 -42c-1.33301 -17.333 -1.33301 -36.333 0 -57s5.33301 -40 12 -58s16 -33.5 28 -46.5s28 -21.833 48 -26.5z" />
    <glyph glyph-name="sterling" unicode="&#xa3;" horiz-adv-x="552" 
d="M13 383c0 1.33301 0.171875 4.50293 0.504883 9.50293s0.833008 8.16699 1.5 9.5c10.667 1.33301 27.5 3.66602 50.5 6.99902s48.5 6.66602 76.5 9.99902c10 40.667 24 77 42 109s38.667 59.333 62 82s48.666 40.167 75.999 52.5s54.333 18.5 81 18.5c16 0 30 -3 42 -9
s21.833 -14 29.5 -24s13.334 -21.667 17.001 -35s5.5 -27.333 5.5 -42c-12 0 -21.667 3 -29 9s-14 12.667 -20 20s-12.333 14.166 -19 20.499s-15 9.5 -25 9.5c-19.333 0 -39.5 -4.33301 -60.5 -13s-41 -21.667 -60 -39s-36.333 -38.833 -52 -64.5
s-27.834 -54.834 -36.501 -87.501c25.333 2.66699 48.5 5.33398 69.5 8.00098s36.167 4.66699 45.5 6c0.666992 0 3.83398 0.166992 9.50098 0.5l17.5 1c6 0.333008 11.667 0.666016 17 0.999023s8.66602 0.5 9.99902 0.5c0 -8 -5.5 -15.667 -16.5 -23s-25 -14 -42 -20
s-36.333 -11.667 -58 -17s-43.167 -10 -64.5 -14l-20 -132c2 -22.667 1.83301 -46 -0.5 -70s-3.83301 -45.333 -4.5 -64s0.333008 -33.334 3 -44.001s9.66699 -13.667 21 -9c6.66699 2.66699 14.667 7.66699 24 15s20.5 15 33.5 23s27.833 15.333 44.5 22
s35.167 10.834 55.5 12.501s43 -0.166016 68 -5.49902s52.167 -16 81.5 -32c16 -1.33301 26.833 -5 32.5 -11s6.66699 -12.667 3 -20s-11.834 -14.166 -24.501 -20.499s-29 -9.83301 -49 -10.5c-4.66699 11.333 -12.834 21.166 -24.501 29.499s-28.334 12.833 -50.001 13.5
s-49 -3.66602 -82 -12.999s-72.833 -27 -119.5 -53c-6 -5.33301 -12.333 -9.5 -19 -12.5s-13.167 -3 -19.5 0s-12 10 -17 21s-8.83301 27.5 -11.5 49.5s-3.5 50.5 -2.5 85.5s4.16699 78.5 9.5 130.5c0.666992 7.33301 1.5 14.166 2.5 20.499l3 19
c1 6.33301 2.33301 13.166 4 20.499s3.5 16 5.5 26c-19.333 -3.33301 -36.333 -5.66602 -51 -6.99902s-25.334 -2 -32.001 -2c-22.667 0 -34 10.667 -34 32z" />
    <glyph glyph-name="currency" unicode="&#xa4;" horiz-adv-x="512" 
d="M84 89c-12 -5.33301 -21.666 -6.33105 -28.999 -2.99805s-12.333 8.83301 -15 16.5s-3 16.334 -1 26.001s7 18.5 15 26.5l91 134c-9.33301 35.333 -14.833 68.333 -16.5 99s4.16602 62 17.499 94c-10.667 21.333 -19 42 -25 62s-8.33301 38 -7 54
c6.66699 16.667 18 21.667 34 15c16.667 -3.33301 27 -11 31 -23s7.33301 -26.667 10 -44c18.667 18 43 30.667 73 38c28 -5.33301 50 -15.333 66 -30l27.5 64.5l20.5 51.5c3.33301 2 8.16602 2.5 14.499 1.5s12.833 -2.83301 19.5 -5.5s12.5 -6 17.5 -10
s7.16699 -8.33301 6.5 -13c-6.66699 -28.667 -16.834 -55 -30.501 -79s-28.167 -47.667 -43.5 -71c4.66699 -18.667 7.5 -38.5 8.5 -59.5s2.5 -41.833 4.5 -62.5c0 -20 -0.666992 -42.333 -2 -67s-8.33301 -51.334 -21 -80.001l32 -75v-7.5
c0 -4.33301 -0.666992 -7.83301 -2 -10.5c-1.33301 -3.33301 -3 -6.83301 -5 -10.5s-4.66699 -6.83398 -8 -9.50098s-7.16602 -4.33398 -11.499 -5.00098s-9.16602 1 -14.499 5c-4 8.66699 -8.66699 19.5 -14 32.5l-18 42.5c-8.66699 -7.33301 -18.167 -13 -28.5 -17
s-22.5 -6 -36.5 -6c-28 -12 -53.333 7 -76 57l-35.5 -56zM180.001 404.002c0.666992 -45.333 3.49609 -81 8.49609 -107s11.5 -44.5 19.5 -55.5s16.833 -16 26.5 -15s19.334 5.33301 29.001 13s18.834 17.834 27.501 30.501s16 25.334 22 38.001s10 23.667 12 33
s1.66699 14.666 -1 15.999c0 19.333 -0.166992 37.333 -0.5 54s-2.16602 31.667 -5.49902 45s-8.66602 25.166 -15.999 35.499s-18.333 18.833 -33 25.5c-12 0 -23.5 -3.5 -34.5 -10.5s-20.667 -16 -29 -27s-14.833 -22.5 -19.5 -34.5s-7 -23.667 -7 -35v-3
c0 -1.33301 0.333008 -2.33301 1 -3z" />
    <glyph glyph-name="yen" unicode="&#xa5;" horiz-adv-x="490" 
d="M94 782l0.00195312 3.00391v3c2 5.33301 4.5 8.83301 7.5 10.5s6.33301 2.5 10 2.5s7.5 -0.5 11.5 -1.5s7.33301 -2.16699 10 -3.5c10.667 -3.33301 20.5 -12.666 29.5 -27.999s18.167 -33.5 27.5 -54.5l30.5 -66.5c11 -23.333 23.167 -44.666 36.5 -63.999
c23.333 56 42.5 100.333 57.5 133s26.667 57.167 35 73.5s14.333 26.166 18 29.499s5.83398 4 6.50098 2s0.666992 -5.16699 0 -9.5s-1 -5.83301 -1 -4.5c4.66699 11.333 9.33398 17.666 14.001 18.999s10.667 0.333008 18 -3c8.66699 -2.66699 16.667 -6.5 24 -11.5
s9.66602 -12.833 6.99902 -23.5c-12.667 -26 -24.834 -49 -36.501 -69l-32.5 -54l-28 -45.5c-8.66699 -14.333 -16.667 -29.333 -24 -45s-14 -33.167 -20 -52.5s-11 -42 -15 -68l-1 -7c0 -4 -0.166992 -9.33301 -0.5 -16s-0.5 -14 -0.5 -22v-24
c21.333 3.33301 40 5.66602 56 6.99902s28 2.66602 36 3.99902c1.33301 0 4.66602 0.166992 9.99902 0.5s11 0.666016 17 0.999023s11.667 0.666016 17 0.999023s8.66602 0.5 9.99902 0.5c8.66699 -12 10.5 -22.667 5.5 -32s-14.667 -17.5 -29 -24.5
s-32.333 -12.833 -54 -17.5s-44.5 -8.66699 -68.5 -12v-54c15.333 1.33301 30.166 2.16602 44.499 2.49902s29.166 -0.5 44.499 -2.5c18.667 -2 30.834 -5.16699 36.501 -9.5s7.16699 -8.83301 4.5 -13.5s-8 -9.33398 -16 -14.001s-16.333 -8.33398 -25 -11.001
c-10 3.33301 -22.667 5 -38 5s-32.333 -1 -51 -3c0 -25.333 -0.166992 -50 -0.5 -74s-0.666016 -45 -0.999023 -63s-0.833008 -32.167 -1.5 -42.5s-1.66699 -15.5 -3 -15.5l-54 -6l4 194c-19.333 -2.66699 -38.833 -5.5 -58.5 -8.5s-37.334 -4.83301 -53.001 -5.5
s-29 0 -40 2s-18.167 6.33301 -21.5 13c0 2.66699 1.66699 7.16699 5 13.5s6 10.5 8 12.5c32.667 2 62 4.83301 88 8.5s50.333 7.5 73 11.5l1 56c-22 -2 -43.167 -3.16699 -63.5 -3.5s-38.166 0.166992 -53.499 1.5c-22.667 0 -34 10.667 -34 32
c0 1.33301 0.333008 4.33301 1 9s1.33398 8 2.00098 10c5.33301 0.666992 13 1.83398 23 3.50098s21.833 3.33398 35.5 5.00098l44 5.5l47.5 6l2 81c-6 10.667 -13.5 25.167 -22.5 43.5l-28 60l-29 67c-9.66699 23 -18.334 44.667 -26.001 65l-20 54
c-5.66699 15.667 -8.5 26.834 -8.5 33.501z" />
    <glyph glyph-name="brokenbar" unicode="&#xa6;" horiz-adv-x="141" 
d="M53 533l-6.5 94.999c-2.33301 32.667 -4.83301 63.834 -7.5 93.501s-5.5 56.5 -8.5 80.5s-5.83301 42.667 -8.5 56c6 4 11.167 7.16699 15.5 9.5s9.5 3.5 15.5 3.5c4.66699 0 8.66699 -0.833008 12 -2.5s6 -5.16699 8 -10.5l6.5 -76l7 -84.5
c2.33301 -29 4.33301 -57.333 6 -85l4.5 -77.5zM101 469.999c2 -43.333 3.66602 -80.832 4.99902 -112.499s2.33301 -62 3 -91s1.16699 -59 1.5 -90s0.833008 -67.5 1.5 -109.5v-24.5c0 -10.333 -0.333008 -15.833 -1 -16.5
c-9.33301 -4.66699 -17.666 -6.83398 -24.999 -6.50098s-14 2.33301 -20 6s-10.667 7.83398 -14 12.501s-5 9 -5 13c4 28.667 7.16699 57.667 9.5 87s4 60.666 5 93.999s1 69.5 0 108.5s-2.5 82.167 -4.5 129.5h44z" />
    <glyph glyph-name="section" unicode="&#xa7;" horiz-adv-x="375" 
d="M105 15c0 -0.666992 7.16602 3.33496 21.499 12.002s31.333 20.167 51 34.5s39.834 30 60.501 47s37.667 33.167 51 48.5s20.5 28.5 21.5 39.5s-8.16699 18.167 -27.5 21.5c-24 3.33301 -44.167 3 -60.5 -1s-31.166 -8.66699 -44.499 -14l-37.5 -15
c-11.667 -4.66699 -24.5 -6.33398 -38.5 -5.00098c-29.333 0 -49.5 9.16699 -60.5 27.5s-16.5 43.166 -16.5 74.499c0 27.333 5 53 15 77s23.667 45.667 41 65c-24.667 3.33301 -41.5 14 -50.5 32s-13.5 41.667 -13.5 71c0 31.333 6.83301 61 20.5 89s31.667 52.5 54 73.5
s47.833 37.5 76.5 49.5s58 18 88 18c12 0 22.333 -0.833008 31 -2.5s13 -9.5 13 -23.5c0 -8.66699 -4 -17.167 -12 -25.5s-17 -12.5 -27 -12.5c-0.666992 0 -2.33398 0.5 -5.00098 1.5s-5.33398 2.5 -8.00098 4.5s-5.33398 3.5 -8.00098 4.5s-4.33398 1.5 -5.00098 1.5
c-22 5.33301 -42.833 2 -62.5 -10s-37.334 -28 -53.001 -48s-28.334 -41.833 -38.001 -65.5s-14.5 -44.834 -14.5 -63.501c0 -8 1.66699 -14 5 -18s7.5 -7.16699 12.5 -9.5s10.667 -3.5 17 -3.5h19.5c13.333 0 26.833 2 40.5 6s27 8.5 40 13.5s26.333 9.66699 40 14
s27.5 6.5 41.5 6.5c7.33301 0 15 -2 23 -6s15.333 -9.33301 22 -16s12.334 -14.5 17.001 -23.5s7.33398 -19.167 8.00098 -30.5c4 -8.66699 2.83301 -20.5 -3.5 -35.5s-15.833 -31 -28.5 -48s-27.5 -34.333 -44.5 -52s-34.5 -33.834 -52.5 -48.501
c10.667 4 21.667 7.5 33 10.5s23 4.5 35 4.5c6.66699 0 14 -1.83301 22 -5.5s15.333 -9 22 -16s12.334 -15 17.001 -24s7.33398 -18.833 8.00098 -29.5c4 -9.33301 2.83301 -21.666 -3.5 -36.999s-15.833 -31.666 -28.5 -48.999s-28 -34.833 -46 -52.5s-36 -33.667 -54 -48
s-35.667 -26 -53 -35s-32 -13.167 -44 -12.5c-13.333 0 -21.166 4 -23.499 12s-3.5 17 -3.5 27zM75.999 276.002c0 -15.333 5.6709 -23.5 17.0039 -24.5s25.166 2.83301 41.499 11.5s34.166 21.167 53.499 37.5s36.833 33.333 52.5 51s28.167 34.834 37.5 51.501
s12.666 30.5 9.99902 41.5s-12.834 17.5 -30.501 19.5s-45.5 -3 -83.5 -15c-14 -8.66699 -27 -20.167 -39 -34.5s-22.333 -29.333 -31 -45s-15.5 -31.834 -20.5 -48.501s-7.5 -31.667 -7.5 -45z" />
    <glyph glyph-name="dieresis" unicode="&#xa8;" horiz-adv-x="314" 
d="M62 739c9.33301 10 17.333 16.833 24 20.5s15.334 5.5 26.001 5.5c18 0 27 -8.66699 27 -26c0 -4 -1.16699 -8.5 -3.5 -13.5s-5.33301 -9.66699 -9 -14s-7.83398 -7.83301 -12.501 -10.5s-9 -3 -13 -1c-4.66699 -2.66699 -9.5 -3.33398 -14.5 -2.00098s-9.5 4 -13.5 8
s-7.16699 8.83301 -9.5 14.5s-2.83301 11.834 -1.5 18.501zM194 739c10 10 18.332 16.833 24.999 20.5s15.334 5.5 26.001 5.5c18 0 27 -8.66699 27 -26c0 -4 -1.16699 -8.5 -3.5 -13.5s-5.5 -9.66699 -9.5 -14s-8.33301 -7.83301 -13 -10.5s-9 -3 -13 -1
c-4 -2.66699 -8.66699 -3.33398 -14 -2.00098s-10 4 -14 8s-7 8.83301 -9 14.5s-2.66699 11.834 -2 18.501z" />
    <glyph glyph-name="copyright" unicode="&#xa9;" horiz-adv-x="497" 
d="M15 214c5.33301 77.333 16.833 145.167 34.5 203.5s38.834 107.333 63.501 147s51.834 69.834 81.501 90.501s59.334 32.167 89.001 34.5s58 -4.66699 85 -21s50.5 -41.166 70.5 -74.499c22 -41.333 35.667 -84.666 41 -129.999s3.66602 -89.833 -5.00098 -133.5
s-23.334 -85.334 -44.001 -125.001s-45.667 -74.667 -75 -105s-62 -54.666 -98 -72.999s-73.667 -27.833 -113 -28.5c-24.667 0 -45.334 7.66699 -62.001 23s-30 34.166 -40 56.499s-17.167 45.666 -21.5 69.999s-6.5 46.166 -6.5 65.499zM138 317.001
c2 21.333 4.50586 44.834 7.50586 70.501s9 49.334 18 71.001s22.167 39.834 39.5 54.501s41 22 71 22c14 0 24.667 -4.33301 32 -13s12.666 -18.667 15.999 -30s5.16602 -23 5.49902 -35s0.5 -22 0.5 -30c-13.333 -2.66699 -24.333 -0.833984 -33 5.49902
s-15.667 13.666 -21 21.999s-8.66602 16.166 -9.99902 23.499s-1.66602 11.333 -0.999023 12c-14 -0.666992 -25.333 -7.66699 -34 -21c-9.33301 -14 -16.5 -30.333 -21.5 -49s-8.5 -37.167 -10.5 -55.5s-3 -32.5 -3 -42.5c-0.666992 -10 -1.16699 -21 -1.5 -33
s1.16699 -23.5 4.5 -34.5s9.16602 -20.333 17.499 -28s20.5 -12.834 36.5 -15.501c24.667 7.33301 43.167 16.333 55.5 27s22.333 21.5 30 32.5l23 32.5c7.66699 10.667 18.834 19.667 33.501 27c8 1.33301 13.5 0.833008 16.5 -1.5s4.83301 -5.16602 5.5 -8.49902
c5.33301 65.333 4.5 119.5 -2.5 162.5s-18 76.5 -33 100.5s-33.167 39.167 -54.5 45.5s-43.5 4.66602 -66.5 -5.00098s-45.833 -26.167 -68.5 -49.5s-43 -52.333 -61 -87s-32.667 -74.667 -44 -120s-17 -94.333 -17 -147c0 -16.667 0.833008 -34 2.5 -52
s5.5 -34.333 11.5 -49s15.167 -27 27.5 -37s28.833 -15 49.5 -15c25.333 -0.666992 49 3.16602 71 11.499s42.333 20 61 35s35.667 32.833 51 53.5s28.666 42.667 39.999 66c-6.66699 -7.33301 -14.834 -15.166 -24.501 -23.499s-20.334 -16 -32.001 -23
s-24.334 -12.667 -38.001 -17s-27.834 -6.5 -42.501 -6.5c-22.667 0 -41 6 -55 18s-24.833 26.167 -32.5 42.5s-12.834 33.333 -15.501 51s-4 31.834 -4 42.501z" />
    <glyph glyph-name="ordfeminine" unicode="&#xaa;" horiz-adv-x="233" 
d="M184.876 152.441c-1.9873 8.29395 -3.67676 18.2598 -5.06836 29.9033s-2.88281 23.4473 -4.47363 35.4102s-3.47949 23.208 -5.66602 33.7354s-5.4668 19.1406 -9.84082 25.8398c-20.2764 -33.1768 -38.168 -59.2559 -53.6738 -78.2373
c-15.5049 -18.9814 -29.1221 -32.5391 -40.8516 -40.6738c-11.7285 -8.13477 -21.5684 -12.043 -29.5205 -11.7236c-7.95117 0.319336 -14.5107 3.19043 -19.6797 8.61328s-8.84668 12.3613 -11.0332 20.8154s-3.67773 16.3496 -4.47266 23.6865
c0 7.01855 1.98828 16.9082 5.96387 29.6689s9.34277 26.7178 16.1016 41.8711s14.8096 30.5459 24.1523 46.1777s19.3818 29.8281 30.1172 42.5889c10.7344 12.7607 21.8662 23.2881 33.3965 31.582s23.0605 12.4414 34.5908 12.4414
c17.0967 2.2334 29.7197 -0.717773 37.8701 -8.85254s9.6416 -21.7725 4.47266 -40.9131c0 -21.0547 1.09375 -39.0791 3.28027 -54.0723s4.57227 -29.3486 7.15723 -43.0664c2.58398 -13.7178 4.96973 -28.0732 7.15625 -43.0664s3.28027 -33.0176 3.28027 -54.0723
c0 -3.82812 -0.49707 -7.09766 -1.49121 -9.80957s-5.86426 -4.06738 -14.6113 -4.06738c-1.19238 0 -2.68359 0.797852 -4.47266 2.39258s-2.68359 2.87109 -2.68359 3.82812zM152.672 366.335c-4.37402 5.10449 -10.3389 5.58594 -17.8926 1.43848
s-15.5049 -11.0059 -23.8535 -20.5762c-8.34961 -9.57031 -16.8975 -21.0547 -25.6445 -34.4531s-16.8975 -26.9561 -24.4512 -40.6738s-14.1143 -26.7178 -19.6807 -39c-5.56543 -12.2822 -9.34277 -22.4111 -11.3311 -30.3867
c0 -11.4844 2.18652 -17.9443 6.56055 -19.3799s9.74121 0.398438 16.1016 5.50293c6.3623 5.10449 13.6182 12.4414 21.7686 22.0117s16.1016 19.7783 23.8545 30.625l22.0664 31.582c6.95801 10.208 12.4248 18.502 16.4004 24.8818
c3.5791 6.69922 6.3623 12.9199 8.34961 18.6621s3.67676 11.2451 5.06836 16.5088s2.18652 10.6074 2.38574 16.0303c0.198242 5.42285 0.297852 11.165 0.297852 17.2266z" />
    <glyph glyph-name="guillemotleft" unicode="&#xab;" horiz-adv-x="668" 
d="M51 366c0.666992 1.33301 1.00098 2.33398 1.00098 3.00098l303 252c3.33301 3.33301 6.16602 7.16602 8.49902 11.499s4.66602 8 6.99902 11s5.33301 5.16699 9 6.5s8.5 1 14.5 -1c9.33301 -3.33301 14.5 -8.83301 15.5 -16.5s0.166992 -15.834 -2.5 -24.501
c-0.666992 -0.666992 -1 -1.66699 -1 -3c0 -0.666992 -0.333008 -1.33398 -1 -2.00098c-22 -30.667 -43.833 -55.667 -65.5 -75s-44.167 -37.333 -67.5 -54l-73.5 -51c-25.667 -17.333 -53.167 -39.333 -82.5 -66l7 -16c0.666992 -1.33301 8 -6.5 22 -15.5l49 -31
l58.5 -35.5l48.5 -29c2.66699 -1.33301 7.83398 -3.66602 15.501 -6.99902s16 -6.66602 25 -9.99902l25.5 -9.5c8 -3 13.667 -4.83301 17 -5.5c2 -7.33301 3.33301 -13.333 4 -18s-0.333008 -10 -3 -16c-2.66699 -8 -8 -15 -16 -21s-16 -10.333 -24 -13
c-10 9.33301 -24.833 20 -44.5 32l-64 38.5l-70.5 42.5c-24 14.667 -45.333 29 -64 43s-33.167 27.5 -43.5 40.5s-13.5 25.167 -9.5 36.5zM242.001 378.001c0.666992 1.33301 1 2.33691 1 3.00391l303 252c3.33301 3.33301 6.16602 7.16602 8.49902 11.499
s4.66602 8 6.99902 11s5.33301 5.16699 9 6.5s8.5 1 14.5 -1c8.66699 -3.33301 13.667 -8.83301 15 -16.5s0.666016 -15.834 -2.00098 -24.501c-0.666992 -0.666992 -1 -2 -1 -4l-1 -1c-22.667 -30.667 -44.667 -55.834 -66 -75.501s-43.833 -37.667 -67.5 -54l-73.5 -50.5
c-25.333 -17.333 -52.666 -39.333 -81.999 -66l7 -16c0.666992 -1.33301 7.83398 -6.5 21.501 -15.5l49 -31l58.5 -35.5l49 -29c2.66699 -2 7.83398 -4.66699 15.501 -8s16 -6.5 25 -9.5s17.5 -6 25.5 -9s13.667 -4.83301 17 -5.5c2 -7.33301 3.33301 -13.5 4 -18.5
s-0.333008 -10.5 -3 -16.5c-3.33301 -7.33301 -8.83301 -14 -16.5 -20s-15.834 -10.333 -24.501 -13c-10 9.33301 -24.667 20 -44 32l-64 38.5l-71 42c-24 14.333 -45.167 28.666 -63.5 42.999s-32.666 28 -42.999 41s-13.5 24.833 -9.5 35.5z" />
    <glyph glyph-name="logicalnot" unicode="&#xac;" horiz-adv-x="552" 
d="M65 359c0 2.66699 1.83496 7.16699 5.50195 13.5s6.16699 10.5 7.5 12.5l98 6.5l109.5 7l107.5 6.5c34.667 2 65.334 3 92.001 3c3.33301 0 6.16602 -1.66699 8.49902 -5s3.83301 -7.16602 4.5 -11.499s1 -8.5 1 -12.5v-7c0 -35.333 2.66699 -70.833 8 -106.5
s8 -74.834 8 -117.501c0 -3.33301 -1.83301 -6 -5.5 -8s-7.66699 -3.33301 -12 -4s-8.5 -1 -12.5 -1h-7c-2.66699 0 -5.83398 0.333008 -9.50098 1s-5.83398 1 -6.50098 1l-4 216l-317 -7c-1.33301 0 -5.5 -0.166992 -12.5 -0.5s-12.5 -0.5 -16.5 -0.5l-8 -1
c-4.66699 0 -10 0.333008 -16 1s-11.333 2 -16 4s-7 5.33301 -7 10z" />
    <glyph glyph-name="uni00AD" unicode="&#xad;" horiz-adv-x="409" 
d="M13 204c0 2.66699 1.66797 7.33496 5.00098 14.002s6 10.667 8 12c29.333 2 58.833 8.33301 88.5 19s59.167 22.167 88.5 34.5s58.166 23.666 86.499 33.999s55.833 15.5 82.5 15.5c3.33301 0 6 -1.66699 8 -5s3.5 -7.16602 4.5 -11.499s1.5 -8.5 1.5 -12.5v-7
c0 -2.66699 -0.333008 -5.83398 -1 -9.50098s-1 -5.83398 -1 -6.50098l-295 -89c-1.33301 -0.666992 -5.5 -1.16699 -12.5 -1.5s-12.5 -0.5 -16.5 -0.5l-8 -1c-4.66699 0 -10 0.333008 -16 1s-11.333 2 -16 4s-7 5.33301 -7 10z" />
    <glyph glyph-name="registered" unicode="&#xae;" horiz-adv-x="392" 
d="M15 214c5.33301 77.333 16.335 144.836 33.002 202.503s36.834 105.5 60.501 143.5s49.667 66.833 78 86.5s56.833 30 85.5 31s56 -6.83301 82 -23.5s49 -41.667 69 -75c26 -44 43.5 -89 52.5 -135s10.667 -90.5 5 -133.5s-17.834 -83.833 -36.501 -122.5
s-42.667 -72 -72 -100s-63.333 -50.167 -102 -66.5s-80.334 -23.833 -125.001 -22.5c-24.667 0 -45.334 7.66699 -62.001 23s-30 34.166 -40 56.499s-17.167 45.666 -21.5 69.999s-6.5 46.166 -6.5 65.499zM148.002 517.003l5.00098 -2.99805
c4 -1.33301 8.33301 -2.66602 13 -3.99902s8.83398 -2.83301 12.501 -4.5l5.5 -2.5c1.33301 0 3.66602 -0.333008 6.99902 -1s4.66602 -2.33398 3.99902 -5.00098l-3 -26c5.33301 0.666992 11.833 3.16699 19.5 7.5s16.667 8.66602 27 12.999s21.833 8 34.5 11
s26 3.83301 40 2.5c30.667 -8.66699 51 -18.834 61 -30.501s13.167 -23.834 9.5 -36.501s-12.334 -25.334 -26.001 -38.001s-28.667 -24.667 -45 -36s-32.166 -21 -47.499 -29l-36 -19c8 -4 18.5 -9.66699 31.5 -17l40 -23l39 -22.5c12.333 -7 21.5 -11.5 27.5 -13.5
c11.333 -7.33301 19.333 -14.333 24 -21c13.333 32.667 22.666 67.334 27.999 104.001s6.33301 72 3 106s-11.5 64.833 -24.5 92.5s-30.833 48.834 -53.5 63.501s-50.334 21.334 -83.001 20.001s-70.334 -14 -113.001 -38l-28 -84.5
c-9.33301 -29 -17.666 -58.333 -24.999 -88s-13.666 -59.167 -18.999 -88.5s-8 -58 -8 -86c0 -16.667 0.833008 -33.334 2.5 -50.001s5.66699 -32 12 -46s15.5 -26.167 27.5 -36.5s28.333 -17.166 49 -20.499c24 -5.33301 46.667 -5.83301 68 -1.5s41 11.833 59 22.5
s34.333 24.167 49 40.5s27.334 34.833 38.001 55.5c-11.333 0.666992 -25.333 8 -42 22c-5.33301 2 -14.833 7.16699 -28.5 15.5l-44 27.5l-44 27.5c-13.667 8.33301 -23.167 13.166 -28.5 14.499v-133l-42 5zM195.003 430.005
c-0.666992 -4.66699 -1.16602 -10.501 -1.49902 -17.501s-0.833008 -14.333 -1.5 -22l-2 -23c-0.666992 -7.66699 -1 -14.5 -1 -20.5c2 1.33301 9 5 21 11l41 21l46.5 25.5c15.667 9 27.667 17.833 36 26.5s11.166 16.334 8.49902 23.001s-13.667 11.667 -33 15
c-8.66699 0.666992 -18.334 0.166992 -29.001 -1.5s-21.5 -4.16699 -32.5 -7.5s-21.167 -7.5 -30.5 -12.5s-16.666 -10.833 -21.999 -17.5z" />
    <glyph glyph-name="macron" unicode="&#xaf;" horiz-adv-x="409" 
d="M13 700c0 2.66699 1.83398 7.33301 5.50098 14s6.5 10.667 8.5 12c29.333 2 58.666 4.83301 87.999 8.5l87.5 11.5c29 4 57.333 7.5 85 10.5s54.834 4.5 81.501 4.5c3.33301 0 6.16602 -1.66699 8.49902 -5s3.83301 -7 4.5 -11s1 -8 1 -12v-8c0 -2 -0.166992 -5 -0.5 -9
s-0.5 -6.33301 -0.5 -7l-292 -21c-1.33301 -0.666992 -5.5 -1.16699 -12.5 -1.5s-12.5 -0.5 -16.5 -0.5l-8 -1c-4.66699 0 -10 0.333008 -16 1s-11.5 2 -16.5 4s-7.5 5.33301 -7.5 10z" />
    <glyph glyph-name="degree" unicode="&#xb0;" horiz-adv-x="206" 
d="M29 462c-4 11.333 -4.66602 22.502 -1.99902 33.502s8 21 16 30s18 16.167 30 21.5s25.333 8 40 8c19.333 0 33.166 -3.5 41.499 -10.5s15.833 -16.167 22.5 -27.5c4.66699 -18.667 7 -36 7 -52s-3.33301 -29.333 -10 -40s-17.667 -18.667 -33 -24s-36 -7.33301 -62 -6
c-10 0 -18.167 2.5 -24.5 7.5s-11.5 11.167 -15.5 18.5s-6.66699 14.666 -8 21.999s-2 13.666 -2 18.999zM64.001 463.002c0 -6.66699 2.16797 -11.999 6.50098 -15.999s9.16602 -9.33301 14.499 -16c11.333 -1.33301 20.166 -2.33301 26.499 -3s11.5 0.166016 15.5 2.49902
s7.5 6.16602 10.5 11.499s6.83301 13 11.5 23c1.33301 16 -2.5 28.167 -11.5 36.5s-19 12.5 -30 12.5s-21.167 -4.16699 -30.5 -12.5s-13.666 -21.166 -12.999 -38.499z" />
    <glyph glyph-name="plusminus" unicode="&#xb1;" horiz-adv-x="478" 
d="M49 86c0 2.66699 1.66699 7.33691 5 14.0039s6 10.667 8 12c24.667 1.33301 47.834 3.66602 69.501 6.99902s42.834 7 63.501 11l-24 139c-2 0 -4 0.333008 -6 1c-2 0 -3.83301 0.166992 -5.5 0.5s-2.83398 0.5 -3.50098 0.5c-19.333 0 -39 -3 -59 -9
s-38 -12.333 -54 -19c-4.66699 3.33301 -10.334 7.83301 -17.001 13.5s-10 11.834 -10 18.501c0 7.33301 4 13 12 17s18 6.83301 30 8.5s25 3 39 4s27 2.33301 39 4s22 4.33398 30 8.00098s12 9.16699 12 16.5v217c0 3.33301 2.16699 6.16602 6.5 8.49902
s9.16602 4.16602 14.499 5.49902s10.166 2.16602 14.499 2.49902s7.16602 0.5 8.49902 0.5v-221l46 14.5c12 3.66699 23.667 6.66699 35 9s23.5 4.16602 36.5 5.49902s29.833 2 50.5 2c0 -6 -1 -13.5 -3 -22.5s-6.66699 -14.833 -14 -17.5
c-12.667 -2.66699 -27.167 -5.5 -43.5 -8.5s-30.833 -6.16699 -43.5 -9.5c-2 0 -4.83301 -0.5 -8.5 -1.5s-7.66699 -2.33301 -12 -4s-8.16602 -3 -11.499 -4s-5.66602 -1.83301 -6.99902 -2.5c-1.33301 -1.33301 -3.66602 -3.5 -6.99902 -6.5s-5 -5.16699 -5 -6.5v-156
c22 4.66699 44.167 8.5 66.5 11.5s45.833 4.5 70.5 4.5c3.33301 0 6 -1.66699 8 -5s3.5 -7.16602 4.5 -11.499s1.5 -8.5 1.5 -12.5v-7c0 -2.66699 -0.333008 -5.83398 -1 -9.50098s-1 -5.83398 -1 -6.50098c-56 -4 -102.167 -7.66699 -138.5 -11s-65.333 -6.5 -87 -9.5
s-37 -5.33301 -46 -7s-14.5 -2.5 -16.5 -2.5l-8 -1c-4.66699 0 -10 0.333008 -16 1s-11.333 2 -16 4s-7 5.33301 -7 10z" />
    <glyph glyph-name="twosuperior" unicode="&#xb2;" horiz-adv-x="326" 
d="M70.127 166.957c11.3438 18.3906 22.3955 37.248 33.1523 56.5771s20.3398 38.8457 28.75 58.5498c8.40918 19.7041 15.1562 39.7842 20.2412 60.2393s7.82324 41.5674 8.21484 63.3369c-3.91113 12.3857 -8.11621 22.0498 -12.6143 28.9932
c-4.49902 6.94336 -11.0508 9.57031 -19.6553 7.88184c-8.60547 -1.68848 -20.3398 -8.35059 -35.2041 -19.9863c-14.8643 -11.6348 -35.0088 -29.6504 -60.4336 -54.0469c-3.52051 2.25293 -6.94336 4.78613 -10.2686 7.60059
c-3.3252 2.81543 -4.9873 6.09961 -4.9873 9.85254c0 0.375 0.0976562 1.03223 0.292969 1.9707c0.196289 0.938477 0.293945 1.5957 0.293945 1.97168l25.5225 27.0234c9.58301 10.1338 20.0469 19.7041 31.3906 28.7119c11.3428 9.00781 23.1748 16.4209 35.4961 22.2383
s25.5225 8.72559 39.6045 8.72559c13.6904 -6.00488 23.4688 -15.6689 29.3359 -28.9922c5.86816 -13.3242 8.89941 -28.7129 9.09473 -46.165c0.195312 -17.4531 -1.8584 -36.0322 -6.16113 -55.7363s-10.0723 -39.3145 -17.3086 -58.8311
s-15.2549 -38.0957 -24.0557 -55.7363c-8.80078 -17.6396 -17.3086 -32.6523 -25.5225 -45.0381l157.243 45.6025c0.391602 0 1.46777 0.09375 3.22852 0.28125c1.76074 0.188477 3.22754 0.282227 4.40039 0.282227c1.95605 0 4.30273 -0.1875 7.04102 -0.563477
c2.7373 -0.375977 5.18164 -0.938477 7.33301 -1.68848c2.15137 -0.750977 4.10742 -1.87695 5.86816 -3.37793s2.64062 -3.37695 2.64062 -5.62793c-14.0811 -8.63281 -30.4121 -15.7646 -48.9922 -21.3945s-37.7471 -10.9785 -57.5 -16.0459l-57.793 -14.9189
c-18.7754 -4.87988 -35.5947 -10.6973 -50.459 -17.4521c-5.08496 0 -9.3877 0.65625 -12.9082 1.96973s-5.28125 5.91113 -5.28125 13.793z" />
    <glyph glyph-name="threesuperior" unicode="&#xb3;" horiz-adv-x="287" 
d="M103.34 192.188c0 6.0625 3.40918 12.3145 10.2266 18.7559s15.1934 13.3564 25.127 20.7451l33.0166 23.8711c12.0762 8.52539 23.0811 17.8086 33.0156 27.8496c9.93359 10.041 18.3096 20.8398 25.127 32.3965s10.2266 23.9658 10.2266 37.2275
c0 9.47266 -2.04492 17.335 -6.13574 23.5869s-9.25293 11.083 -15.4863 14.4932s-13.3428 5.77832 -21.3291 7.10449s-15.875 1.98926 -23.666 1.98926c-8.57129 0.757812 -16.6553 -0.473633 -24.252 -3.69434s-15.1934 -7.00977 -22.79 -11.3672
s-14.999 -8.9043 -22.2061 -13.6406s-14.2188 -8.52539 -21.0361 -11.3672s-13.4404 -3.88379 -19.8682 -3.12598s-12.9531 4.16797 -19.5752 10.2305v1.70508c0 1.13672 0.194336 1.70508 0.583984 1.70508l104.015 115.945
c11.2979 15.1562 17.0439 26.9023 17.2383 35.2383s-2.92188 13.9248 -9.34961 16.7666s-15.29 3.31543 -26.5879 1.4209s-22.8877 -5.39941 -34.7695 -10.5146s-23.2764 -11.4619 -34.1846 -19.04c-10.9072 -7.57812 -18.8936 -15.5352 -23.958 -23.8711
c-0.389648 0 -1.07129 -0.0947266 -2.04492 -0.28418s-1.65527 -0.28418 -2.04492 -0.28418c-4.6748 0 -9.05762 1.98926 -13.1484 5.96777s-6.13574 8.24121 -6.13574 12.7881c0 5.30469 3.11621 10.7041 9.34961 16.1982s14.2197 10.7988 23.959 15.9141
s20.6475 9.94629 32.7236 14.4932c12.0771 4.54688 23.959 8.52539 35.6455 11.9355s22.5947 6.15723 32.7236 8.24121s17.9199 3.12598 23.374 3.12598c10.1289 -4.92578 16.752 -11.2725 19.8682 -19.04s3.79785 -16.4824 2.04492 -26.1445
s-5.25879 -19.7979 -10.5176 -30.4072s-11.2969 -21.0293 -18.1143 -31.2598s-13.7324 -20.082 -20.7441 -29.5547l-17.5312 -24.4395c8.18066 4.92578 17.043 7.4834 26.5869 7.67285c9.54492 0.189453 18.7969 0.28418 27.7568 0.28418
c10.1289 0 20.4521 -1.32617 30.9707 -3.97852s20.0635 -6.72559 28.6348 -12.2197c8.57031 -5.49414 15.582 -12.3145 21.0361 -20.4609s8.18066 -17.9033 8.18066 -29.2705c0 -18.9453 -5.25879 -37.1328 -15.7773 -54.5625s-23.374 -33.9121 -38.5674 -49.4473
c-15.1924 -15.5352 -31.5537 -29.8389 -49.084 -42.9111l-47.332 -34.9541c-3.50684 1.89453 -6.91602 4.35742 -10.2275 7.38867s-4.9668 6.63086 -4.9668 10.7988z" />
    <glyph glyph-name="acute" unicode="&#xb4;" horiz-adv-x="159" 
d="M49 601c-18 4 -27.834 10.999 -29.501 20.999s1.83301 21.5 10.5 34.5s20.667 27 36 42l46 43.5c11.333 0 19 -3 23 -9s6 -13 6 -21v-7c-1.33301 -8 -5.33301 -16.667 -12 -26s-14.667 -18.666 -24 -27.999s-19.166 -18.333 -29.499 -27z" />
    <glyph glyph-name="mu" unicode="&#xb5;" horiz-adv-x="397" 
d="M280 168c-6.66699 -15.333 -16.1631 -30.1631 -28.4961 -44.4961s-25.5 -27 -39.5 -38s-28.5 -19.833 -43.5 -26.5s-28.833 -10.334 -41.5 -11.001s-23 1.66602 -31 6.99902s-12.667 15 -14 29c-2 0 -3.66699 -5.33301 -5 -16s-2.66602 -23.667 -3.99902 -39
s-2.33301 -31.833 -3 -49.5s-1 -33.5 -1 -47.5v-47l-42 -16l6 666c2.66699 6.66699 6.16699 10.667 10.5 12s9.5 2 15.5 2c5.33301 0 10.166 -0.666992 14.499 -2s8.16602 -5.33301 11.499 -12c0 -7.33301 0.166992 -19.666 0.5 -36.999s1.16602 -36.666 2.49902 -57.999
s2.66602 -43.833 3.99902 -67.5s2.5 -46.334 3.5 -68.001s2 -41 3 -58s1.83301 -29.167 2.5 -36.5c0.666992 -5.33301 1.5 -13.333 2.5 -24s2.66699 -21.834 5 -33.501s5.33301 -22.167 9 -31.5s8.5 -14.333 14.5 -15c10 0 20.167 4.33301 30.5 13s20.5 19.667 30.5 33
s19.333 28 28 44s16.5 31.5 23.5 46.5s12.333 28.5 16 40.5s5.83398 21 6.50098 27c1.33301 10.667 2.66602 26.667 3.99902 48s2.33301 44 3 68s1.16699 46.667 1.5 68s0.5 37.333 0.5 48l55 -3c4 -56 6.33301 -104.833 7 -146.5s1.16699 -79.667 1.5 -114
s1.16602 -66.833 2.49902 -97.5s4.33301 -62.667 9 -96c-1.33301 -0.666992 -4.66602 -1.33398 -9.99902 -2.00098s-11.333 -1.33398 -18 -2.00098s-12.834 -1.16699 -18.501 -1.5s-9.16699 -0.5 -10.5 -0.5z" />
    <glyph glyph-name="paragraph" unicode="&#xb6;" horiz-adv-x="458" 
d="M375 30c-4.66699 38 -8.33301 72.999 -11 104.999s-4.66699 61.833 -6 89.5s-2.16602 54.834 -2.49902 81.501s-0.5 54 -0.5 82v89c0 31.333 -0.333008 66 -1 104c-5.33301 -4 -9.83301 -6.33301 -13.5 -7s-7.16699 -1.16699 -10.5 -1.5s-7.16602 -1.83301 -11.499 -4.5
s-9.5 -8 -15.5 -16c1.33301 -32.667 3.33301 -70 6 -112l8 -129c2.66699 -44 5 -87 7 -129s3 -79.333 3 -112c0 -5.33301 -0.166992 -11.5 -0.5 -18.5s-1.5 -13.5 -3.5 -19.5s-5.16699 -11 -9.5 -15s-11.166 -6 -20.499 -6c-6.66699 0 -11.167 2.66699 -13.5 8
s-4.16602 11.666 -5.49902 18.999c0.666992 25.333 0 57.333 -2 96s-4.5 79 -7.5 121s-6.16699 83 -9.5 123s-5.66602 74.333 -6.99902 103c-2.66699 -12 -10.167 -22.833 -22.5 -32.5s-26.833 -18 -43.5 -25s-34.334 -12.167 -53.001 -15.5
s-35.834 -3.66602 -51.501 -0.999023s-28.667 8.16699 -39 16.5s-15.5 21.166 -15.5 38.499c0 26.667 2.5 50 7.5 70s13.333 37 25 51s27 25.833 46 35.5s42.833 17.5 71.5 23.5c33.333 2.66699 60.666 5 81.999 7s39.5 3.33301 54.5 4s28.667 0.333984 41 -0.999023
s26.166 -4 41.499 -8c0 -13.333 0.666992 -34.833 2 -64.5s2.66602 -63 3.99902 -100s3 -76 5 -117s3.5 -80 4.5 -117s2.16699 -70.167 3.5 -99.5s2 -51 2 -65c0 -1.33301 0.166992 -6 0.5 -14s0.5 -13.667 0.5 -17c0 -4.66699 0.166992 -9 0.5 -13
s-0.333984 -7.5 -2.00098 -10.5s-4.16699 -5.33301 -7.5 -7s-8.66602 -2.5 -15.999 -2.5c-2.66699 0 -5.66699 1.66699 -9 5s-5 6 -5 8z" />
    <glyph glyph-name="periodcentered" unicode="&#xb7;" horiz-adv-x="132" 
d="M20 265c9.33301 10.667 17.332 17.8311 23.999 21.498s15.334 5.5 26.001 5.5c18 0 27 -9 27 -27c0 -3.33301 -1.16699 -7.5 -3.5 -12.5s-5.5 -9.83301 -9.5 -14.5s-8.16699 -8.16699 -12.5 -10.5s-8.83301 -2.5 -13.5 -0.5c-4 -3.33301 -8.5 -4.16602 -13.5 -2.49902
s-9.66699 4.33398 -14 8.00098s-7.5 8.5 -9.5 14.5s-2.33301 12 -1 18z" />
    <glyph glyph-name="cedilla" unicode="&#xb8;" horiz-adv-x="330" 
d="M66 -267c0 2 6.83203 4.33398 20.499 7.00098s29.334 6 47.001 10s34.834 8.83301 51.501 14.5s27.667 12.5 33 20.5s2.66602 17.5 -8.00098 28.5s-34.334 23.833 -71.001 38.5c-29.333 0 -49.333 9.16699 -60 27.5s-16 43.5 -16 75.5
c2.66699 29.333 6.33398 51.166 11.001 65.499s9.5 23.166 14.5 26.499s9.83301 2.33301 14.5 -3s8.33398 -13.333 11.001 -24s4.16699 -22.667 4.5 -36s-1.5 -26 -5.5 -38c30.667 -21.333 57.5 -37.666 80.5 -48.999s42.167 -22.333 57.5 -33s27 -23.5 35 -38.5
s12 -36.833 12 -65.5c-4.66699 -14 -15 -25.333 -31 -34s-34.333 -15.5 -55 -20.5s-41.834 -8.5 -63.501 -10.5s-40.167 -2.66699 -55.5 -2c-14 0 -22 4 -24 12s-3 17.333 -3 28z" />
    <glyph glyph-name="onesuperior" unicode="&#xb9;" horiz-adv-x="115" 
d="M44.5781 165.167c-5.89746 29.7725 -9.7334 58.7188 -11.502 86.8369c-1.76953 28.1182 -2.50684 55.8682 -2.21191 83.251s1.03223 54.8574 2.21191 82.4238s1.17969 56.2354 0 86.0078c0 1.10254 1.47461 2.57227 4.42285 4.41016s5.30762 2.75684 7.07715 2.75684
s5.60254 -0.918945 11.5 -2.75684s9.73145 -3.30762 11.501 -4.41016c0 -7.35156 0.442383 -19.2051 1.32715 -35.5615c0.883789 -16.3564 1.47363 -34.7344 1.76855 -55.1338s0.884766 -41.9014 1.76953 -64.5059s1.76953 -44.1064 2.6543 -64.5059
s1.62207 -38.6855 2.21191 -54.8574c0.588867 -16.1729 0.883789 -28.1182 0.883789 -35.8369v-7.71875v-9.37207c0 -2.57324 0.147461 -4.96289 0.442383 -7.16895c0.294922 -2.20508 -0.147461 -4.13477 -1.32617 -5.78906
c-1.17969 -1.65332 -3.3916 -2.93945 -6.63574 -3.8584c-3.24316 -0.918945 -8.1084 -1.37793 -14.5957 -1.37793c-1.76855 0 -4.12695 0.918945 -7.0752 2.75684c-2.94922 1.83789 -4.42383 3.30762 -4.42383 4.41016z" />
    <glyph glyph-name="ordmasculine" unicode="&#xba;" horiz-adv-x="218" 
d="M20.9336 210.044c-3.7207 15.4541 -5.57812 30.4883 -5.57812 45.1035s1.46191 29.4824 4.38574 44.6016c2.92285 15.1182 7.17578 30.8252 12.7578 47.1211c5.58105 16.2949 12.0928 33.8496 19.5352 52.6641c0 3.69629 1.59473 7.13965 4.78418 10.3311
c3.18945 3.19238 7.44238 5.87988 12.7578 8.06348c5.31543 2.18457 10.8975 3.94824 16.7451 5.29199c5.84668 1.34375 11.4277 2.01562 16.7432 2.01562c11.6943 0 22.3262 -2.35156 31.8945 -7.05566c9.56836 -4.70312 18.2061 -10.415 25.9141 -17.1348
s14.3525 -13.8594 19.9336 -21.4189l13.9541 -19.4033c4.25293 -11.7588 7.30957 -25.1143 9.16992 -40.0654s1.99316 -30.1543 0.398438 -45.6084c-1.59473 -15.4551 -5.31641 -30.6582 -11.1641 -45.6094c-5.84668 -14.9512 -14.0859 -28.6426 -24.7178 -41.0732
s-24.3203 -22.8457 -41.0654 -31.2451c-16.7441 -8.39941 -36.5449 -13.6074 -59.4033 -15.623c-12.2266 0 -21.5293 2.60352 -27.9082 7.81152s-11.0303 11.5918 -13.9531 19.1514c-2.92383 7.55957 -4.51855 15.2031 -4.78418 22.9307
c-0.266602 7.72754 -0.399414 14.1113 -0.399414 19.1514zM61.6025 211.555c0 -3.36035 0.130859 -6.55273 0.396484 -9.57617c0.265625 -3.02441 0.796875 -5.96484 1.59473 -8.82129c0.797852 -2.85547 1.86133 -5.87891 3.19043 -9.07129
c1.3291 -3.19141 3.05664 -6.80273 5.18262 -10.835h4.78516c12.7578 0 23.6553 2.6875 32.6914 8.06348s16.7441 12.3477 23.123 20.915s11.6943 18.1426 15.9473 28.7256s7.5752 20.998 9.96777 31.2451c2.3916 10.2471 3.98633 19.8223 4.78418 28.7256
c0.796875 8.90332 1.19531 16.043 1.19531 21.4189v10.0791c0 4.36816 -0.265625 9.32422 -0.796875 14.8682s-1.46191 11.2559 -2.79102 17.1357s-3.32227 11.2559 -5.98047 16.127c-2.65723 4.87207 -6.1123 8.82031 -10.3652 11.8447
c-4.25293 3.02344 -9.83398 4.53516 -16.7441 4.53516c-11.6953 2.35254 -21.6621 1.84863 -29.9014 -1.51172c-8.23926 -3.35938 -14.8838 -8.9873 -19.9336 -16.8828s-8.90332 -17.5547 -11.5615 -28.9775c-2.6582 -11.4238 -4.25293 -24.0234 -4.78418 -37.7979
c-0.53125 -13.7754 -0.664062 -28.3906 -0.398438 -43.8457c0.265625 -15.4541 0.398438 -30.9092 0.398438 -46.3643z" />
    <glyph glyph-name="guillemotright" unicode="&#xbb;" horiz-adv-x="641" 
d="M47 148c2 13.333 11.8311 28.832 29.498 46.499s38.667 36 63 55l77 58.5c27 20 51 39.167 72 57.5s37 35.833 48 52.5s12.5 31 4.5 43l-280 151c-2 2 -4.66699 6.16699 -8 12.5s-5 10.833 -5 13.5s0.833008 5.66699 2.5 9s3.83398 7 6.50098 11s5.5 7.5 8.5 10.5
s5.83301 5.5 8.5 7.5l306 -177c16 -10.667 23 -25.167 21 -43.5s-10.167 -38.5 -24.5 -60.5s-33.166 -45 -56.499 -69s-48 -47.333 -74 -70s-51.667 -43.667 -77 -63l-65.5 -48.5c-18.333 -13 -32 -21.667 -41 -26s-9.5 -3.16602 -1.5 3.50098
c-7.33301 0 -11.5 3.33301 -12.5 10s-1.5 12 -1.5 16zM233.998 159.999c2.66699 14 12.833 29.8379 30.5 47.5049s38.667 36 63 55l77 58.5c27 20 51 39.167 72 57.5s36.833 35.666 47.5 51.999s12 30.5 4 42.5l-280 152c-2 1.33301 -4.66699 5.16602 -8 11.499
s-5 11.166 -5 14.499c0 2 0.833008 4.83301 2.5 8.5s3.83398 7.5 6.50098 11.5s5.5 7.5 8.5 10.5s5.83301 5.16699 8.5 6.5l306 -176c16 -10.667 23 -25.167 21 -43.5s-10.167 -38.666 -24.5 -60.999s-33.166 -45.5 -56.499 -69.5s-48 -47.167 -74 -69.5l-76.5 -63
c-25 -19.667 -46.833 -35.834 -65.5 -48.501s-32.334 -21.334 -41.001 -26.001s-9.33398 -3.33398 -2.00098 3.99902c-6.66699 0 -10.667 3.33301 -12 10s-2 11.667 -2 15z" />
    <glyph glyph-name="onequarter" unicode="&#xbc;" horiz-adv-x="695" 
d="M44.5781 156.265c-5.89746 34.3301 -9.7334 67.707 -11.502 100.13c-1.76953 32.4229 -2.50684 64.4219 -2.21191 95.9971s1.03223 63.2568 2.21191 95.0439s1.17969 64.8457 0 99.1758c0 1.27148 1.47461 2.9668 4.42285 5.08594s5.30762 3.17871 7.07715 3.17871
s5.60254 -1.05957 11.5 -3.17871s9.73145 -3.81445 11.501 -5.08594c0 -8.47656 0.442383 -22.1445 1.32715 -41.0049c0.883789 -18.8604 1.47363 -40.0518 1.76855 -63.5742s0.884766 -48.3164 1.76953 -74.3818s1.76953 -50.8594 2.6543 -74.3818
s1.62207 -44.6084 2.21191 -63.2568c0.588867 -18.6484 0.883789 -32.4229 0.883789 -41.3232v-8.90039v-10.8076c0 -2.9668 0.147461 -5.72168 0.442383 -8.26465s-0.147461 -4.76855 -1.32617 -6.67578c-1.17969 -1.90723 -3.3916 -3.39062 -6.63574 -4.4502
c-3.24316 -1.05957 -8.1084 -1.58984 -14.5957 -1.58984c-1.76855 0 -4.12695 1.05957 -7.0752 3.17871c-2.94922 2.11914 -4.42383 3.81445 -4.42383 5.08594zM35.9971 -59l232.001 760.999h49l-248 -801c-8.66699 0 -16.334 3.33301 -23.001 10s-10 14.334 -10 23.001v7z
M200.432 160.456c0 0.899414 0.305664 3.93555 0.918945 9.10742c0.612305 5.1709 1.83789 10.5674 3.67578 16.1895c1.83887 5.62109 5.05566 10.4551 9.65137 14.5029s10.876 5.17188 18.8418 3.37305c26.9609 25.1836 51.0117 50.0303 72.1514 74.5391
s41.207 49.0176 60.2021 73.5264l55.6074 74.877l58.3643 78.5859c3.06348 4.94629 6.43359 7.86914 10.1104 8.76855s8.27246 1.34863 13.7871 1.34863c3.67676 0 8.5791 -0.449219 14.707 -1.34863s9.19141 -3.82227 9.19141 -8.76855v-258.356
c20.833 0 41.0537 1.79883 60.6621 5.39648s39.8291 5.39648 60.6631 5.39648c5.51465 -13.042 4.90137 -21.8115 -1.83887 -26.3086s-16.6973 -7.41992 -29.8711 -8.76855c-13.1748 -1.34961 -28.0342 -2.36133 -44.5781 -3.03613s-31.5566 -3.03516 -45.0371 -7.08203
v-215.859c0 -2.24902 -1.99121 -4.61035 -5.97461 -7.08398c-3.98242 -2.47363 -8.57812 -4.49707 -13.7861 -6.07129c-5.20898 -1.57422 -10.418 -2.92383 -15.626 -4.04785s-9.34375 -1.68652 -12.4072 -1.68652v228.677zM479.846 410.719
c-13.4805 -15.7393 -28.6465 -32.1543 -45.4971 -49.2432l-49.6338 -51.9404c-16.2373 -17.5391 -31.5557 -35.1904 -45.9551 -52.9531c-14.3994 -17.7637 -25.8887 -35.415 -34.4678 -52.9531h11.0303c12.2549 2.24902 27.7266 5.28418 46.416 9.10645l54.6875 11.4678
l45.0381 9.78125l18.3818 4.04688v172.688z" />
    <glyph glyph-name="onehalf" unicode="&#xbd;" horiz-adv-x="710" 
d="M67.1533 170.575c-5.12793 35.6182 -8.45996 70.248 -9.99805 103.888s-2.17871 66.8398 -1.92188 99.6006s0.897461 65.6309 1.92285 98.6113c1.02637 32.9805 1.02637 67.2803 0 102.898c0 1.31934 1.28223 3.07812 3.84668 5.27637
c2.56348 2.19824 4.61426 3.29785 6.15234 3.29785s4.87109 -1.09961 9.99902 -3.29785s8.46094 -3.95703 9.99902 -5.27637c0 -8.79395 0.384766 -22.9756 1.1543 -42.5439c0.768555 -19.5684 1.28125 -41.5557 1.53809 -65.9609s0.769531 -50.1299 1.53809 -77.1738
c0.769531 -27.0439 1.53906 -52.7686 2.30859 -77.1738c0.768555 -24.4053 1.40918 -46.2822 1.92188 -65.6309s0.768555 -33.6396 0.768555 -42.874v-9.23438v-11.2139c0 -3.07812 0.12793 -5.93652 0.384766 -8.57422
c0.256836 -2.63867 -0.12793 -4.94727 -1.15332 -6.92578c-1.02637 -1.97949 -2.94922 -3.51855 -5.76953 -4.61719c-2.82031 -1.09961 -7.05078 -1.64941 -12.6924 -1.64941c-1.53809 0 -3.58887 1.09961 -6.15234 3.29785
c-2.56445 2.19824 -3.84668 3.95703 -3.84668 5.27637zM86.001 -45.999l232.001 760.999h49l-248 -801c-8.66699 0 -16.334 3.33301 -23.001 10s-10 14.334 -10 23.001v7zM314.22 36.5664c15.0166 23.9287 29.6475 48.4697 43.8877 73.6182s26.9268 50.541 38.0605 76.1777
c11.1328 25.6367 20.0654 51.7617 26.7969 78.376c6.73145 26.6133 10.3564 54.0811 10.874 82.4043c-5.17773 16.1143 -10.7441 28.6885 -16.6992 37.7227s-14.6289 12.4521 -26.0205 10.2549c-11.3926 -2.19727 -26.9277 -10.8652 -46.6045 -26.0029
s-46.3447 -38.5771 -80.0029 -70.3184c-4.66113 2.92969 -9.19238 6.22559 -13.5938 9.88867c-4.40137 3.66211 -6.60254 7.93457 -6.60254 12.8184c0 0.488281 0.129883 1.34277 0.388672 2.56348s0.387695 2.0752 0.387695 2.56348l33.7881 35.1592
c12.6865 13.1846 26.5381 25.6367 41.5547 37.3564s30.6807 21.3643 46.9922 28.9336s33.7881 11.3535 52.4297 11.3535c18.124 -7.81348 31.0693 -20.3877 38.8359 -37.7227c7.76758 -17.3359 11.7812 -37.3574 12.04 -60.0645
c0.258789 -22.7061 -2.45996 -46.8779 -8.15625 -72.5156c-5.69629 -25.6367 -13.334 -51.1514 -22.9131 -76.5439c-9.58008 -25.3936 -20.1953 -49.5654 -31.8467 -72.5156c-11.6514 -22.9512 -22.9141 -42.4844 -33.7881 -58.5986l208.165 59.3311
c0.517578 0 1.94141 0.12207 4.27246 0.366211c2.33008 0.244141 4.27148 0.366211 5.8252 0.366211c2.58887 0 5.69531 -0.244141 9.31934 -0.732422c3.625 -0.488281 6.86133 -1.2207 9.70996 -2.19824c2.84766 -0.976562 5.43652 -2.44141 7.7666 -4.39453
s3.49512 -4.39453 3.49512 -7.3252c-18.6416 -11.2314 -40.2607 -20.5098 -64.8574 -27.835s-49.9697 -14.2842 -76.1191 -20.877l-76.5078 -19.4102c-24.8555 -6.34863 -47.1221 -13.918 -66.7998 -22.708c-6.73145 0 -12.4277 0.854492 -17.0879 2.56348
s-6.99023 7.69043 -6.99023 17.9453z" />
    <glyph glyph-name="threequarters" unicode="&#xbe;" horiz-adv-x="889" 
d="M159.975 170.777c0 7.92578 4.59863 16.0996 13.793 24.5205s20.4902 17.4609 33.8877 27.1201l44.5264 31.208c16.2871 11.1455 31.1289 23.2812 44.5264 36.4082c13.3975 13.1279 24.6934 27.2461 33.8877 42.3545s13.791 31.332 13.791 48.6699
c0 12.3838 -2.75879 22.6621 -8.27539 30.835s-12.4775 14.4883 -20.8838 18.9463s-17.9941 7.55371 -28.7646 9.28711s-21.4102 2.60059 -31.918 2.60059c-11.5586 0.991211 -22.46 -0.618164 -32.7051 -4.82812c-10.2451 -4.21094 -20.4902 -9.16504 -30.7354 -14.8613
s-20.2275 -11.6406 -29.9473 -17.833s-19.1768 -11.1455 -28.3711 -14.8604c-9.19434 -3.71582 -18.126 -5.07812 -26.7949 -4.08691s-17.4688 5.44922 -26.4004 13.375v2.22852c0 1.48633 0.262695 2.22949 0.788086 2.22949l140.279 151.58
c15.2363 19.8145 22.9863 35.1709 23.249 46.0693c0.262695 10.8975 -3.94043 18.2041 -12.6094 21.9189c-8.66895 3.71582 -20.6221 4.33496 -35.8584 1.8584c-15.2363 -2.47754 -30.8672 -7.05957 -46.8916 -13.7471
c-16.0244 -6.68652 -31.3916 -14.9834 -46.1025 -24.8906s-25.4814 -20.3096 -32.3115 -31.207c-0.525391 0 -1.44434 -0.124023 -2.75781 -0.371094c-1.31348 -0.248047 -2.2334 -0.37207 -2.75879 -0.37207c-6.30469 0 -12.2148 2.60059 -17.7314 7.80273
c-5.5166 5.20117 -8.27539 10.7734 -8.27539 16.7178c0 6.93555 4.20312 13.9941 12.6094 21.1768s19.1768 14.1182 32.3115 20.8057c13.1348 6.68652 27.8457 13.002 44.1328 18.9463s32.3115 11.1455 48.0732 15.6035s30.4727 8.0498 44.1328 10.7744
s24.168 4.08691 31.5234 4.08691c13.6602 -6.43945 22.5918 -14.7363 26.7949 -24.8916s5.12207 -21.5488 2.75781 -34.1807s-7.09277 -25.8828 -14.1855 -39.7529s-15.2363 -27.4922 -24.4307 -40.8672c-9.19434 -13.374 -18.5205 -26.2529 -27.9775 -38.6367
l-23.6426 -31.9512c11.0332 6.44043 22.9863 9.78418 35.8584 10.0312c12.8721 0.248047 25.3496 0.37207 37.4336 0.37207c13.6602 0 27.583 -1.73438 41.7686 -5.20215s27.0576 -8.79297 38.6162 -15.9756s21.0156 -16.0996 28.3711 -26.75
s11.0332 -23.4062 11.0332 -38.2666c0 -24.7686 -7.09277 -48.5459 -21.2783 -71.332s-31.5234 -44.334 -52.0137 -64.6436s-42.5566 -39.0098 -66.1992 -56.0996l-63.835 -45.6973c-4.72852 2.47656 -9.3252 5.69629 -13.791 9.65918s-6.69922 8.66895 -6.69922 14.1182z
M308.002 -46l232.001 760.999h49l-248 -801c-8.66699 0 -16.334 3.33301 -23.001 10s-10 14.334 -10 23.001v7zM361.022 189.121c0 1.03613 0.243164 4.53516 0.720703 10.4951s1.43359 12.1787 2.86816 18.6572s3.94434 12.0498 7.5293 16.7139
c3.58496 4.66504 8.48438 5.96094 14.6982 3.8877c21.0332 29.0225 39.7959 57.6572 56.2871 85.9033c16.4922 28.2451 32.1475 56.4912 46.9668 84.7373l43.3809 86.292l45.5322 90.5674c2.38965 5.7002 5.01855 9.06934 7.88672 10.1064
c2.86816 1.03613 6.45312 1.55469 10.7549 1.55469c2.86816 0 6.69238 -0.518555 11.4727 -1.55469c4.78027 -1.03711 7.1709 -4.40625 7.1709 -10.1064v-297.746c16.2529 0 32.0273 2.07324 47.3242 6.21875c15.2969 4.14648 31.0723 6.21973 47.3252 6.21973
c4.30176 -15.0303 3.82324 -25.1367 -1.43555 -30.3193s-13.0264 -8.55078 -23.3037 -10.1055c-10.2773 -1.55566 -21.8691 -2.72168 -34.7764 -3.49902s-24.6191 -3.49805 -35.1357 -8.16211v-248.77c0 -2.5918 -1.55371 -5.3125 -4.66113 -8.16309
c-3.10645 -2.85059 -6.69141 -5.18262 -10.7549 -6.99707c-4.06348 -1.81348 -8.12695 -3.36816 -12.1904 -4.66406s-7.29004 -1.94336 -9.67969 -1.94336v263.54zM579.007 477.539c-10.5166 -18.1396 -22.3486 -37.0566 -35.4941 -56.751l-38.7197 -59.8594
c-12.668 -20.2129 -24.6191 -40.5547 -35.8525 -61.0264s-20.1963 -40.8135 -26.8887 -61.0254h8.60449c9.56055 2.59082 21.6309 6.08887 36.2109 10.4941l42.6631 13.2158l35.1357 11.2725l14.3408 4.66406v199.016z" />
    <glyph glyph-name="questiondown" unicode="&#xbf;" horiz-adv-x="555" 
d="M353.596 776.383c0 -10.3506 -2.26758 -17.0479 -6.80371 -20.0918s-10.6416 -4.56641 -18.3174 -4.56641c-11.8623 0 -21.9805 3.80566 -30.3535 11.416c-8.37402 7.61035 -12.5605 16.2861 -12.5605 26.0273c0 8.52441 3.66309 14.4609 10.9902 17.8096
s15.5264 5.02344 24.5977 5.02344c4.18652 0 8.19824 -1.37012 12.0361 -4.10938c3.83789 -2.74023 7.32715 -6.08887 10.4678 -10.0459c3.13965 -3.95801 5.58203 -7.76367 7.32617 -11.417c1.74512 -3.65332 2.61719 -7.00195 2.61719 -10.0459zM409.07 407.422
c0 -24.3545 -6.80371 -46.5781 -20.4111 -66.6699c-13.6064 -20.0918 -30.1787 -39.1182 -49.7168 -57.0791s-41.1699 -35.4648 -64.8955 -52.5127s-45.3574 -34.7041 -64.8955 -52.9697s-36.1104 -37.5967 -49.7168 -57.9922
c-13.6074 -20.3965 -20.4111 -43.0762 -20.4111 -68.0391c0 -14.0029 4.18652 -24.3535 12.5605 -31.0508s18.8408 -11.416 31.4004 -14.1562c12.5605 -2.73926 26.168 -3.95703 40.8213 -3.65234c14.6533 0.303711 28.2607 0.456055 40.8213 0.456055
c22.3291 0 43.6113 3.95703 63.8467 11.8721c20.2363 7.91504 39.6006 16.2871 58.0918 25.1152s36.8086 17.0479 54.9512 24.6582s36.6338 11.416 55.4746 11.416c8.37402 0 15.7012 -1.06543 21.9814 -3.19629s9.41992 -9.28516 9.41992 -21.4619
c0 -7.30566 -5.93066 -14.6113 -17.793 -21.917c-11.8623 -7.30664 -27.0391 -14.4609 -45.5303 -21.4619c-18.4912 -7.00195 -39.0762 -13.6992 -61.7549 -20.0928c-22.6787 -6.39258 -44.834 -11.7197 -66.4658 -15.9814
c-21.6318 -4.2627 -40.9961 -7.76367 -58.0928 -10.5029c-17.0957 -2.73926 -30.1797 -4.10938 -39.251 -4.10938c-15.3516 0 -32.2734 1.06543 -50.7646 3.19629s-35.2383 6.08789 -50.2412 11.8721s-27.5635 14.0039 -37.6816 24.6582
c-10.1182 10.6553 -15.1768 24.5068 -15.1768 41.5547c0 31.0518 9.07129 61.7988 27.2139 92.2412s39.9482 59.21 65.418 86.3027c25.4697 27.0938 51.9863 52.3613 79.5498 75.8018s51.1143 44.293 70.6523 62.5576c8.37402 3.65332 13.7822 9.28516 16.2246 16.8955
s2.26758 15.5254 -0.524414 23.7451c-2.79102 8.21973 -7.84961 16.1348 -15.1768 23.7451s-16.7471 13.3945 -28.2607 17.3525c-11.5137 3.95703 -24.5977 5.1748 -39.251 3.65234c-14.6533 -1.52148 -30.7021 -6.84863 -48.1465 -15.9814l-19.8877 35.6172
c14.6533 9.74121 31.749 16.2861 51.2871 19.6348s38.3789 5.02246 56.5215 5.02246c13.2588 0 26.168 -1.82617 38.7275 -5.47949c12.5605 -3.65332 24.0742 -8.82812 34.541 -15.5254s18.8408 -14.917 25.1211 -24.6582s9.41992 -20.7002 9.41992 -32.877z" />
    <glyph glyph-name="Agrave" unicode="&#xc0;" 
d="M41 0c2 9.33301 3.66602 21.3291 4.99902 35.9961l5.5 58c2.33301 24 5 53.667 8 89s7.16699 78.333 12.5 129l18.5 178.5c7 68.333 16.167 147.833 27.5 238.5c0.666992 6.66699 3.83398 10.667 9.50098 12s10.834 2 15.501 2c7.33301 0 13.333 -2.66699 18 -8
s8.83398 -11.333 12.501 -18s7.16699 -13.667 10.5 -21s7 -13.333 11 -18c6.66699 -15.333 13.5 -33 20.5 -53l22.5 -64l24 -68.5l24 -67l22.5 -60c7 -18.333 13.5 -33.5 19.5 -45.5c7.33301 0.666992 17.666 3.5 30.999 8.5s27.666 9.83301 42.999 14.5
s30.333 8.33398 45 11.001s27 2.83398 37 0.500977s16.5 -8.16602 19.5 -17.499s0.5 -24 -7.5 -44c-4.66699 0 -9 0.833008 -13 2.5l-12 5l-12.5 5c-4.33301 1.66699 -9.16602 2.5 -14.499 2.5c-3.33301 0 -10.833 -1.83301 -22.5 -5.5l-37.5 -12
c-13.333 -4.33301 -25 -8.66602 -35 -12.999s-15 -7.5 -15 -9.5l69 -271l-26 -38c-11.333 19.333 -20.833 41.5 -28.5 66.5s-14.834 50 -21.501 75s-13.5 48.333 -20.5 70s-15.833 39.834 -26.5 54.501c-14 -6.66699 -30.667 -12.334 -50 -17.001s-38 -10.5 -56 -17.5
s-33.5 -16.333 -46.5 -28s-20.833 -27.5 -23.5 -47.5c-1.33301 -8 -2.5 -18.667 -3.5 -32s-2.16699 -26 -3.5 -38c-2 -14.667 -3.66699 -29.667 -5 -45h-51zM155.999 588.996l-2 -17.001c-0.666992 -11.333 -1.66699 -24.5 -3 -39.5s-2.83301 -30.333 -4.5 -46
s-2.83398 -28.834 -3.50098 -39.501c-3.33301 -37.333 -6.83301 -74.166 -10.5 -110.499s-5.5 -73.5 -5.5 -111.5c12.667 0 26.167 1.66699 40.5 5s28.166 7.83301 41.499 13.5s25.5 12.667 36.5 21s19.5 17.833 25.5 28.5c-5.33301 23.333 -11.166 47.5 -17.499 72.5
s-13.166 50.333 -20.499 76s-15.333 50.834 -24 75.501s-18 48.667 -28 72c-0.666992 0.666992 -3 2.16699 -7 4.5s-10 0.833008 -18 -4.5zM201.999 756.995l-23.002 24.5c-8.66699 9 -17.167 18.667 -25.5 29s-15.666 20.666 -21.999 30.999s-9.83301 19.5 -10.5 27.5v7
c0 8.66699 1.83301 16.334 5.5 23.001s10.167 10 19.5 10l41 -47c13.333 -16 23.833 -31.167 31.5 -45.5s10.834 -26.833 9.50098 -37.5s-10 -18 -26 -22z" />
    <glyph glyph-name="Aacute" unicode="&#xc1;" 
d="M26 26c2 9.33301 3.66602 21.3291 4.99902 35.9961l5.5 58c2.33301 24 5 53.667 8 89s7.16699 78.333 12.5 129l18.5 178.5c7 68.333 16.167 147.833 27.5 238.5c0.666992 6.66699 3.83398 10.667 9.50098 12s10.834 2 15.501 2c7.33301 0 13.333 -2.66699 18 -8
s8.83398 -11.333 12.501 -18s7.16699 -13.667 10.5 -21s7 -13.333 11 -18c6.66699 -15.333 13.5 -33 20.5 -53l22.5 -64l24 -68.5l24 -67l22.5 -60c7 -18.333 13.5 -33.5 19.5 -45.5c7.33301 0.666992 17.666 3.5 30.999 8.5s27.666 9.83301 42.999 14.5
s30.333 8.33398 45 11.001s27 2.83398 37 0.500977s16.5 -8.16602 19.5 -17.499s0.5 -24 -7.5 -44c-4.66699 0 -9 0.833008 -13 2.5l-12 5l-12.5 5c-4.33301 1.66699 -9.16602 2.5 -14.499 2.5c-3.33301 0 -10.833 -1.83301 -22.5 -5.5l-37.5 -12
c-13.333 -4.33301 -25 -8.66602 -35 -12.999s-15 -7.5 -15 -9.5l69 -271l-26 -38c-11.333 19.333 -20.833 41.5 -28.5 66.5s-14.834 50 -21.501 75s-13.5 48.333 -20.5 70s-15.833 39.834 -26.5 54.501c-14 -6.66699 -30.667 -12.334 -50 -17.001s-38 -10.5 -56 -17.5
s-33.5 -16.333 -46.5 -28s-20.833 -27.5 -23.5 -47.5c-1.33301 -8 -2.5 -18.667 -3.5 -32s-2.16699 -26 -3.5 -38c-2 -14.667 -3.66699 -29.667 -5 -45h-51zM140.999 614.996l-2 -17.001c-0.666992 -11.333 -1.66699 -24.5 -3 -39.5s-2.83301 -30.333 -4.5 -46
s-2.83398 -28.834 -3.50098 -39.501c-3.33301 -37.333 -6.83301 -74.166 -10.5 -110.499s-5.5 -73.5 -5.5 -111.5c12.667 0 26.167 1.66699 40.5 5s28.166 7.83301 41.499 13.5s25.5 12.667 36.5 21s19.5 17.833 25.5 28.5c-5.33301 23.333 -11.166 47.5 -17.499 72.5
s-13.166 50.333 -20.499 76s-15.333 50.834 -24 75.501s-18 48.667 -28 72c-0.666992 0.666992 -3 2.16699 -7 4.5s-10 0.833008 -18 -4.5zM96.999 810.995c-18 4 -27.834 10.999 -29.501 20.999s1.83301 21.5 10.5 34.5s20.667 27 36 42l46 43.5c11.333 0 19 -3 23 -9
s6 -13 6 -21v-7c-1.33301 -8 -5.33301 -16.667 -12 -26s-14.667 -18.666 -24 -27.999s-19.166 -18.333 -29.499 -27z" />
    <glyph glyph-name="Acircumflex" unicode="&#xc2;" 
d="M26 26c2 9.33301 3.66602 21.3291 4.99902 35.9961l5.5 58c2.33301 24 5 53.667 8 89s7.16699 78.333 12.5 129l18.5 178.5c7 68.333 16.167 147.833 27.5 238.5c0.666992 6.66699 3.83398 10.667 9.50098 12s10.834 2 15.501 2c7.33301 0 13.333 -2.66699 18 -8
s8.83398 -11.333 12.501 -18s7.16699 -13.667 10.5 -21s7 -13.333 11 -18c6.66699 -15.333 13.5 -33 20.5 -53l22.5 -64l24 -68.5l24 -67l22.5 -60c7 -18.333 13.5 -33.5 19.5 -45.5c7.33301 0.666992 17.666 3.5 30.999 8.5s27.666 9.83301 42.999 14.5
s30.333 8.33398 45 11.001s27 2.83398 37 0.500977s16.5 -8.16602 19.5 -17.499s0.5 -24 -7.5 -44c-4.66699 0 -9 0.833008 -13 2.5l-12 5l-12.5 5c-4.33301 1.66699 -9.16602 2.5 -14.499 2.5c-3.33301 0 -10.833 -1.83301 -22.5 -5.5l-37.5 -12
c-13.333 -4.33301 -25 -8.66602 -35 -12.999s-15 -7.5 -15 -9.5l69 -271l-26 -38c-11.333 19.333 -20.833 41.5 -28.5 66.5s-14.834 50 -21.501 75s-13.5 48.333 -20.5 70s-15.833 39.834 -26.5 54.501c-14 -6.66699 -30.667 -12.334 -50 -17.001s-38 -10.5 -56 -17.5
s-33.5 -16.333 -46.5 -28s-20.833 -27.5 -23.5 -47.5c-1.33301 -8 -2.5 -18.667 -3.5 -32s-2.16699 -26 -3.5 -38c-2 -14.667 -3.66699 -29.667 -5 -45h-51zM140.999 614.996l-2 -17.001c-0.666992 -11.333 -1.66699 -24.5 -3 -39.5s-2.83301 -30.333 -4.5 -46
s-2.83398 -28.834 -3.50098 -39.501c-3.33301 -37.333 -6.83301 -74.166 -10.5 -110.499s-5.5 -73.5 -5.5 -111.5c12.667 0 26.167 1.66699 40.5 5s28.166 7.83301 41.499 13.5s25.5 12.667 36.5 21s19.5 17.833 25.5 28.5c-5.33301 23.333 -11.166 47.5 -17.499 72.5
s-13.166 50.333 -20.499 76s-15.333 50.834 -24 75.501s-18 48.667 -28 72c-0.666992 0.666992 -3 2.16699 -7 4.5s-10 0.833008 -18 -4.5zM-30.001 786.995c0 1.33301 0.165039 2.83203 0.498047 4.49902s0.5 2.83398 0.5 3.50098l127 237
c0.666992 2.66699 4.33398 6 11.001 10s13.667 6 21 6c0.666992 0 1.66699 -0.166992 3 -0.5l2 -0.5l164 -191c13.333 -2.66699 21.166 -6 23.499 -10s3.5 -9.33301 3.5 -16c0 -2.66699 -0.5 -6.16699 -1.5 -10.5s-2.83301 -8.33301 -5.5 -12
s-6.16699 -6.83398 -10.5 -9.50098s-9.83301 -4 -16.5 -4h-4c-0.666992 0 -1 0.333008 -1 1l-140 175c-3.33301 6 -9.66602 9 -18.999 9h-5l-114 -199c-0.666992 -1.33301 -2.66699 -3 -6 -5s-5.66602 -3 -6.99902 -3c-12 0 -19.333 1.33301 -22 4s-4 6.33398 -4 11.001z
" />
    <glyph glyph-name="Atilde" unicode="&#xc3;" 
d="M26 26c2 9.33301 3.66602 21.3291 4.99902 35.9961l5.5 58c2.33301 24 5 53.667 8 89s7.16699 78.333 12.5 129l18.5 178.5c7 68.333 16.167 147.833 27.5 238.5c0.666992 6.66699 3.83398 10.667 9.50098 12s10.834 2 15.501 2c7.33301 0 13.333 -2.66699 18 -8
s8.83398 -11.333 12.501 -18s7.16699 -13.667 10.5 -21s7 -13.333 11 -18c6.66699 -15.333 13.5 -33 20.5 -53l22.5 -64l24 -68.5l24 -67l22.5 -60c7 -18.333 13.5 -33.5 19.5 -45.5c7.33301 0.666992 17.666 3.5 30.999 8.5s27.666 9.83301 42.999 14.5
s30.333 8.33398 45 11.001s27 2.83398 37 0.500977s16.5 -8.16602 19.5 -17.499s0.5 -24 -7.5 -44c-4.66699 0 -9 0.833008 -13 2.5l-12 5l-12.5 5c-4.33301 1.66699 -9.16602 2.5 -14.499 2.5c-3.33301 0 -10.833 -1.83301 -22.5 -5.5l-37.5 -12
c-13.333 -4.33301 -25 -8.66602 -35 -12.999s-15 -7.5 -15 -9.5l69 -271l-26 -38c-11.333 19.333 -20.833 41.5 -28.5 66.5s-14.834 50 -21.501 75s-13.5 48.333 -20.5 70s-15.833 39.834 -26.5 54.501c-14 -6.66699 -30.667 -12.334 -50 -17.001s-38 -10.5 -56 -17.5
s-33.5 -16.333 -46.5 -28s-20.833 -27.5 -23.5 -47.5c-1.33301 -8 -2.5 -18.667 -3.5 -32s-2.16699 -26 -3.5 -38c-2 -14.667 -3.66699 -29.667 -5 -45h-51zM140.999 614.996l-2 -17.001c-0.666992 -11.333 -1.66699 -24.5 -3 -39.5s-2.83301 -30.333 -4.5 -46
s-2.83398 -28.834 -3.50098 -39.501c-3.33301 -37.333 -6.83301 -74.166 -10.5 -110.499s-5.5 -73.5 -5.5 -111.5c12.667 0 26.167 1.66699 40.5 5s28.166 7.83301 41.499 13.5s25.5 12.667 36.5 21s19.5 17.833 25.5 28.5c-5.33301 23.333 -11.166 47.5 -17.499 72.5
s-13.166 50.333 -20.499 76s-15.333 50.834 -24 75.501s-18 48.667 -28 72c-0.666992 0.666992 -3 2.16699 -7 4.5s-10 0.833008 -18 -4.5zM326.999 1010c9.33301 2.66699 18.168 4.16797 26.501 4.50098s14.166 -5.5 17.499 -17.5c4 -10 2.83301 -21.167 -3.5 -33.5
s-15.333 -24.666 -27 -36.999s-24.334 -23.666 -38.001 -33.999s-26.5 -18.5 -38.5 -24.5c-10 -2.66699 -19.833 -3.33398 -29.5 -2.00098s-18.667 3.83301 -27 7.5s-15.333 8.16699 -21 13.5s-9.5 11 -11.5 17c-8.66699 4.66699 -14.834 11.667 -18.501 21
s-7.66699 18.5 -12 27.5s-9.5 16.667 -15.5 23s-15.333 9.16602 -28 8.49902c-14 0 -24 -3.33301 -30 -10s-11 -14.667 -15 -24l-12.5 -28.5c-4.33301 -9.66699 -10.833 -17.834 -19.5 -24.501c-6.66699 -2 -12.167 -2.5 -16.5 -1.5s-7.66602 2.83301 -9.99902 5.5
s-4.16602 6.16699 -5.49902 10.5l-4 13.5c1.33301 20.667 6.5 38 15.5 52s20 25.167 33 33.5s27.333 14 43 17s30.667 3.83301 45 2.5s27.5 -4.66602 39.5 -9.99902s20.667 -12.666 26 -21.999c9.33301 -30.667 18.5 -51.167 27.5 -61.5s17.833 -14.833 26.5 -13.5
s17 7.16602 25 17.499s15.5 21 22.5 32s13.5 20.667 19.5 29s11.333 11.166 16 8.49902z" />
    <glyph glyph-name="Adieresis" unicode="&#xc4;" 
d="M26 26c2 9.33301 3.66602 21.3291 4.99902 35.9961l5.5 58c2.33301 24 5 53.667 8 89s7.16699 78.333 12.5 129l18.5 178.5c7 68.333 16.167 147.833 27.5 238.5c0.666992 6.66699 3.83398 10.667 9.50098 12s10.834 2 15.501 2c7.33301 0 13.333 -2.66699 18 -8
s8.83398 -11.333 12.501 -18s7.16699 -13.667 10.5 -21s7 -13.333 11 -18c6.66699 -15.333 13.5 -33 20.5 -53l22.5 -64l24 -68.5l24 -67l22.5 -60c7 -18.333 13.5 -33.5 19.5 -45.5c7.33301 0.666992 17.666 3.5 30.999 8.5s27.666 9.83301 42.999 14.5
s30.333 8.33398 45 11.001s27 2.83398 37 0.500977s16.5 -8.16602 19.5 -17.499s0.5 -24 -7.5 -44c-4.66699 0 -9 0.833008 -13 2.5l-12 5l-12.5 5c-4.33301 1.66699 -9.16602 2.5 -14.499 2.5c-3.33301 0 -10.833 -1.83301 -22.5 -5.5l-37.5 -12
c-13.333 -4.33301 -25 -8.66602 -35 -12.999s-15 -7.5 -15 -9.5l69 -271l-26 -38c-11.333 19.333 -20.833 41.5 -28.5 66.5s-14.834 50 -21.501 75s-13.5 48.333 -20.5 70s-15.833 39.834 -26.5 54.501c-14 -6.66699 -30.667 -12.334 -50 -17.001s-38 -10.5 -56 -17.5
s-33.5 -16.333 -46.5 -28s-20.833 -27.5 -23.5 -47.5c-1.33301 -8 -2.5 -18.667 -3.5 -32s-2.16699 -26 -3.5 -38c-2 -14.667 -3.66699 -29.667 -5 -45h-51zM140.999 614.996l-2 -17.001c-0.666992 -11.333 -1.66699 -24.5 -3 -39.5s-2.83301 -30.333 -4.5 -46
s-2.83398 -28.834 -3.50098 -39.501c-3.33301 -37.333 -6.83301 -74.166 -10.5 -110.499s-5.5 -73.5 -5.5 -111.5c12.667 0 26.167 1.66699 40.5 5s28.166 7.83301 41.499 13.5s25.5 12.667 36.5 21s19.5 17.833 25.5 28.5c-5.33301 23.333 -11.166 47.5 -17.499 72.5
s-13.166 50.333 -20.499 76s-15.333 50.834 -24 75.501s-18 48.667 -28 72c-0.666992 0.666992 -3 2.16699 -7 4.5s-10 0.833008 -18 -4.5zM51.999 881.995c9.33301 10 17.333 16.833 24 20.5s15.334 5.5 26.001 5.5c18 0 27 -8.66699 27 -26c0 -4 -1.16699 -8.5 -3.5 -13.5
s-5.33301 -9.66699 -9 -14s-7.83398 -7.83301 -12.501 -10.5s-9 -3 -13 -1c-4.66699 -2.66699 -9.5 -3.33398 -14.5 -2.00098s-9.5 4 -13.5 8s-7.16699 8.83301 -9.5 14.5s-2.83301 11.834 -1.5 18.501zM183.999 881.995c10 10 18.332 16.833 24.999 20.5
s15.334 5.5 26.001 5.5c18 0 27 -8.66699 27 -26c0 -4 -1.16699 -8.5 -3.5 -13.5s-5.5 -9.66699 -9.5 -14s-8.33301 -7.83301 -13 -10.5s-9 -3 -13 -1c-4 -2.66699 -8.66699 -3.33398 -14 -2.00098s-10 4 -14 8s-7 8.83301 -9 14.5s-2.66699 11.834 -2 18.501z" />
    <glyph glyph-name="Aring" unicode="&#xc5;" 
d="M7 803c-5.33301 12.667 -5.99805 24.9961 -1.99805 36.9961s11.833 22.833 23.5 32.5s26.5 17.5 44.5 23.5s38 9 60 9c15.333 0 28 -1 38 -3s18.667 -4.83301 26 -8.5s13.5 -8 18.5 -13s9.83301 -10.5 14.5 -16.5c7.33301 -21.333 11.166 -40.5 11.499 -57.5
s-4.66699 -31.333 -15 -43s-27.166 -20.5 -50.499 -26.5c-4 -1.33301 -8.33301 -2.66602 -13 -3.99902c2 -3.33301 3.66699 -7 5 -11c4 -7.33301 8 -13.333 12 -18c6.66699 -15.333 13.5 -33 20.5 -53l22.5 -64l24 -68.5l24 -67l22.5 -60c7 -18.333 13.5 -33.5 19.5 -45.5
c7.33301 0.666992 17.666 3.5 30.999 8.5s27.666 9.83301 42.999 14.5s30.333 8.33398 45 11.001s27 2.83398 37 0.500977s16.5 -8.16602 19.5 -17.499s0.5 -24 -7.5 -44c-4.66699 0 -9 0.833008 -13 2.5l-12 5l-12.5 5c-4.33301 1.66699 -9.16602 2.5 -14.499 2.5
c-3.33301 0 -10.833 -1.83301 -22.5 -5.5l-37.5 -12c-13.333 -4.33301 -25 -8.66602 -35 -12.999s-15 -7.5 -15 -9.5l69 -271l-26 -38c-11.333 19.333 -20.833 41.5 -28.5 66.5s-14.834 50 -21.501 75s-13.5 48.333 -20.5 70s-15.833 39.834 -26.5 54.501
c-14 -6.66699 -30.667 -12.334 -50 -17.001s-38 -10.5 -56 -17.5s-33.5 -16.333 -46.5 -28s-20.833 -27.5 -23.5 -47.5c-1.33301 -8 -2.5 -18.667 -3.5 -32s-2.16699 -26 -3.5 -38c-2 -14.667 -3.66699 -29.667 -5 -45h-51c2 9.33301 3.66699 21.333 5 36l5.5 58
c2.33301 24 5 53.667 8 89s7.16699 78.333 12.5 129l19 179c6 61.333 13.667 132.333 23 213c-4.66699 0 -10 0.333008 -16 1c-15.333 0 -27.833 2.66699 -37.5 8s-17.5 11.833 -23.5 19.5s-10 15.667 -12 24s-3 15.166 -3 20.499zM141.002 614.996l-2 -17.001
c-0.666992 -11.333 -1.66699 -24.5 -3 -39.5s-2.83301 -30.333 -4.5 -46s-2.83398 -28.834 -3.50098 -39.501c-3.33301 -37.333 -6.83301 -74.166 -10.5 -110.499s-5.5 -73.5 -5.5 -111.5c12.667 0 26.167 1.66699 40.5 5s28.166 7.83301 41.499 13.5s25.5 12.667 36.5 21
s19.5 17.833 25.5 28.5c-5.33301 23.333 -11.166 47.5 -17.499 72.5s-13.166 50.333 -20.499 76s-15.333 50.834 -24 75.501s-18 48.667 -28 72c-0.666992 0.666992 -3 2.16699 -7 4.5s-10 0.833008 -18 -4.5zM58.002 804.995c0 -7.33301 3.49902 -13.3311 10.499 -17.998
s14.5 -10.334 22.5 -17.001c10 -0.666992 18.667 -1.33398 26 -2.00098c4 0.666992 7.66699 1 11 1c2.66699 0 5.33398 -0.666992 8.00098 -2c8 0 14.667 0.666992 20 2c6 2.66699 11 7 15 13l17 25c1.33301 11.333 -1 21 -7 29s-14 13.833 -24 17.5s-20.833 5.5 -32.5 5.5
s-22.5 -1.83301 -32.5 -5.5s-18.167 -9.66699 -24.5 -18s-9.5 -18.5 -9.5 -30.5z" />
    <glyph glyph-name="AE" unicode="&#xc6;" horiz-adv-x="726" 
d="M316 111c-7.33301 28 -14.6719 54.5068 -22.0049 79.5068s-17 45.167 -29 60.5c-14 -6.66699 -30.667 -12.334 -50 -17.001s-38 -10.5 -56 -17.5s-33.5 -16.333 -46.5 -28s-20.833 -27.5 -23.5 -47.5c-1.33301 -8 -2.5 -18.667 -3.5 -32s-2.16699 -26 -3.5 -38
c-2 -14.667 -3.66699 -29.667 -5 -45h-51c2 9.33301 3.66699 21.333 5 36l5.5 58c2.33301 24 5 53.667 8 89s7.16699 78.333 12.5 129l18.5 178.5c7 68.333 16.167 147.833 27.5 238.5c0.666992 6.66699 3.83398 10.667 9.50098 12s10.834 2 15.501 2
c7.33301 0 13.333 -2.66699 18 -8s8.83398 -11.333 12.501 -18s7.16699 -13.667 10.5 -21s7 -13.333 11 -18c6.66699 -15.333 13.5 -33 20.5 -53l22.5 -64l24 -68.5l24 -67l22.5 -60c7 -18.333 13.5 -33.5 19.5 -45.5h3c-1.33301 51.333 -4 102.5 -8 153.5
s-10 103.167 -18 156.5c0 1.33301 -0.833008 4 -2.5 8s-3.16699 8 -4.5 12l-4 11.5c-1.33301 3.66699 -2 6.16699 -2 7.5c0 2.66699 1.16699 6.5 3.5 11.5s5.33301 9.5 9 13.5s7.83398 7.33301 12.501 10s9.33398 3.66699 14.001 3c8 -1.33301 14.5 -6.16602 19.5 -14.499
s8.83301 -17.166 11.5 -26.499s4.5 -18.666 5.5 -27.999s1.5 -16.333 1.5 -21c20 11.333 42.5 23.166 67.5 35.499s50.667 23.666 77 33.999s52.5 19 78.5 26s51 10.5 75 10.5c0 -6 -1.16699 -11.5 -3.5 -16.5s-6.83301 -8.83301 -13.5 -11.5l-281 -141v-39
c0.666992 -6.66699 1.33398 -17.667 2.00098 -33s1.66699 -32 3 -50s2.5 -35.833 3.5 -53.5s1.83301 -31.834 2.5 -42.501c4.66699 1.33301 9.83398 3.16602 15.501 5.49902s15.334 6.83301 29.001 13.5l59 29.5l102.5 53.5l6 7c3.33301 4 7.66602 7.66699 12.999 11
s10.833 5.16602 16.5 5.49902s11.167 -3.16699 16.5 -10.5c1.33301 -4.66699 -3.83398 -11.834 -15.501 -21.501s-26.334 -20.334 -44.001 -32.001s-37.167 -23.834 -58.5 -36.501l-59.5 -34.5c-18.333 -10.333 -33.5 -19.5 -45.5 -27.5s-18 -13 -18 -15l-2 -217
c8.66699 -4 20.834 -2.83301 36.501 3.5s33.167 15.166 52.5 26.499s39.333 24.5 60 39.5l60.5 43c19.667 13.667 38 25.667 55 36s31.167 16.833 42.5 19.5c6.66699 0 12.667 -1.33301 18 -4s8 -8.33398 8 -17.001c0 -7.33301 -4.66699 -13.666 -14 -18.999
c-20.667 -12 -44.167 -27.167 -70.5 -45.5l-81.5 -56l-83.5 -54.5c-27.667 -17.333 -52.834 -31.333 -75.501 -42l-72 7v81zM140.994 615.007l-2 -17.001c-0.666992 -11.333 -1.66699 -24.5 -3 -39.5s-2.83301 -30.333 -4.5 -46s-2.83398 -28.834 -3.50098 -39.501
c-3.33301 -37.333 -6.83301 -74.166 -10.5 -110.499s-5.5 -73.5 -5.5 -111.5c12.667 0 26.167 1.66699 40.5 5s28.166 7.83301 41.499 13.5s25.5 12.667 36.5 21s19.5 17.833 25.5 28.5c-5.33301 23.333 -11.166 47.5 -17.499 72.5s-13.166 50.333 -20.499 76
s-15.333 50.834 -24 75.501s-18 48.667 -28 72c-0.666992 0.666992 -3 2.16699 -7 4.5s-10 0.833008 -18 -4.5z" />
    <glyph glyph-name="Ccedilla" unicode="&#xc7;" horiz-adv-x="499" 
d="M155 -286c0 2 6.83008 4.33105 20.4971 6.99805s29.334 6 47.001 10s34.834 8.83301 51.501 14.5s27.667 12.667 33 21s2.66602 17.833 -8.00098 28.5s-34 23.334 -70 38.001c-30 0 -50.333 9.16699 -61 27.5s-16 43.5 -16 75.5c2.66699 26 5.66699 45.667 9 59
c-4.66699 1.33301 -9 3 -13 5c-22 0 -40.833 6.16699 -56.5 18.5s-28.334 27.5 -38.001 45.5s-16.834 37.333 -21.501 58s-7 39.667 -7 57c0 21.333 2.16699 50.333 6.5 87s11 76 20 118s20.167 84.5 33.5 127.5s29.166 81.833 47.499 116.5s39.333 63 63 85
s49.834 33 78.501 33c16.667 0 30.834 -3 42.501 -9s21.334 -14.167 29.001 -24.5s13.334 -22 17.001 -35s5.5 -27.167 5.5 -42.5c-12 0 -21.667 3.16699 -29 9.5s-14 13.166 -20 20.499s-12.167 14.166 -18.5 20.499s-14.833 9.5 -25.5 9.5
c-21.333 0 -41 -10.167 -59 -30.5s-34.333 -46.166 -49 -77.499s-27.667 -66.166 -39 -104.499s-20.833 -75.666 -28.5 -111.999s-13.5 -69.333 -17.5 -99s-6 -51.834 -6 -66.501c0 -19.333 1 -38.166 3 -56.499s6.33301 -34.833 13 -49.5s16.334 -26.5 29.001 -35.5
s30.667 -13.5 54 -13.5c26.667 0 53.167 8.66699 79.5 26s50.833 38.5 73.5 63.5s42.334 51.667 59.001 80s28.667 53.166 36 74.499c1.33301 0.666992 4.33301 1.16699 9 1.5s7.66699 0.5 9 0.5c8 0 15.5 -0.833008 22.5 -2.5s10.5 -7.83398 10.5 -18.501
c-4 -21.333 -13.333 -43.833 -28 -67.5s-32 -46.834 -52 -69.501s-42 -43.667 -66 -63s-47.333 -35.666 -70 -48.999c-19.333 -11.333 -38 -19.666 -56 -24.999c3.33301 -10 5.16602 -21.833 5.49902 -35.5s-1.5 -26.5 -5.5 -38.5c30.667 -21.333 57.5 -37.666 80.5 -48.999
s42.333 -22.333 58 -33s27.334 -23.5 35.001 -38.5s11.5 -36.833 11.5 -65.5c-4.66699 -14 -15 -25.333 -31 -34s-34.333 -15.5 -55 -20.5s-41.834 -8.5 -63.501 -10.5s-40.167 -2.66699 -55.5 -2c-14 0 -22 4 -24 12s-3 17.333 -3 28z" />
    <glyph glyph-name="Egrave" unicode="&#xc8;" horiz-adv-x="486" 
d="M72 26c0 54 0.329102 107.003 0.996094 159.003s0.333984 103.667 -0.999023 155s-4 102.833 -8 154.5s-10 104.167 -18 157.5c0 1.33301 -0.833008 4 -2.5 8s-3.16699 8.16699 -4.5 12.5s-2.66602 8.16602 -3.99902 11.499s-2 5.66602 -2 6.99902
c0 3.33301 1.16699 7.33301 3.5 12s5.33301 9.16699 9 13.5s7.83398 7.83301 12.501 10.5s9.33398 3.66699 14.001 3c8 -2 14.5 -7 19.5 -15s8.83301 -16.833 11.5 -26.5s4.5 -19.167 5.5 -28.5s1.5 -16 1.5 -20l67.5 34.5c25 12.333 50.667 23.666 77 33.999
s52.666 19 78.999 26s51.166 10.5 74.499 10.5c0 -6 -1.16699 -11.333 -3.5 -16s-6.83301 -8.66699 -13.5 -12l-281 -141v-39c0.666992 -7.33301 1.5 -20 2.5 -38s2.16699 -37.167 3.5 -57.5s2.5 -39.666 3.5 -57.999s1.83301 -30.833 2.5 -37.5l206 115l5 6
c3.33301 4 7.66602 7.66699 12.999 11s10.833 5.16602 16.5 5.49902s11.167 -3.16699 16.5 -10.5c0 -12 -6 -23.667 -18 -35s-27 -22.666 -45 -33.999s-37.5 -22.333 -58.5 -33l-58.5 -31c-18 -10 -33 -20 -45 -30s-18 -19.333 -18 -28v-193
c8.66699 -3.33301 20.834 -1.83301 36.501 4.5s33.167 15.166 52.5 26.499s39.333 24.5 60 39.5l60.5 42.5l55 36c17 10.667 31.167 17 42.5 19c6.66699 0 12.667 -1.33301 18 -4s8 -8 8 -16s-4.66699 -14.333 -14 -19c-23.333 -14 -50.166 -31.5 -80.499 -52.5l-92.5 -63
c-31.333 -21 -62.166 -40 -92.499 -57s-56.5 -28.167 -78.5 -33.5c-8.66699 0 -15.667 0.666992 -21 2s-11.333 5.33301 -18 12zM211.996 776.003l-23.002 24.5c-8.66699 9 -17.167 18.667 -25.5 29s-15.666 20.666 -21.999 30.999s-9.83301 19.5 -10.5 27.5v7
c0 8.66699 1.83301 16.334 5.5 23.001s10.167 10 19.5 10l41 -47c13.333 -16 23.833 -31.167 31.5 -45.5s10.834 -26.833 9.50098 -37.5s-10 -18 -26 -22z" />
    <glyph glyph-name="Eacute" unicode="&#xc9;" horiz-adv-x="486" 
d="M72 26c0 54 0.329102 107.003 0.996094 159.003s0.333984 103.667 -0.999023 155s-4 102.833 -8 154.5s-10 104.167 -18 157.5c0 1.33301 -0.833008 4 -2.5 8s-3.16699 8.16699 -4.5 12.5s-2.66602 8.16602 -3.99902 11.499s-2 5.66602 -2 6.99902
c0 3.33301 1.16699 7.33301 3.5 12s5.33301 9.16699 9 13.5s7.83398 7.83301 12.501 10.5s9.33398 3.66699 14.001 3c8 -2 14.5 -7 19.5 -15s8.83301 -16.833 11.5 -26.5s4.5 -19.167 5.5 -28.5s1.5 -16 1.5 -20l67.5 34.5c25 12.333 50.667 23.666 77 33.999
s52.666 19 78.999 26s51.166 10.5 74.499 10.5c0 -6 -1.16699 -11.333 -3.5 -16s-6.83301 -8.66699 -13.5 -12l-281 -141v-39c0.666992 -7.33301 1.5 -20 2.5 -38s2.16699 -37.167 3.5 -57.5s2.5 -39.666 3.5 -57.999s1.83301 -30.833 2.5 -37.5l206 115l5 6
c3.33301 4 7.66602 7.66699 12.999 11s10.833 5.16602 16.5 5.49902s11.167 -3.16699 16.5 -10.5c0 -12 -6 -23.667 -18 -35s-27 -22.666 -45 -33.999s-37.5 -22.333 -58.5 -33l-58.5 -31c-18 -10 -33 -20 -45 -30s-18 -19.333 -18 -28v-193
c8.66699 -3.33301 20.834 -1.83301 36.501 4.5s33.167 15.166 52.5 26.499s39.333 24.5 60 39.5l60.5 42.5l55 36c17 10.667 31.167 17 42.5 19c6.66699 0 12.667 -1.33301 18 -4s8 -8 8 -16s-4.66699 -14.333 -14 -19c-23.333 -14 -50.166 -31.5 -80.499 -52.5l-92.5 -63
c-31.333 -21 -62.166 -40 -92.499 -57s-56.5 -28.167 -78.5 -33.5c-8.66699 0 -15.667 0.666992 -21 2s-11.333 5.33301 -18 12zM208.996 752.003c-18 4 -27.834 10.999 -29.501 20.999s1.83301 21.5 10.5 34.5s20.667 27 36 42l46 43.5c11.333 0 19 -3 23 -9s6 -13 6 -21
v-7c-1.33301 -8 -5.33301 -16.667 -12 -26s-14.667 -18.666 -24 -27.999s-19.166 -18.333 -29.499 -27z" />
    <glyph glyph-name="Ecircumflex" unicode="&#xca;" horiz-adv-x="486" 
d="M72 26c0 54 0.329102 107.003 0.996094 159.003s0.333984 103.667 -0.999023 155s-4 102.833 -8 154.5s-10 104.167 -18 157.5c0 1.33301 -0.833008 4 -2.5 8s-3.16699 8.16699 -4.5 12.5s-2.66602 8.16602 -3.99902 11.499s-2 5.66602 -2 6.99902
c0 3.33301 1.16699 7.33301 3.5 12s5.33301 9.16699 9 13.5s7.83398 7.83301 12.501 10.5s9.33398 3.66699 14.001 3c8 -2 14.5 -7 19.5 -15s8.83301 -16.833 11.5 -26.5s4.5 -19.167 5.5 -28.5s1.5 -16 1.5 -20l67.5 34.5c25 12.333 50.667 23.666 77 33.999
s52.666 19 78.999 26s51.166 10.5 74.499 10.5c0 -6 -1.16699 -11.333 -3.5 -16s-6.83301 -8.66699 -13.5 -12l-281 -141v-39c0.666992 -7.33301 1.5 -20 2.5 -38s2.16699 -37.167 3.5 -57.5s2.5 -39.666 3.5 -57.999s1.83301 -30.833 2.5 -37.5l206 115l5 6
c3.33301 4 7.66602 7.66699 12.999 11s10.833 5.16602 16.5 5.49902s11.167 -3.16699 16.5 -10.5c0 -12 -6 -23.667 -18 -35s-27 -22.666 -45 -33.999s-37.5 -22.333 -58.5 -33l-58.5 -31c-18 -10 -33 -20 -45 -30s-18 -19.333 -18 -28v-193
c8.66699 -3.33301 20.834 -1.83301 36.501 4.5s33.167 15.166 52.5 26.499s39.333 24.5 60 39.5l60.5 42.5l55 36c17 10.667 31.167 17 42.5 19c6.66699 0 12.667 -1.33301 18 -4s8 -8 8 -16s-4.66699 -14.333 -14 -19c-23.333 -14 -50.166 -31.5 -80.499 -52.5l-92.5 -63
c-31.333 -21 -62.166 -40 -92.499 -57s-56.5 -28.167 -78.5 -33.5c-8.66699 0 -15.667 0.666992 -21 2s-11.333 5.33301 -18 12zM76.9961 814.003c0 1.33301 0.165039 2.83203 0.498047 4.49902s0.5 2.83398 0.5 3.50098l127 237c0.666992 2.66699 4.33398 6 11.001 10
s13.667 6 21 6c0.666992 0 1.66699 -0.166992 3 -0.5l2 -0.5l164 -191c13.333 -2.66699 21.166 -6 23.499 -10s3.5 -9.33301 3.5 -16c0 -2.66699 -0.5 -6.16699 -1.5 -10.5s-2.83301 -8.33301 -5.5 -12s-6.16699 -6.83398 -10.5 -9.50098s-9.83301 -4 -16.5 -4h-4
c-0.666992 0 -1 0.333008 -1 1l-140 175c-3.33301 6 -9.66602 9 -18.999 9h-5l-114 -199c-0.666992 -1.33301 -2.66699 -3 -6 -5s-5.66602 -3 -6.99902 -3c-12 0 -19.333 1.33301 -22 4s-4 6.33398 -4 11.001z" />
    <glyph glyph-name="Edieresis" unicode="&#xcb;" horiz-adv-x="486" 
d="M72 26c0 54 0.329102 107.003 0.996094 159.003s0.333984 103.667 -0.999023 155s-4 102.833 -8 154.5s-10 104.167 -18 157.5c0 1.33301 -0.833008 4 -2.5 8s-3.16699 8.16699 -4.5 12.5s-2.66602 8.16602 -3.99902 11.499s-2 5.66602 -2 6.99902
c0 3.33301 1.16699 7.33301 3.5 12s5.33301 9.16699 9 13.5s7.83398 7.83301 12.501 10.5s9.33398 3.66699 14.001 3c8 -2 14.5 -7 19.5 -15s8.83301 -16.833 11.5 -26.5s4.5 -19.167 5.5 -28.5s1.5 -16 1.5 -20l67.5 34.5c25 12.333 50.667 23.666 77 33.999
s52.666 19 78.999 26s51.166 10.5 74.499 10.5c0 -6 -1.16699 -11.333 -3.5 -16s-6.83301 -8.66699 -13.5 -12l-281 -141v-39c0.666992 -7.33301 1.5 -20 2.5 -38s2.16699 -37.167 3.5 -57.5s2.5 -39.666 3.5 -57.999s1.83301 -30.833 2.5 -37.5l206 115l5 6
c3.33301 4 7.66602 7.66699 12.999 11s10.833 5.16602 16.5 5.49902s11.167 -3.16699 16.5 -10.5c0 -12 -6 -23.667 -18 -35s-27 -22.666 -45 -33.999s-37.5 -22.333 -58.5 -33l-58.5 -31c-18 -10 -33 -20 -45 -30s-18 -19.333 -18 -28v-193
c8.66699 -3.33301 20.834 -1.83301 36.501 4.5s33.167 15.166 52.5 26.499s39.333 24.5 60 39.5l60.5 42.5l55 36c17 10.667 31.167 17 42.5 19c6.66699 0 12.667 -1.33301 18 -4s8 -8 8 -16s-4.66699 -14.333 -14 -19c-23.333 -14 -50.166 -31.5 -80.499 -52.5l-92.5 -63
c-31.333 -21 -62.166 -40 -92.499 -57s-56.5 -28.167 -78.5 -33.5c-8.66699 0 -15.667 0.666992 -21 2s-11.333 5.33301 -18 12zM119.996 887.003c9.33301 10 17.333 16.833 24 20.5s15.334 5.5 26.001 5.5c18 0 27 -8.66699 27 -26c0 -4 -1.16699 -8.5 -3.5 -13.5
s-5.33301 -9.66699 -9 -14s-7.83398 -7.83301 -12.501 -10.5s-9 -3 -13 -1c-4.66699 -2.66699 -9.5 -3.33398 -14.5 -2.00098s-9.5 4 -13.5 8s-7.16699 8.83301 -9.5 14.5s-2.83301 11.834 -1.5 18.501zM251.996 887.003c10 10 18.332 16.833 24.999 20.5
s15.334 5.5 26.001 5.5c18 0 27 -8.66699 27 -26c0 -4 -1.16699 -8.5 -3.5 -13.5s-5.5 -9.66699 -9.5 -14s-8.33301 -7.83301 -13 -10.5s-9 -3 -13 -1c-4 -2.66699 -8.66699 -3.33398 -14 -2.00098s-10 4 -14 8s-7 8.83301 -9 14.5s-2.66699 11.834 -2 18.501z" />
    <glyph glyph-name="Igrave" unicode="&#xcc;" horiz-adv-x="157" 
d="M52 747c0 5.33301 1.83594 9.16992 5.50293 11.5029s8 3.66602 13 3.99902s10.333 0.166016 16 -0.500977s10.5 -1 14.5 -1c3.33301 -8 6.16602 -23.833 8.49902 -47.5s4.66602 -52.334 6.99902 -86.001s4 -70.834 5 -111.501l3 -123.5c1 -41.667 1.66699 -82.5 2 -122.5
s0.666016 -76.5 0.999023 -109.5s0.5 -61.167 0.5 -84.5v-45c-0.666992 -13.333 -3.5 -21.166 -8.5 -23.499s-16.5 -0.833008 -34.5 4.5c-2 0.666992 -3.66699 10.667 -5 30s-2.33301 44.833 -3 76.5s-1.33398 68 -2.00098 109l-2 126.5
c-0.666992 43.333 -1.5 86.666 -2.5 129.999s-2.16699 82.833 -3.5 118.5s-3.16602 66.334 -5.49902 92.001s-5.5 43.167 -9.5 52.5zM98.0029 807.004l-23.002 24.5c-8.66699 9 -17.167 18.667 -25.5 29s-15.666 20.666 -21.999 30.999s-9.83301 19.5 -10.5 27.5v7
c0 8.66699 1.83301 16.334 5.5 23.001s10.167 10 19.5 10l41 -47c13.333 -16 23.833 -31.167 31.5 -45.5s10.834 -26.833 9.50098 -37.5s-10 -18 -26 -22z" />
    <glyph glyph-name="Iacute" unicode="&#xcd;" horiz-adv-x="157" 
d="M52 747c0 5.33301 1.83594 9.16992 5.50293 11.5029s8 3.66602 13 3.99902s10.333 0.166016 16 -0.500977s10.5 -1 14.5 -1c3.33301 -8 6.16602 -23.833 8.49902 -47.5s4.66602 -52.334 6.99902 -86.001s4 -70.834 5 -111.501l3 -123.5c1 -41.667 1.66699 -82.5 2 -122.5
s0.666016 -76.5 0.999023 -109.5s0.5 -61.167 0.5 -84.5v-45c-0.666992 -13.333 -3.5 -21.166 -8.5 -23.499s-16.5 -0.833008 -34.5 4.5c-2 0.666992 -3.66699 10.667 -5 30s-2.33301 44.833 -3 76.5s-1.33398 68 -2.00098 109l-2 126.5
c-0.666992 43.333 -1.5 86.666 -2.5 129.999s-2.16699 82.833 -3.5 118.5s-3.16602 66.334 -5.49902 92.001s-5.5 43.167 -9.5 52.5zM64.0029 815.004c-18 4 -27.834 10.999 -29.501 20.999s1.83301 21.5 10.5 34.5s20.667 27 36 42l46 43.5c11.333 0 19 -3 23 -9
s6 -13 6 -21v-7c-1.33301 -8 -5.33301 -16.667 -12 -26s-14.667 -18.666 -24 -27.999s-19.166 -18.333 -29.499 -27z" />
    <glyph glyph-name="Icircumflex" unicode="&#xce;" horiz-adv-x="157" 
d="M52 747c0 5.33301 1.83594 9.16992 5.50293 11.5029s8 3.66602 13 3.99902s10.333 0.166016 16 -0.500977s10.5 -1 14.5 -1c3.33301 -8 6.16602 -23.833 8.49902 -47.5s4.66602 -52.334 6.99902 -86.001s4 -70.834 5 -111.501l3 -123.5c1 -41.667 1.66699 -82.5 2 -122.5
s0.666016 -76.5 0.999023 -109.5s0.5 -61.167 0.5 -84.5v-45c-0.666992 -13.333 -3.5 -21.166 -8.5 -23.499s-16.5 -0.833008 -34.5 4.5c-2 0.666992 -3.66699 10.667 -5 30s-2.33301 44.833 -3 76.5s-1.33398 68 -2.00098 109l-2 126.5
c-0.666992 43.333 -1.5 86.666 -2.5 129.999s-2.16699 82.833 -3.5 118.5s-3.16602 66.334 -5.49902 92.001s-5.5 43.167 -9.5 52.5zM-76.9971 788.004c0 1.33301 0.165039 2.83203 0.498047 4.49902s0.5 2.83398 0.5 3.50098l127 237c0.666992 2.66699 4.33398 6 11.001 10
s13.667 6 21 6c0.666992 0 1.66699 -0.166992 3 -0.5l2 -0.5l164 -191c13.333 -2.66699 21.166 -6 23.499 -10s3.5 -9.33301 3.5 -16c0 -2.66699 -0.5 -6.16699 -1.5 -10.5s-2.83301 -8.33301 -5.5 -12s-6.16699 -6.83398 -10.5 -9.50098s-9.83301 -4 -16.5 -4h-4
c-0.666992 0 -1 0.333008 -1 1l-140 175c-3.33301 6 -9.66602 9 -18.999 9h-5l-114 -199c-0.666992 -1.33301 -2.66699 -3 -6 -5s-5.66602 -3 -6.99902 -3c-12 0 -19.333 1.33301 -22 4s-4 6.33398 -4 11.001z" />
    <glyph glyph-name="Idieresis" unicode="&#xcf;" horiz-adv-x="157" 
d="M52 747c0 5.33301 1.83594 9.16992 5.50293 11.5029s8 3.66602 13 3.99902s10.333 0.166016 16 -0.500977s10.5 -1 14.5 -1c3.33301 -8 6.16602 -23.833 8.49902 -47.5s4.66602 -52.334 6.99902 -86.001s4 -70.834 5 -111.501l3 -123.5c1 -41.667 1.66699 -82.5 2 -122.5
s0.666016 -76.5 0.999023 -109.5s0.5 -61.167 0.5 -84.5v-45c-0.666992 -13.333 -3.5 -21.166 -8.5 -23.499s-16.5 -0.833008 -34.5 4.5c-2 0.666992 -3.66699 10.667 -5 30s-2.33301 44.833 -3 76.5s-1.33398 68 -2.00098 109l-2 126.5
c-0.666992 43.333 -1.5 86.666 -2.5 129.999s-2.16699 82.833 -3.5 118.5s-3.16602 66.334 -5.49902 92.001s-5.5 43.167 -9.5 52.5zM-13.9971 879.004c9.33301 10 17.333 16.833 24 20.5s15.334 5.5 26.001 5.5c18 0 27 -8.66699 27 -26c0 -4 -1.16699 -8.5 -3.5 -13.5
s-5.33301 -9.66699 -9 -14s-7.83398 -7.83301 -12.501 -10.5s-9 -3 -13 -1c-4.66699 -2.66699 -9.5 -3.33398 -14.5 -2.00098s-9.5 4 -13.5 8s-7.16699 8.83301 -9.5 14.5s-2.83301 11.834 -1.5 18.501zM118.003 879.004c10 10 18.332 16.833 24.999 20.5
s15.334 5.5 26.001 5.5c18 0 27 -8.66699 27 -26c0 -4 -1.16699 -8.5 -3.5 -13.5s-5.5 -9.66699 -9.5 -14s-8.33301 -7.83301 -13 -10.5s-9 -3 -13 -1c-4 -2.66699 -8.66699 -3.33398 -14 -2.00098s-10 4 -14 8s-7 8.83301 -9 14.5s-2.66699 11.834 -2 18.501z" />
    <glyph glyph-name="Eth" unicode="&#xd0;" horiz-adv-x="568" 
d="M18 214c0 2.66699 1.83594 7.33203 5.50293 13.999s6.16699 10.667 7.5 12c20.667 1.33301 38.334 3 53.001 5s28 4.66699 40 8l-26 362c-2 -1.33301 -5.5 -3.16602 -10.5 -5.49902l-15.5 -7.5c-5.33301 -2.66699 -10.5 -5.5 -15.5 -8.5s-8.16699 -4.5 -9.5 -4.5
c-0.666992 0 -1.83398 -0.166992 -3.50098 -0.5s-2.83398 -0.5 -3.50098 -0.5c-3.33301 0 -7.16602 0.833008 -11.499 2.5s-6.5 5.5 -6.5 11.5c0 10 2.16699 18.167 6.5 24.5s10 12.166 17 17.499s14.5 10.666 22.5 15.999s15.5 12.166 22.5 20.499s12.667 18.833 17 31.5
s6.5 28.667 6.5 48c13.333 0 21.666 -2.33301 24.999 -7s5.33301 -10.167 6 -16.5s1.5 -12.666 2.5 -18.999s5.83301 -10.833 14.5 -13.5c18.667 0.666992 41.167 0.666992 67.5 0s54 -2.83398 83 -6.50098s57.667 -9.16699 86 -16.5s53.666 -17.666 75.999 -30.999
s40 -30.166 53 -50.499s18.833 -45.166 17.5 -74.499c-8.66699 -51.333 -25.167 -100.666 -49.5 -147.999s-53 -92.833 -86 -136.5s-68.667 -85.5 -107 -125.5l-114.5 -115c-0.666992 0 -1.66699 -0.166992 -3 -0.5s-2.33301 -0.5 -3 -0.5c-6 0 -11 2 -15 6s-6 9 -6 15
c0 13.333 8.33301 30.5 25 51.5s37.334 44.833 62.001 71.5l81 87c29.333 31.333 56.333 63.833 81 97.5s45.334 68 62.001 103s25 69.5 25 103.5c0 18 -5 33.5 -15 46.5s-22.833 24.167 -38.5 33.5s-33.334 16.666 -53.001 21.999s-39.5 9.5 -59.5 12.5s-39 5 -57 6
s-33.333 1.5 -46 1.5c-3.33301 0 -7.66602 -0.166992 -12.999 -0.5l-16.5 -1c-5.66699 -0.333008 -10.834 -0.833008 -15.501 -1.5s-7.33398 -1 -8.00098 -1l-13 -12c0 -1.33301 -0.166992 -7 -0.5 -17s-0.666016 -21.333 -0.999023 -34s-0.5 -25.667 -0.5 -39v-31
c0 -43.333 1.16699 -86 3.5 -128s4.83301 -84 7.5 -126c13.333 2.66699 27.5 5.16699 42.5 7.5s33.5 3.5 55.5 3.5c3.33301 0 6.16602 -1.66699 8.49902 -5s3.83301 -7 4.5 -11s1 -8.33301 1 -13v-7c0 -2 -0.166992 -5 -0.5 -9s-0.5 -6.33301 -0.5 -7l-108 -32
c0.666992 -12 1 -24.333 1 -37v-37c0 -4 0.166992 -8.33301 0.5 -13s0.166016 -9.16699 -0.500977 -13.5s-2.5 -8 -5.5 -11s-7.5 -4.5 -13.5 -4.5c-4 0 -8 1 -12 3s-6.33301 5.33301 -7 10c0 34 -2.5 58.833 -7.5 74.5s-11 26.167 -18 31.5s-14.667 7.5 -23 6.5
s-15.833 -1.5 -22.5 -1.5l-8 -1c-5.33301 0 -11 0.333008 -17 1s-11.333 2 -16 4s-7 5.33301 -7 10z" />
    <glyph glyph-name="Ntilde" unicode="&#xd1;" horiz-adv-x="554" 
d="M31 615l-0.00585938 47.9971c8 0 17 -2.66699 27 -8s19.667 -11.666 29 -18.999s18 -15.5 26 -24.5s14.333 -16.5 19 -22.5l295 -397c2 11.333 3.83301 32.333 5.5 63s2.33398 65.5 2.00098 104.5s-1.33301 79.833 -3 122.5s-4 82.5 -7 119.5s-6.33301 68.333 -10 94
s-8.5 41.167 -14.5 46.5c0 10 1.83301 19.333 5.5 28s10.834 13 21.501 13s19.334 -6 26.001 -18s11.667 -25.5 15 -40.5s5.83301 -29.667 7.5 -44s2.5 -23.833 2.5 -28.5c0.666992 -12 1.33398 -30.167 2.00098 -54.5s1.33398 -52 2.00098 -83s1.5 -63.833 2.5 -98.5
s2 -67.334 3 -98.001s1.66699 -58.5 2 -83.5s0.833008 -43.5 1.5 -55.5c0 -8.66699 1.5 -16.667 4.5 -24l9 -22c3 -7.33301 5.83301 -14.666 8.5 -21.999s4 -15 4 -23c0 -13.333 -4.83301 -23.166 -14.5 -29.499s-20.5 -9.5 -32.5 -9.5c-6.66699 0 -12.5 0.833008 -17.5 2.5
s-9 4.66699 -12 9s-4.66699 9.83301 -5 16.5s0.833984 15.334 3.50098 26.001c-7.33301 8.66699 -18.666 22.834 -33.999 42.501l-51.5 66l-60.5 76.5l-61 76.5l-52 65.5l-34 43c-1.33301 2 -3.66602 4.66699 -6.99902 8l-24 24c-3.33301 3.33301 -6 5.66602 -8 6.99902
c-2.66699 -38.667 -2.33398 -77.5 0.999023 -116.5s7.83301 -77.833 13.5 -116.5l17 -115.5c5.66699 -38.333 8.5 -76.833 8.5 -115.5c0 -10.667 -1 -20.167 -3 -28.5s-10 -14.833 -24 -19.5c-13.333 4.66699 -22.333 13.5 -27 26.5s-4.33398 25.5 0.999023 37.5z
M381.994 939.997c9.33301 2.66699 18.168 4.16797 26.501 4.50098s14.166 -5.5 17.499 -17.5c4 -10 2.83301 -21.167 -3.5 -33.5s-15.333 -24.666 -27 -36.999s-24.334 -23.666 -38.001 -33.999s-26.5 -18.5 -38.5 -24.5c-10 -2.66699 -19.833 -3.33398 -29.5 -2.00098
s-18.667 3.83301 -27 7.5s-15.333 8.16699 -21 13.5s-9.5 11 -11.5 17c-8.66699 4.66699 -14.834 11.667 -18.501 21s-7.66699 18.5 -12 27.5s-9.5 16.667 -15.5 23s-15.333 9.16602 -28 8.49902c-14 0 -24 -3.33301 -30 -10s-11 -14.667 -15 -24l-12.5 -28.5
c-4.33301 -9.66699 -10.833 -17.834 -19.5 -24.501c-6.66699 -2 -12.167 -2.5 -16.5 -1.5s-7.66602 2.83301 -9.99902 5.5s-4.16602 6.16699 -5.49902 10.5l-4 13.5c1.33301 20.667 6.5 38 15.5 52s20 25.167 33 33.5s27.333 14 43 17s30.667 3.83301 45 2.5
s27.5 -4.66602 39.5 -9.99902s20.667 -12.666 26 -21.999c9.33301 -30.667 18.5 -51.167 27.5 -61.5s17.833 -14.833 26.5 -13.5s17 7.16602 25 17.499s15.5 21 22.5 32s13.5 20.667 19.5 29s11.333 11.166 16 8.49902z" />
    <glyph glyph-name="Ograve" unicode="&#xd2;" horiz-adv-x="392" 
d="M15 214c8 116 24.6699 210.502 50.0029 283.502s54.833 125.167 88.5 156.5s68.667 41.833 105 31.5s69.166 -40.833 98.499 -91.5c10 -33.333 16.5 -70.666 19.5 -111.999s2.33301 -83.166 -2 -125.499s-12 -83.833 -23 -124.5s-26.167 -77.334 -45.5 -110.001
s-42.333 -60.167 -69 -82.5s-57.334 -35.833 -92.001 -40.5c-24.667 0 -45.334 7.66699 -62.001 23s-30 34.166 -40 56.499s-17.167 45.666 -21.5 69.999s-6.5 46.166 -6.5 65.499zM68.0029 220.002c0 -16.667 0.832031 -34.001 2.49902 -52.001s5.5 -34.5 11.5 -49.5
s15.167 -27.333 27.5 -37s28.833 -14.5 49.5 -14.5c23.333 0 44.666 10.667 63.999 32s36 49 50 83s25.167 71.667 33.5 113s13.333 81.833 15 121.5s-0.333008 76.167 -6 109.5s-15.5 58.5 -29.5 75.5s-32.5 23.833 -55.5 20.5s-50.5 -21.666 -82.5 -54.999l-28 -84.5
c-9.33301 -29 -17.666 -58.333 -24.999 -88s-13.666 -59.167 -18.999 -88.5s-8 -58 -8 -86zM297.002 749.001l-23.002 24.5c-8.66699 9 -17.167 18.667 -25.5 29s-15.666 20.666 -21.999 30.999s-9.83301 19.5 -10.5 27.5v7c0 8.66699 1.83301 16.334 5.5 23.001
s10.167 10 19.5 10l41 -47c13.333 -16 23.833 -31.167 31.5 -45.5s10.834 -26.833 9.50098 -37.5s-10 -18 -26 -22z" />
    <glyph glyph-name="Oacute" unicode="&#xd3;" horiz-adv-x="392" 
d="M15 214c8 116 24.6699 210.502 50.0029 283.502s54.833 125.167 88.5 156.5s68.667 41.833 105 31.5s69.166 -40.833 98.499 -91.5c10 -33.333 16.5 -70.666 19.5 -111.999s2.33301 -83.166 -2 -125.499s-12 -83.833 -23 -124.5s-26.167 -77.334 -45.5 -110.001
s-42.333 -60.167 -69 -82.5s-57.334 -35.833 -92.001 -40.5c-24.667 0 -45.334 7.66699 -62.001 23s-30 34.166 -40 56.499s-17.167 45.666 -21.5 69.999s-6.5 46.166 -6.5 65.499zM68.0029 220.002c0 -16.667 0.832031 -34.001 2.49902 -52.001s5.5 -34.5 11.5 -49.5
s15.167 -27.333 27.5 -37s28.833 -14.5 49.5 -14.5c23.333 0 44.666 10.667 63.999 32s36 49 50 83s25.167 71.667 33.5 113s13.333 81.833 15 121.5s-0.333008 76.167 -6 109.5s-15.5 58.5 -29.5 75.5s-32.5 23.833 -55.5 20.5s-50.5 -21.666 -82.5 -54.999l-28 -84.5
c-9.33301 -29 -17.666 -58.333 -24.999 -88s-13.666 -59.167 -18.999 -88.5s-8 -58 -8 -86zM155.002 729.001c-18 4 -27.834 10.999 -29.501 20.999s1.83301 21.5 10.5 34.5s20.667 27 36 42l46 43.5c11.333 0 19 -3 23 -9s6 -13 6 -21v-7
c-1.33301 -8 -5.33301 -16.667 -12 -26s-14.667 -18.666 -24 -27.999s-19.166 -18.333 -29.499 -27z" />
    <glyph glyph-name="Ocircumflex" unicode="&#xd4;" horiz-adv-x="392" 
d="M15 214c8 116 24.6699 210.502 50.0029 283.502s54.833 125.167 88.5 156.5s68.667 41.833 105 31.5s69.166 -40.833 98.499 -91.5c10 -33.333 16.5 -70.666 19.5 -111.999s2.33301 -83.166 -2 -125.499s-12 -83.833 -23 -124.5s-26.167 -77.334 -45.5 -110.001
s-42.333 -60.167 -69 -82.5s-57.334 -35.833 -92.001 -40.5c-24.667 0 -45.334 7.66699 -62.001 23s-30 34.166 -40 56.499s-17.167 45.666 -21.5 69.999s-6.5 46.166 -6.5 65.499zM68.0029 220.002c0 -16.667 0.832031 -34.001 2.49902 -52.001s5.5 -34.5 11.5 -49.5
s15.167 -27.333 27.5 -37s28.833 -14.5 49.5 -14.5c23.333 0 44.666 10.667 63.999 32s36 49 50 83s25.167 71.667 33.5 113s13.333 81.833 15 121.5s-0.333008 76.167 -6 109.5s-15.5 58.5 -29.5 75.5s-32.5 23.833 -55.5 20.5s-50.5 -21.666 -82.5 -54.999l-28 -84.5
c-9.33301 -29 -17.666 -58.333 -24.999 -88s-13.666 -59.167 -18.999 -88.5s-8 -58 -8 -86zM20.002 694.001c0 1.33301 0.165039 2.83203 0.498047 4.49902s0.5 2.83398 0.5 3.50098l127 237c0.666992 2.66699 4.33398 6 11.001 10s13.667 6 21 6
c0.666992 0 1.66699 -0.166992 3 -0.5l2 -0.5l164 -191c13.333 -2.66699 21.166 -6 23.499 -10s3.5 -9.33301 3.5 -16c0 -2.66699 -0.5 -6.16699 -1.5 -10.5s-2.83301 -8.33301 -5.5 -12s-6.16699 -6.83398 -10.5 -9.50098s-9.83301 -4 -16.5 -4h-4
c-0.666992 0 -1 0.333008 -1 1l-140 175c-3.33301 6 -9.66602 9 -18.999 9h-5l-114 -199c-0.666992 -1.33301 -2.66699 -3 -6 -5s-5.66602 -3 -6.99902 -3c-12 0 -19.333 1.33301 -22 4s-4 6.33398 -4 11.001z" />
    <glyph glyph-name="Otilde" unicode="&#xd5;" horiz-adv-x="392" 
d="M15 214c8 116 24.6699 210.502 50.0029 283.502s54.833 125.167 88.5 156.5s68.667 41.833 105 31.5s69.166 -40.833 98.499 -91.5c10 -33.333 16.5 -70.666 19.5 -111.999s2.33301 -83.166 -2 -125.499s-12 -83.833 -23 -124.5s-26.167 -77.334 -45.5 -110.001
s-42.333 -60.167 -69 -82.5s-57.334 -35.833 -92.001 -40.5c-24.667 0 -45.334 7.66699 -62.001 23s-30 34.166 -40 56.499s-17.167 45.666 -21.5 69.999s-6.5 46.166 -6.5 65.499zM68.0029 220.002c0 -16.667 0.832031 -34.001 2.49902 -52.001s5.5 -34.5 11.5 -49.5
s15.167 -27.333 27.5 -37s28.833 -14.5 49.5 -14.5c23.333 0 44.666 10.667 63.999 32s36 49 50 83s25.167 71.667 33.5 113s13.333 81.833 15 121.5s-0.333008 76.167 -6 109.5s-15.5 58.5 -29.5 75.5s-32.5 23.833 -55.5 20.5s-50.5 -21.666 -82.5 -54.999l-28 -84.5
c-9.33301 -29 -17.666 -58.333 -24.999 -88s-13.666 -59.167 -18.999 -88.5s-8 -58 -8 -86zM388.002 886.001c9.33301 2.66699 18.168 4.16797 26.501 4.50098s14.166 -5.5 17.499 -17.5c4 -10 2.83301 -21.167 -3.5 -33.5s-15.333 -24.666 -27 -36.999
s-24.334 -23.666 -38.001 -33.999s-26.5 -18.5 -38.5 -24.5c-10 -2.66699 -19.833 -3.33398 -29.5 -2.00098s-18.667 3.83301 -27 7.5s-15.333 8.16699 -21 13.5s-9.5 11 -11.5 17c-8.66699 4.66699 -14.834 11.667 -18.501 21s-7.66699 18.5 -12 27.5s-9.5 16.667 -15.5 23
s-15.333 9.16602 -28 8.49902c-14 0 -24 -3.33301 -30 -10s-11 -14.667 -15 -24l-12.5 -28.5c-4.33301 -9.66699 -10.833 -17.834 -19.5 -24.501c-6.66699 -2 -12.167 -2.5 -16.5 -1.5s-7.66602 2.83301 -9.99902 5.5s-4.16602 6.16699 -5.49902 10.5l-4 13.5
c1.33301 20.667 6.5 38 15.5 52s20 25.167 33 33.5s27.333 14 43 17s30.667 3.83301 45 2.5s27.5 -4.66602 39.5 -9.99902s20.667 -12.666 26 -21.999c9.33301 -30.667 18.5 -51.167 27.5 -61.5s17.833 -14.833 26.5 -13.5s17 7.16602 25 17.499s15.5 21 22.5 32
s13.5 20.667 19.5 29s11.333 11.166 16 8.49902z" />
    <glyph glyph-name="Odieresis" unicode="&#xd6;" horiz-adv-x="392" 
d="M15 214c8 116 24.6699 210.502 50.0029 283.502s54.833 125.167 88.5 156.5s68.667 41.833 105 31.5s69.166 -40.833 98.499 -91.5c10 -33.333 16.5 -70.666 19.5 -111.999s2.33301 -83.166 -2 -125.499s-12 -83.833 -23 -124.5s-26.167 -77.334 -45.5 -110.001
s-42.333 -60.167 -69 -82.5s-57.334 -35.833 -92.001 -40.5c-24.667 0 -45.334 7.66699 -62.001 23s-30 34.166 -40 56.499s-17.167 45.666 -21.5 69.999s-6.5 46.166 -6.5 65.499zM68.0029 220.002c0 -16.667 0.832031 -34.001 2.49902 -52.001s5.5 -34.5 11.5 -49.5
s15.167 -27.333 27.5 -37s28.833 -14.5 49.5 -14.5c23.333 0 44.666 10.667 63.999 32s36 49 50 83s25.167 71.667 33.5 113s13.333 81.833 15 121.5s-0.333008 76.167 -6 109.5s-15.5 58.5 -29.5 75.5s-32.5 23.833 -55.5 20.5s-50.5 -21.666 -82.5 -54.999l-28 -84.5
c-9.33301 -29 -17.666 -58.333 -24.999 -88s-13.666 -59.167 -18.999 -88.5s-8 -58 -8 -86zM147.002 797.001c9.33301 10 17.333 16.833 24 20.5s15.334 5.5 26.001 5.5c18 0 27 -8.66699 27 -26c0 -4 -1.16699 -8.5 -3.5 -13.5s-5.33301 -9.66699 -9 -14
s-7.83398 -7.83301 -12.501 -10.5s-9 -3 -13 -1c-4.66699 -2.66699 -9.5 -3.33398 -14.5 -2.00098s-9.5 4 -13.5 8s-7.16699 8.83301 -9.5 14.5s-2.83301 11.834 -1.5 18.501zM279.002 797.001c10 10 18.332 16.833 24.999 20.5s15.334 5.5 26.001 5.5
c18 0 27 -8.66699 27 -26c0 -4 -1.16699 -8.5 -3.5 -13.5s-5.5 -9.66699 -9.5 -14s-8.33301 -7.83301 -13 -10.5s-9 -3 -13 -1c-4 -2.66699 -8.66699 -3.33398 -14 -2.00098s-10 4 -14 8s-7 8.83301 -9 14.5s-2.66699 11.834 -2 18.501z" />
    <glyph glyph-name="multiply" unicode="&#xd7;" horiz-adv-x="465" 
d="M318 461c10 3.33301 18.333 4.00391 25 2.00391s11.334 -5.5 14.001 -10.5s3 -10.5 1 -16.5s-6 -12 -12 -18l-99 -119c5.33301 -10.667 13 -22.834 23 -36.501l29 -41c9.33301 -13.667 17.333 -27.334 24 -41.001s9.33398 -25.5 8.00098 -35.5
c-5.33301 -10.667 -15.333 -14 -30 -10c-15.333 2 -25 6.83301 -29 14.5s-7.33301 17.334 -10 29.001s-7.33398 24.834 -14.001 39.501s-20.334 30.334 -41.001 47.001c-14 -12.667 -29.333 -28.334 -46 -47.001s-30.334 -39 -41.001 -61
c-2.66699 -1.33301 -6.83398 -1.83301 -12.501 -1.5s-11.5 1.16602 -17.5 2.49902s-11.167 3.33301 -15.5 6s-6.16602 6 -5.49902 10l110 134l-96 147v6c0 2.66699 0.333008 5 1 7c2 4 5.66699 8.33301 11 13s13.333 4.66699 24 0l16 -27.5
c6.66699 -11.667 14.167 -23.5 22.5 -35.5s17.333 -24 27 -36s18.834 -22.333 27.501 -31c1.33301 -0.666992 2.33301 -1 3 -1c0.666992 -0.666992 1.66699 -1 3 -1c1.33301 -0.666992 2 -1.33398 2 -2.00098s0.5 -0.833984 1.5 -0.500977s2.83301 2.16602 5.5 5.49902
l14.5 17.5l28.5 35c12 15 28 33.833 48 56.5z" />
    <glyph glyph-name="Oslash" unicode="&#xd8;" horiz-adv-x="392" 
d="M56 -46l21 72.999c-13.333 14.667 -24.666 31.667 -33.999 51c-10 22.667 -17.167 46.167 -21.5 70.5s-6.5 46.166 -6.5 65.499c8 116 24.667 210.5 50 283.5s54.833 125.167 88.5 156.5s68.5 42 104.5 32c6.66699 -2 13 -4.33301 19 -7l11 36h49l-21 -66
c14 -14.667 27.667 -33 41 -55c10 -33.333 16.5 -70.666 19.5 -111.999s2.33301 -83.166 -2 -125.499s-12 -83.833 -23 -124.5s-26.167 -77.334 -45.5 -110.001s-42.333 -60.167 -69 -82.5s-57.334 -35.833 -92.001 -40.5c-10.667 0 -20.667 1.33301 -30 4l-27 -89
c-8 0 -15.333 3.33301 -22 10s-10 14.334 -10 23.001v7zM68 219.999c0 -16.667 0.831055 -34.001 2.49805 -52.001s5.5 -34.333 11.5 -49c3.33301 -10.667 8.33301 -19.667 15 -27l162 528c-8 3.33301 -17.667 4 -29 2c-22.667 -3.33301 -50 -21.666 -82 -54.999l-28 -84.5
c-9.33301 -29 -17.666 -58.333 -24.999 -88s-13.666 -59.167 -18.999 -88.5s-8 -58 -8 -86zM158.998 66.998c23.333 0 44.667 10.667 64 32s36 49 50 83s25.167 71.667 33.5 113s13.333 81.833 15 121.5s-0.5 76.167 -6.5 109.5c-4 24 -10.333 44 -19 60l-160 -518
c7.33301 -0.666992 15 -1 23 -1z" />
    <glyph glyph-name="Ugrave" unicode="&#xd9;" horiz-adv-x="461" 
d="M364 268c-6.66699 -24.667 -15.4961 -51.8291 -26.4961 -81.4961s-24.667 -57.5 -41 -83.5s-35.833 -47.833 -58.5 -65.5s-49 -26.5 -79 -26.5c-23.333 0 -42.166 4.83301 -56.499 14.5s-25.5 22.667 -33.5 39s-13.833 34.333 -17.5 54s-6.16699 39.5 -7.5 59.5
c-0.666992 6.66699 -1.33398 20.167 -2.00098 40.5s-1.33398 44.333 -2.00098 72s-1.5 57.167 -2.5 88.5s-2 60.666 -3 87.999s-1.83301 51.333 -2.5 72s-1 34.334 -1 41.001c-0.666992 6.66699 -0.333984 11.834 0.999023 15.501s3.66602 6.33398 6.99902 8.00098
s7.16602 2.66699 11.499 3s8.16602 0.5 11.499 0.5h8c4 0 7.66699 -0.333008 11 -1s6.33301 -2.16699 9 -4.5s4 -5.5 4 -9.5v-426c0 -12 1.83301 -24 5.5 -36s8.83398 -23.167 15.501 -33.5s15 -18.833 25 -25.5s21.333 -10 34 -10c25.333 2 47.166 15.5 65.499 40.5
s34.166 56.5 47.499 94.5s24.333 79.333 33 124s16.334 87.667 23.001 129l17.5 110c5 32 10.5 54.333 16.5 67c12.667 11.333 22.667 14.166 30 8.49902s12.833 -14.334 16.5 -26.001s5.83398 -24.334 6.50098 -38.001s0 -23.5 -2 -29.5c0 -44.667 -2.16699 -89 -6.5 -133
s-6.5 -88.667 -6.5 -134c0 -28.667 1.33301 -57.334 4 -86.001s5.66699 -57.334 9 -86.001s6.33301 -57.167 9 -85.5s4 -56.5 4 -84.5c0 -5.33301 -0.333008 -10.833 -1 -16.5s-2.16699 -10.834 -4.5 -15.501s-5.5 -8.66699 -9.5 -12s-9.66699 -5 -17 -5l-2.5 0.5
c-1.66699 0.333008 -3.16699 0.5 -4.5 0.5zM238.004 663.005l-23.002 24.5c-8.66699 9 -17.167 18.667 -25.5 29s-15.666 20.666 -21.999 30.999s-9.83301 19.5 -10.5 27.5v7c0 8.66699 1.83301 16.334 5.5 23.001s10.167 10 19.5 10l41 -47
c13.333 -16 23.833 -31.167 31.5 -45.5s10.834 -26.833 9.50098 -37.5s-10 -18 -26 -22z" />
    <glyph glyph-name="Uacute" unicode="&#xda;" horiz-adv-x="461" 
d="M364 268c-6.66699 -24.667 -15.4961 -51.8291 -26.4961 -81.4961s-24.667 -57.5 -41 -83.5s-35.833 -47.833 -58.5 -65.5s-49 -26.5 -79 -26.5c-23.333 0 -42.166 4.83301 -56.499 14.5s-25.5 22.667 -33.5 39s-13.833 34.333 -17.5 54s-6.16699 39.5 -7.5 59.5
c-0.666992 6.66699 -1.33398 20.167 -2.00098 40.5s-1.33398 44.333 -2.00098 72s-1.5 57.167 -2.5 88.5s-2 60.666 -3 87.999s-1.83301 51.333 -2.5 72s-1 34.334 -1 41.001c-0.666992 6.66699 -0.333984 11.834 0.999023 15.501s3.66602 6.33398 6.99902 8.00098
s7.16602 2.66699 11.499 3s8.16602 0.5 11.499 0.5h8c4 0 7.66699 -0.333008 11 -1s6.33301 -2.16699 9 -4.5s4 -5.5 4 -9.5v-426c0 -12 1.83301 -24 5.5 -36s8.83398 -23.167 15.501 -33.5s15 -18.833 25 -25.5s21.333 -10 34 -10c25.333 2 47.166 15.5 65.499 40.5
s34.166 56.5 47.499 94.5s24.333 79.333 33 124s16.334 87.667 23.001 129l17.5 110c5 32 10.5 54.333 16.5 67c12.667 11.333 22.667 14.166 30 8.49902s12.833 -14.334 16.5 -26.001s5.83398 -24.334 6.50098 -38.001s0 -23.5 -2 -29.5c0 -44.667 -2.16699 -89 -6.5 -133
s-6.5 -88.667 -6.5 -134c0 -28.667 1.33301 -57.334 4 -86.001s5.66699 -57.334 9 -86.001s6.33301 -57.167 9 -85.5s4 -56.5 4 -84.5c0 -5.33301 -0.333008 -10.833 -1 -16.5s-2.16699 -10.834 -4.5 -15.501s-5.5 -8.66699 -9.5 -12s-9.66699 -5 -17 -5l-2.5 0.5
c-1.66699 0.333008 -3.16699 0.5 -4.5 0.5zM220.004 601.005c-18 4 -27.834 10.999 -29.501 20.999s1.83301 21.5 10.5 34.5s20.667 27 36 42l46 43.5c11.333 0 19 -3 23 -9s6 -13 6 -21v-7c-1.33301 -8 -5.33301 -16.667 -12 -26s-14.667 -18.666 -24 -27.999
s-19.166 -18.333 -29.499 -27z" />
    <glyph glyph-name="Ucircumflex" unicode="&#xdb;" horiz-adv-x="461" 
d="M364 268c-6.66699 -24.667 -15.4961 -51.8291 -26.4961 -81.4961s-24.667 -57.5 -41 -83.5s-35.833 -47.833 -58.5 -65.5s-49 -26.5 -79 -26.5c-23.333 0 -42.166 4.83301 -56.499 14.5s-25.5 22.667 -33.5 39s-13.833 34.333 -17.5 54s-6.16699 39.5 -7.5 59.5
c-0.666992 6.66699 -1.33398 20.167 -2.00098 40.5s-1.33398 44.333 -2.00098 72s-1.5 57.167 -2.5 88.5s-2 60.666 -3 87.999s-1.83301 51.333 -2.5 72s-1 34.334 -1 41.001c-0.666992 6.66699 -0.333984 11.834 0.999023 15.501s3.66602 6.33398 6.99902 8.00098
s7.16602 2.66699 11.499 3s8.16602 0.5 11.499 0.5h8c4 0 7.66699 -0.333008 11 -1s6.33301 -2.16699 9 -4.5s4 -5.5 4 -9.5v-426c0 -12 1.83301 -24 5.5 -36s8.83398 -23.167 15.501 -33.5s15 -18.833 25 -25.5s21.333 -10 34 -10c25.333 2 47.166 15.5 65.499 40.5
s34.166 56.5 47.499 94.5s24.333 79.333 33 124s16.334 87.667 23.001 129l17.5 110c5 32 10.5 54.333 16.5 67c12.667 11.333 22.667 14.166 30 8.49902s12.833 -14.334 16.5 -26.001s5.83398 -24.334 6.50098 -38.001s0 -23.5 -2 -29.5c0 -44.667 -2.16699 -89 -6.5 -133
s-6.5 -88.667 -6.5 -134c0 -28.667 1.33301 -57.334 4 -86.001s5.66699 -57.334 9 -86.001s6.33301 -57.167 9 -85.5s4 -56.5 4 -84.5c0 -5.33301 -0.333008 -10.833 -1 -16.5s-2.16699 -10.834 -4.5 -15.501s-5.5 -8.66699 -9.5 -12s-9.66699 -5 -17 -5l-2.5 0.5
c-1.66699 0.333008 -3.16699 0.5 -4.5 0.5zM52.0039 694.005c0 1.33301 0.165039 2.83203 0.498047 4.49902s0.5 2.83398 0.5 3.50098l127 237c0.666992 2.66699 4.33398 6 11.001 10s13.667 6 21 6c0.666992 0 1.66699 -0.166992 3 -0.5l2 -0.5l164 -191
c13.333 -2.66699 21.166 -6 23.499 -10s3.5 -9.33301 3.5 -16c0 -2.66699 -0.5 -6.16699 -1.5 -10.5s-2.83301 -8.33301 -5.5 -12s-6.16699 -6.83398 -10.5 -9.50098s-9.83301 -4 -16.5 -4h-4c-0.666992 0 -1 0.333008 -1 1l-140 175c-3.33301 6 -9.66602 9 -18.999 9h-5
l-114 -199c-0.666992 -1.33301 -2.66699 -3 -6 -5s-5.66602 -3 -6.99902 -3c-12 0 -19.333 1.33301 -22 4s-4 6.33398 -4 11.001z" />
    </font>
</defs>
</svg>
